Giphurs-Black.ufo
<glyph name="quotedbl" format="2">
  <advance width="1036"/>
  <unicode hex="0022"/>
  <outline>
    <contour>
      <point x="622" y="968" type="line"/>
      <point x="598" y="1480" type="line"/>
      <point x="966" y="1480" type="line"/>
      <point x="942" y="968" type="line"/>
    </contour>
    <contour>
      <point x="94" y="968" type="line"/>
      <point x="70" y="1480" type="line"/>
      <point x="438" y="1480" type="line"/>
      <point x="414" y="968" type="line"/>
    </contour>
  </outline>
</glyph>
<glyph name="ampersand" format="2">
  <advance width="1498"/>
  <unicode hex="0026"/>
  <outline>
    <contour>
      <point x="290" y="815" type="line"/>
      <point x="290" y="815"/>
      <point x="170" y="929"/>
      <point x="170" y="1083" type="curve" smooth="yes"/>
      <point x="170" y="1262"/>
      <point x="290" y="1510"/>
      <point x="650" y="1510" type="curve" smooth="yes"/>
      <point x="1010" y="1510"/>
      <point x="1130" y="1287"/>
      <point x="1130" y="1147" type="curve" smooth="yes"/>
      <point x="770" y="1107" type="line" smooth="yes"/>
      <point x="770" y="1167"/>
      <point x="730" y="1190"/>
      <point x="650" y="1190" type="curve" smooth="yes"/>
      <point x="570" y="1190"/>
      <point x="530" y="1153"/>
      <point x="530" y="1083" type="curve" smooth="yes"/>
      <point x="530" y="1053"/>
      <point x="540" y="1027"/>
      <point x="576" y="989" type="curve"/>
      <point x="1448" y="0" type="line"/>
      <point x="1363" y="0"/>
      <point x="1105" y="0"/>
      <point x="1020" y="0" type="curve"/>
    </contour>
    <contour>
      <point x="409" y="423" type="curve" smooth="yes"/>
      <point x="409" y="347"/>
      <point x="472" y="290"/>
      <point x="692" y="290" type="curve" smooth="yes"/>
      <point x="962" y="290"/>
      <point x="1059" y="517"/>
      <point x="1059" y="667" type="curve" smooth="yes"/>
      <point x="1401" y="573" type="line"/>
      <point x="1381" y="288"/>
      <point x="1150" y="-30"/>
      <point x="650" y="-30" type="curve" smooth="yes"/>
      <point x="290" y="-30"/>
      <point x="50" y="120"/>
      <point x="50" y="423" type="curve" smooth="yes"/>
      <point x="50" y="656"/>
      <point x="304" y="789"/>
      <point x="650" y="989" type="curve" smooth="yes"/>
      <point x="702" y="1019"/>
      <point x="770" y="1067"/>
      <point x="770" y="1107" type="curve"/>
      <point x="1130" y="1147" type="line"/>
      <point x="1130" y="917"/>
      <point x="996" y="817"/>
      <point x="650" y="617" type="curve" smooth="yes"/>
      <point x="563" y="567"/>
      <point x="409" y="506"/>
    </contour>
  </outline>
</glyph>
<glyph name="period" format="2">
  <advance width="540"/>
  <unicode hex="002E"/>
  <outline>
    <contour>
      <point x="70" y="170" type="curve" smooth="yes"/>
      <point x="70" y="281"/>
      <point x="159" y="370"/>
      <point x="270" y="370" type="curve" smooth="yes"/>
      <point x="381" y="370"/>
      <point x="470" y="281"/>
      <point x="470" y="170" type="curve" smooth="yes"/>
      <point x="470" y="59"/>
      <point x="381" y="-30"/>
      <point x="270" y="-30" type="curve" smooth="yes"/>
      <point x="159" y="-30"/>
      <point x="70" y="59"/>
    </contour>
  </outline>
</glyph>
<glyph name="two" format="2">
  <advance width="1278"/>
  <unicode hex="0032"/>
  <outline>
    <contour>
      <point x="468" y="906" type="curve"/>
      <point x="81" y="990" type="line" smooth="yes"/>
      <point x="81" y="1310"/>
      <point x="307" y="1510"/>
      <point x="643" y="1510" type="curve" smooth="yes"/>
      <point x="979" y="1510"/>
      <point x="1205" y="1310"/>
      <point x="1205" y="1030" type="curve" smooth="yes"/>
      <point x="825" y="1030" type="line" smooth="yes"/>
      <point x="825" y="1120"/>
      <point x="738" y="1174"/>
      <point x="643" y="1174" type="curve" smooth="yes"/>
      <point x="528" y="1174"/>
      <point x="461" y="1090"/>
      <point x="461" y="990" type="curve" smooth="yes"/>
      <point x="461" y="932"/>
      <point x="468" y="906"/>
    </contour>
    <contour>
      <point x="64" y="0" type="curve"/>
      <point x="64" y="160"/>
      <point x="84" y="465"/>
      <point x="643" y="788" type="curve" smooth="yes"/>
      <point x="823" y="892"/>
      <point x="825" y="950"/>
      <point x="825" y="1030" type="curve"/>
      <point x="1205" y="1030" type="line"/>
      <point x="1205" y="739"/>
      <point x="1020" y="628"/>
      <point x="743" y="468" type="curve" smooth="yes"/>
      <point x="483" y="318"/>
      <point x="444" y="90"/>
      <point x="444" y="0" type="curve"/>
      <point x="377" y="0"/>
      <point x="131" y="0"/>
    </contour>
    <contour>
      <point x="344" y="336" type="line"/>
      <point x="1214" y="336" type="line"/>
      <point x="1214" y="0" type="line"/>
      <point x="444" y="0" type="line"/>
    </contour>
  </outline>
</glyph>
<glyph name="A" format="2">
  <advance width="1530"/>
  <unicode hex="0041"/>
  <anchor x="210" y="1040" name="greek_v"/>
  <anchor x="-34" y="1040" name="greek_kt"/>
  <anchor x="132" y="1040" name="greek_k"/>
  <anchor x="6" y="1040" name="greek_t"/>
  <anchor x="769" y="-90" name="bottom_ypogegrammeni"/>
  <anchor x="769" y="0" name="bottom_center"/>
  <anchor x="769" y="1380" name="top_center"/>
  <anchor x="1495" y="0" name="bottom_right"/>
  <outline>
    <contour>
      <point x="316" y="688" type="line"/>
      <point x="1187" y="688" type="line"/>
      <point x="1187" y="352" type="line"/>
      <point x="316" y="352" type="line"/>
    </contour>
    <contour>
      <point x="769" y="1080" type="line"/>
      <point x="427" y="0" type="line"/>
      <point x="35" y="0" type="line"/>
      <point x="527" y="1480" type="line"/>
      <point x="1003" y="1480" type="line"/>
      <point x="1495" y="0" type="line"/>
      <point x="1103" y="0" type="line"/>
    </contour>
  </outline>
</glyph>
<glyph name="H" format="2">
  <advance width="1482"/>
  <unicode hex="0048"/>
  <anchor x="743" y="1362" name="top_center"/>
  <anchor x="743" y="-18" name="bottom_center"/>
  <anchor x="70" y="1480" name="top_left"/>
  <anchor x="260" y="-38" name="bottom_cedilla"/>
  <anchor x="743" y="-108" name="bottom_ypogegrammeni"/>
  <outline>
    <contour>
      <point x="70" y="1480" type="line"/>
      <point x="450" y="1480" type="line"/>
      <point x="450" y="908" type="line"/>
      <point x="1032" y="908" type="line"/>
      <point x="1032" y="1480" type="line"/>
      <point x="1412" y="1480" type="line"/>
      <point x="1412" y="0" type="line"/>
      <point x="1032" y="0" type="line"/>
      <point x="1032" y="572" type="line"/>
      <point x="450" y="572" type="line"/>
      <point x="450" y="0" type="line"/>
      <point x="70" y="0" type="line"/>
    </contour>
  </outline>
</glyph>
<glyph name="I" format="2">
  <advance width="924"/>
  <unicode hex="0049"/>
  <anchor x="-389" y="1040" name="greek_kt"/>
  <anchor x="-198" y="1040" name="greek_k"/>
  <anchor x="-354" y="1040" name="greek_t"/>
  <anchor x="-138" y="1040" name="greek_v"/>
  <anchor x="462" y="1380" name="top_center"/>
  <anchor x="462" y="0" name="bottom_center"/>
  <anchor x="652" y="0" name="bottom_right"/>
  <outline>
    <contour>
      <point x="70" y="1480" type="line"/>
      <point x="854" y="1480" type="line"/>
      <point x="854" y="1144" type="line"/>
      <point x="652" y="1144" type="line"/>
      <point x="652" y="336" type="line"/>
      <point x="854" y="336" type="line"/>
      <point x="854" y="0" type="line"/>
      <point x="70" y="0" type="line"/>
      <point x="70" y="336" type="line"/>
      <point x="272" y="336" type="line"/>
      <point x="272" y="1144" type="line"/>
      <point x="70" y="1144" type="line"/>
    </contour>
  </outline>
</glyph>
<glyph name="O" format="2">
  <advance width="1620"/>
  <unicode hex="004F"/>
  <anchor x="231" y="1480" name="top_left"/>
  <anchor x="810" y="1380" name="top_center"/>
  <anchor x="1424" y="1480" name="top_right"/>
  <anchor x="810" y="0" name="bottom_center"/>
  <anchor x="1042" y="0" name="bottom_right"/>
  <outline>
    <contour>
      <point x="430" y="740" type="curve" smooth="yes"/>
      <point x="430" y="490"/>
      <point x="560" y="306"/>
      <point x="810" y="306" type="curve" smooth="yes"/>
      <point x="1060" y="306"/>
      <point x="1190" y="490"/>
      <point x="1190" y="740" type="curve" smooth="yes"/>
      <point x="1190" y="990"/>
      <point x="1060" y="1174"/>
      <point x="810" y="1174" type="curve" smooth="yes"/>
      <point x="560" y="1174"/>
      <point x="430" y="990"/>
    </contour>
    <contour>
      <point x="50" y="740" type="curve" smooth="yes"/>
      <point x="50" y="1190"/>
      <point x="350" y="1510"/>
      <point x="810" y="1510" type="curve" smooth="yes"/>
      <point x="1270" y="1510"/>
      <point x="1570" y="1190"/>
      <point x="1570" y="740" type="curve" smooth="yes"/>
      <point x="1570" y="290"/>
      <point x="1270" y="-30"/>
      <point x="810" y="-30" type="curve" smooth="yes"/>
      <point x="350" y="-30"/>
      <point x="50" y="290"/>
    </contour>
  </outline>
</glyph>
<glyph name="Y" format="2">
  <advance width="1572"/>
  <unicode hex="0059"/>
  <anchor x="786" y="1380" name="top_center"/>
  <anchor x="786" y="0" name="bottom_center"/>
  <anchor x="71" y="1480" name="top_left"/>
  <outline>
    <contour>
      <point x="596" y="0" type="line"/>
      <point x="596" y="834" type="line"/>
      <point x="976" y="834" type="line"/>
      <point x="976" y="0" type="line"/>
    </contour>
    <contour>
      <point x="789" y="426" type="line"/>
      <point x="680" y="578" type="line"/>
      <point x="35" y="1480" type="line"/>
      <point x="463" y="1480" type="line"/>
      <point x="786" y="988" type="line"/>
      <point x="1109" y="1480" type="line"/>
      <point x="1537" y="1480" type="line"/>
    </contour>
  </outline>
</glyph>
<glyph name="underscore" format="2">
  <advance width="1278"/>
  <unicode hex="005F"/>
  <outline>
    <contour>
      <point x="0" y="0" type="line"/>
      <point x="1278" y="0" type="line"/>
      <point x="1278" y="-320" type="line"/>
      <point x="0" y="-320" type="line"/>
    </contour>
  </outline>
</glyph>
<glyph name="grave" format="2">
  <advance width="652"/>
  <unicode hex="0060"/>
  <anchor x="439" y="1140" name="_dieresis_center"/>
  <anchor x="439" y="1040" name="_top_center"/>
  <outline>
    <contour>
      <point x="261" y="1224" type="line"/>
      <point x="35" y="1480" type="line"/>
      <point x="439" y="1480" type="line"/>
      <point x="617" y="1224" type="line"/>
    </contour>
  </outline>
</glyph>
<glyph name="g" format="2">
  <advance width="1232"/>
  <unicode hex="0067"/>
  <anchor x="589" y="-361" name="bottom_center"/>
  <anchor x="589" y="1040" name="top_center"/>
  <outline>
    <contour>
      <point x="743" y="980" type="line"/>
      <point x="778" y="1041"/>
      <point x="867" y="1120"/>
      <point x="1017" y="1120" type="curve" smooth="yes"/>
      <point x="1088" y="1120"/>
      <point x="1151" y="1108"/>
      <point x="1207" y="1084" type="curve"/>
      <point x="1100" y="741" type="line"/>
      <point x="1062" y="780"/>
      <point x="1004" y="800"/>
      <point x="921" y="800" type="curve" smooth="yes"/>
      <point x="791" y="800"/>
      <point x="755" y="742"/>
      <point x="755" y="632" type="curve"/>
    </contour>
    <contour>
      <point x="589" y="520" type="curve"/>
      <point x="589" y="280" type="line"/>
      <point x="494" y="280"/>
      <point x="439" y="275"/>
      <point x="439" y="260" type="curve" smooth="yes"/>
      <point x="439" y="245"/>
      <point x="459" y="240"/>
      <point x="589" y="240" type="curve"/>
      <point x="589" y="-80" type="line"/>
      <point x="341" y="-80"/>
      <point x="134" y="30"/>
      <point x="134" y="240" type="curve" smooth="yes"/>
      <point x="134" y="440"/>
      <point x="421" y="520"/>
    </contour>
    <contour>
      <point x="1207" y="-100" type="curve" smooth="yes"/>
      <point x="1207" y="-320"/>
      <point x="1022" y="-470"/>
      <point x="589" y="-470" type="curve" smooth="yes"/>
      <point x="156" y="-470"/>
      <point x="25" y="-315"/>
      <point x="25" y="-114" type="curve" smooth="yes"/>
      <point x="25" y="107"/>
      <point x="307" y="160"/>
      <point x="589" y="160" type="curve"/>
      <point x="589" y="-20" type="line"/>
      <point x="439" y="-20"/>
      <point x="385" y="-58"/>
      <point x="385" y="-95" type="curve" smooth="yes"/>
      <point x="385" y="-132"/>
      <point x="444" y="-150"/>
      <point x="589" y="-150" type="curve" smooth="yes"/>
      <point x="734" y="-150"/>
      <point x="847" y="-150"/>
      <point x="847" y="-110" type="curve" smooth="yes"/>
      <point x="847" y="-80"/>
      <point x="735" y="-80"/>
      <point x="589" y="-80" type="curve"/>
      <point x="589" y="240" type="line"/>
      <point x="1014" y="240"/>
      <point x="1207" y="100"/>
    </contour>
    <contour>
      <point x="493" y="675" type="curve" smooth="yes"/>
      <point x="493" y="627"/>
      <point x="529" y="600"/>
      <point x="589" y="600" type="curve" smooth="yes"/>
      <point x="649" y="600"/>
      <point x="685" y="627"/>
      <point x="685" y="675" type="curve" smooth="yes"/>
      <point x="685" y="723"/>
      <point x="649" y="750"/>
      <point x="589" y="750" type="curve" smooth="yes"/>
      <point x="529" y="750"/>
      <point x="493" y="723"/>
    </contour>
    <contour>
      <point x="133" y="675" type="curve" smooth="yes"/>
      <point x="133" y="894"/>
      <point x="326" y="1070"/>
      <point x="589" y="1070" type="curve" smooth="yes"/>
      <point x="852" y="1070"/>
      <point x="1045" y="894"/>
      <point x="1045" y="675" type="curve" smooth="yes"/>
      <point x="1045" y="456"/>
      <point x="852" y="280"/>
      <point x="589" y="280" type="curve" smooth="yes"/>
      <point x="326" y="280"/>
      <point x="133" y="456"/>
    </contour>
  </outline>
</glyph>
<glyph name="s" format="2">
  <advance width="1066"/>
  <unicode hex="0073"/>
  <anchor x="529" y="1040" name="top_center"/>
  <anchor x="529" y="0" name="bottom_center"/>
  <anchor x="750" y="0" name="bottom_right"/>
  <outline>
    <contour>
      <point x="529" y="1070" type="curve" smooth="yes"/>
      <point x="809" y="1070"/>
      <point x="949" y="931"/>
      <point x="995" y="775" type="curve"/>
      <point x="648" y="685" type="line"/>
      <point x="648" y="705"/>
      <point x="629" y="750"/>
      <point x="529" y="750" type="curve" smooth="yes"/>
      <point x="459" y="750"/>
      <point x="440" y="735"/>
      <point x="440" y="715" type="curve" smooth="yes"/>
      <point x="440" y="695"/>
      <point x="470" y="675"/>
      <point x="529" y="663" type="curve" smooth="yes"/>
      <point x="822" y="601"/>
      <point x="1016" y="566"/>
      <point x="1016" y="326" type="curve" smooth="yes"/>
      <point x="1016" y="86"/>
      <point x="805" y="-30"/>
      <point x="529" y="-30" type="curve" smooth="yes"/>
      <point x="290" y="-30"/>
      <point x="98" y="85"/>
      <point x="50" y="265" type="curve"/>
      <point x="402" y="356" type="line"/>
      <point x="402" y="326"/>
      <point x="439" y="290"/>
      <point x="529" y="290" type="curve" smooth="yes"/>
      <point x="619" y="290"/>
      <point x="656" y="296"/>
      <point x="656" y="326" type="curve" smooth="yes"/>
      <point x="656" y="356"/>
      <point x="588" y="371"/>
      <point x="529" y="383" type="curve" smooth="yes"/>
      <point x="249" y="442"/>
      <point x="80" y="515"/>
      <point x="80" y="715" type="curve" smooth="yes"/>
      <point x="80" y="915"/>
      <point x="249" y="1070"/>
    </contour>
  </outline>
</glyph>
<glyph name="u" format="2">
  <advance width="1192"/>
  <unicode hex="0075"/>
  <anchor x="596" y="1040" name="top_center"/>
  <anchor x="1122" y="1040" name="top_right"/>
  <anchor x="596" y="0" name="bottom_center"/>
  <anchor x="1146" y="0" name="bottom_right"/>
  <outline>
    <contour>
      <point x="430" y="1040" type="line"/>
      <point x="430" y="468" type="line" smooth="yes"/>
      <point x="430" y="358"/>
      <point x="466" y="290"/>
      <point x="596" y="290" type="curve" smooth="yes"/>
      <point x="726" y="290"/>
      <point x="762" y="358"/>
      <point x="762" y="468" type="curve" smooth="yes"/>
      <point x="762" y="1040" type="line"/>
      <point x="1122" y="1040" type="line"/>
      <point x="1122" y="168" type="line"/>
      <point x="1122" y="66"/>
      <point x="1146" y="0"/>
      <point x="1146" y="0" type="curve"/>
      <point x="797" y="0" type="line"/>
      <point x="797" y="0"/>
      <point x="773" y="60"/>
      <point x="773" y="120" type="curve"/>
      <point x="738" y="59"/>
      <point x="650" y="-30"/>
      <point x="500" y="-30" type="curve" smooth="yes"/>
      <point x="236" y="-30"/>
      <point x="70" y="148"/>
      <point x="70" y="468" type="curve"/>
      <point x="70" y="1040" type="line"/>
    </contour>
  </outline>
</glyph>
<glyph name="z" format="2">
  <advance width="1032"/>
  <unicode hex="007A"/>
  <anchor x="516" y="0" name="bottom_center"/>
  <anchor x="516" y="1040" name="top_center"/>
  <outline>
    <contour>
      <point x="70" y="1040" type="line"/>
      <point x="962" y="1040" type="line"/>
      <point x="962" y="752" type="line"/>
      <point x="548" y="720" type="line"/>
      <point x="70" y="720" type="line"/>
    </contour>
    <contour>
      <point x="958" y="320" type="line"/>
      <point x="958" y="0" type="line"/>
      <point x="70" y="0" type="line"/>
      <point x="70" y="288" type="line"/>
      <point x="484" y="320" type="line"/>
    </contour>
    <contour>
      <point x="544" y="320" type="line"/>
      <point x="70" y="288" type="line"/>
      <point x="488" y="720" type="line"/>
      <point x="962" y="752" type="line"/>
    </contour>
  </outline>
</glyph>
<glyph name="braceleft" format="2">
  <advance width="779"/>
  <unicode hex="007B"/>
  <outline>
    <contour>
      <point x="582" y="152" type="line" smooth="yes"/>
      <point x="582" y="52"/>
      <point x="654" y="-20"/>
      <point x="754" y="-20" type="curve" smooth="yes"/>
      <point x="754" y="-340" type="line" smooth="yes"/>
      <point x="454" y="-340"/>
      <point x="222" y="-148"/>
      <point x="222" y="152" type="curve" smooth="yes"/>
      <point x="222" y="302" type="line" smooth="yes"/>
      <point x="222" y="402"/>
      <point x="150" y="500"/>
      <point x="50" y="500" type="curve" smooth="yes"/>
      <point x="50" y="820" type="line" smooth="yes"/>
      <point x="350" y="820"/>
      <point x="582" y="602"/>
      <point x="582" y="302" type="curve" smooth="yes"/>
    </contour>
    <contour>
      <point x="582" y="1168" type="curve" smooth="yes"/>
      <point x="582" y="1018" type="line" smooth="yes"/>
      <point x="582" y="718"/>
      <point x="350" y="500"/>
      <point x="50" y="500" type="curve" smooth="yes"/>
      <point x="50" y="820" type="line" smooth="yes"/>
      <point x="150" y="820"/>
      <point x="222" y="918"/>
      <point x="222" y="1018" type="curve" smooth="yes"/>
      <point x="222" y="1168" type="line" smooth="yes"/>
      <point x="222" y="1468"/>
      <point x="454" y="1660"/>
      <point x="754" y="1660" type="curve" smooth="yes"/>
      <point x="754" y="1340" type="line" smooth="yes"/>
      <point x="654" y="1340"/>
      <point x="582" y="1268"/>
    </contour>
  </outline>
</glyph>
<glyph name="sterling" format="2">
  <advance width="1452"/>
  <unicode hex="00A3"/>
  <outline>
    <contour>
      <point x="346" y="560" type="line"/>
      <point x="854" y="560" type="line"/>
      <point x="854" y="880" type="line"/>
      <point x="346" y="880" type="line"/>
      <point x="50" y="880" type="line"/>
      <point x="50" y="834"/>
      <point x="50" y="606"/>
      <point x="50" y="560" type="curve"/>
    </contour>
    <contour>
      <point x="529" y="1010" type="curve" smooth="yes"/>
      <point x="529" y="1130"/>
      <point x="656" y="1184"/>
      <point x="751" y="1184" type="curve" smooth="yes"/>
      <point x="866" y="1184"/>
      <point x="973" y="1110"/>
      <point x="973" y="1000" type="curve" smooth="yes"/>
      <point x="973" y="942"/>
      <point x="966" y="916"/>
      <point x="966" y="916" type="curve"/>
      <point x="1333" y="1000" type="line"/>
      <point x="1333" y="1320"/>
      <point x="1087" y="1520"/>
      <point x="751" y="1520" type="curve" smooth="yes"/>
      <point x="415" y="1520"/>
      <point x="170" y="1320"/>
      <point x="170" y="1040" type="curve" smooth="yes"/>
      <point x="170" y="808"/>
      <point x="322" y="774"/>
      <point x="322" y="594" type="curve" smooth="yes"/>
      <point x="322" y="474"/>
      <point x="194" y="356"/>
      <point x="82" y="281" type="curve"/>
      <point x="359" y="61" type="line"/>
      <point x="411" y="121"/>
      <point x="662" y="430"/>
      <point x="662" y="650" type="curve" smooth="yes"/>
      <point x="662" y="810"/>
      <point x="529" y="840"/>
    </contour>
    <contour>
      <point x="1314" y="351" type="line"/>
      <point x="1278" y="331"/>
      <point x="1148" y="280"/>
      <point x="1052" y="280" type="curve" smooth="yes"/>
      <point x="865" y="280"/>
      <point x="790" y="388"/>
      <point x="550" y="388" type="curve" smooth="yes"/>
      <point x="382" y="388"/>
      <point x="190" y="316"/>
      <point x="82" y="281" type="curve"/>
      <point x="169" y="-40" type="line"/>
      <point x="302" y="14"/>
      <point x="408" y="68"/>
      <point x="550" y="68" type="curve" smooth="yes"/>
      <point x="737" y="68"/>
      <point x="812" y="-40"/>
      <point x="1052" y="-40" type="curve" smooth="yes"/>
      <point x="1196" y="-40"/>
      <point x="1347" y="3"/>
      <point x="1402" y="30" type="curve"/>
    </contour>
  </outline>
</glyph>
<glyph name="currency" format="2">
  <advance width="1278"/>
  <unicode hex="00A4"/>
  <outline>
    <contour>
      <point x="958" y="753" type="line"/>
      <point x="728" y="975" type="line"/>
      <point x="1001" y="1248" type="line"/>
      <point x="1227" y="1022" type="line"/>
    </contour>
    <contour>
      <point x="282" y="529" type="line"/>
      <point x="505" y="300" type="line"/>
      <point x="277" y="72" type="line"/>
      <point x="51" y="298" type="line"/>
    </contour>
    <contour>
      <point x="722" y="351" type="line"/>
      <point x="920" y="605" type="line"/>
      <point x="1228" y="297" type="line"/>
      <point x="1002" y="71" type="line"/>
    </contour>
    <contour>
      <point x="572" y="953" type="line"/>
      <point x="333" y="740" type="line"/>
      <point x="50" y="1023" type="line"/>
      <point x="276" y="1249" type="line"/>
    </contour>
    <contour>
      <point x="154" y="656" type="curve" smooth="yes"/>
      <point x="154" y="907"/>
      <point x="371" y="1116"/>
      <point x="634" y="1116" type="curve" smooth="yes"/>
      <point x="897" y="1116"/>
      <point x="1114" y="907"/>
      <point x="1114" y="656" type="curve" smooth="yes"/>
      <point x="1114" y="405"/>
      <point x="897" y="196"/>
      <point x="634" y="196" type="curve" smooth="yes"/>
      <point x="371" y="196"/>
      <point x="154" y="405"/>
    </contour>
    <contour>
      <point x="514" y="656" type="curve" smooth="yes"/>
      <point x="514" y="576"/>
      <point x="554" y="516"/>
      <point x="634" y="516" type="curve" smooth="yes"/>
      <point x="714" y="516"/>
      <point x="754" y="576"/>
      <point x="754" y="656" type="curve" smooth="yes"/>
      <point x="754" y="736"/>
      <point x="714" y="796"/>
      <point x="634" y="796" type="curve" smooth="yes"/>
      <point x="554" y="796"/>
      <point x="514" y="736"/>
    </contour>
  </outline>
</glyph>
<glyph name="section" format="2">
  <advance width="1292"/>
  <unicode hex="00A7"/>
  <outline>
    <contour>
      <point x="646" y="713" type="line" smooth="yes"/>
      <point x="496" y="713"/>
      <point x="431" y="646"/>
      <point x="431" y="568" type="curve" smooth="yes"/>
      <point x="431" y="490"/>
      <point x="539" y="462"/>
      <point x="646" y="439" type="curve" smooth="yes"/>
      <point x="1018" y="360"/>
      <point x="1222" y="217"/>
      <point x="1222" y="-33" type="curve" smooth="yes"/>
      <point x="1222" y="-283"/>
      <point x="1056" y="-470"/>
      <point x="646" y="-470" type="curve" smooth="yes"/>
      <point x="341" y="-470"/>
      <point x="110" y="-362"/>
      <point x="70" y="-107" type="curve"/>
      <point x="423" y="-7" type="line" smooth="yes"/>
      <point x="423" y="-87"/>
      <point x="496" y="-150"/>
      <point x="646" y="-150" type="curve" smooth="yes"/>
      <point x="796" y="-150"/>
      <point x="862" y="-111"/>
      <point x="862" y="-33" type="curve" smooth="yes"/>
      <point x="862" y="45"/>
      <point x="753" y="78"/>
      <point x="646" y="101" type="curve" smooth="yes"/>
      <point x="274" y="180"/>
      <point x="71" y="318"/>
      <point x="71" y="568" type="curve" smooth="yes"/>
      <point x="71" y="818"/>
      <point x="236" y="971"/>
      <point x="646" y="971" type="curve" smooth="yes"/>
    </contour>
    <contour>
      <point x="646" y="359" type="line" smooth="yes"/>
      <point x="796" y="359"/>
      <point x="862" y="426"/>
      <point x="862" y="504" type="curve" smooth="yes"/>
      <point x="862" y="582"/>
      <point x="753" y="610"/>
      <point x="646" y="633" type="curve" smooth="yes"/>
      <point x="294" y="708"/>
      <point x="122" y="855"/>
      <point x="122" y="1075" type="curve" smooth="yes"/>
      <point x="122" y="1295"/>
      <point x="296" y="1510"/>
      <point x="646" y="1510" type="curve" smooth="yes"/>
      <point x="916" y="1510"/>
      <point x="1141" y="1385"/>
      <point x="1174" y="1149" type="curve"/>
      <point x="821" y="1049" type="line" smooth="yes"/>
      <point x="821" y="1129"/>
      <point x="786" y="1190"/>
      <point x="646" y="1190" type="curve" smooth="yes"/>
      <point x="506" y="1190"/>
      <point x="482" y="1147"/>
      <point x="482" y="1075" type="curve" smooth="yes"/>
      <point x="482" y="1023"/>
      <point x="539" y="994"/>
      <point x="646" y="971" type="curve" smooth="yes"/>
      <point x="1018" y="892"/>
      <point x="1222" y="754"/>
      <point x="1222" y="504" type="curve" smooth="yes"/>
      <point x="1222" y="254"/>
      <point x="1056" y="101"/>
      <point x="646" y="101" type="curve" smooth="yes"/>
    </contour>
  </outline>
</glyph>
<glyph name="copyright" format="2">
  <advance width="1720"/>
  <unicode hex="00A9"/>
  <outline>
    <contour>
      <point x="220" y="740" type="curve" smooth="yes"/>
      <point x="220" y="380"/>
      <point x="500" y="100"/>
      <point x="860" y="100" type="curve" smooth="yes"/>
      <point x="1220" y="100"/>
      <point x="1500" y="380"/>
      <point x="1500" y="740" type="curve" smooth="yes"/>
      <point x="1500" y="1100"/>
      <point x="1220" y="1380"/>
      <point x="860" y="1380" type="curve" smooth="yes"/>
      <point x="500" y="1380"/>
      <point x="220" y="1100"/>
    </contour>
    <contour>
      <point x="100" y="740" type="curve" smooth="yes"/>
      <point x="100" y="1160"/>
      <point x="440" y="1500"/>
      <point x="860" y="1500" type="curve" smooth="yes"/>
      <point x="1280" y="1500"/>
      <point x="1620" y="1160"/>
      <point x="1620" y="740" type="curve" smooth="yes"/>
      <point x="1620" y="320"/>
      <point x="1280" y="-20"/>
      <point x="860" y="-20" type="curve" smooth="yes"/>
      <point x="440" y="-20"/>
      <point x="100" y="320"/>
    </contour>
    <contour>
      <point x="677" y="738" type="curve" smooth="yes"/>
      <point x="677" y="858"/>
      <point x="740" y="947"/>
      <point x="860" y="947" type="curve" smooth="yes"/>
      <point x="944" y="947"/>
      <point x="1002" y="909"/>
      <point x="1027" y="843" type="curve"/>
      <point x="1258" y="975" type="line"/>
      <point x="1185" y="1109"/>
      <point x="1044" y="1187"/>
      <point x="860" y="1187" type="curve" smooth="yes"/>
      <point x="586" y="1187"/>
      <point x="406" y="1013"/>
      <point x="406" y="739" type="curve" smooth="yes"/>
      <point x="406" y="465"/>
      <point x="586" y="291"/>
      <point x="860" y="291" type="curve" smooth="yes"/>
      <point x="1044" y="291"/>
      <point x="1185" y="369"/>
      <point x="1258" y="503" type="curve"/>
      <point x="1027" y="635" type="line"/>
      <point x="1002" y="569"/>
      <point x="944" y="531"/>
      <point x="860" y="531" type="curve" smooth="yes"/>
      <point x="740" y="531"/>
      <point x="677" y="618"/>
    </contour>
  </outline>
</glyph>
<glyph name="uni00B2" format="2">
  <advance width="956"/>
  <unicode hex="00B2"/>
  <outline>
    <contour>
      <point x="102" y="810" type="line"/>
      <point x="102" y="937"/>
      <point x="115" y="1119"/>
      <point x="478" y="1288" type="curve" smooth="yes"/>
      <point x="532" y="1313"/>
      <point x="586" y="1333"/>
      <point x="586" y="1376" type="curve" smooth="yes"/>
      <point x="586" y="1425"/>
      <point x="533" y="1446"/>
      <point x="478" y="1446" type="curve" smooth="yes"/>
      <point x="411" y="1446"/>
      <point x="383" y="1407"/>
      <point x="383" y="1360" type="curve" smooth="yes"/>
      <point x="383" y="1319"/>
      <point x="392" y="1300"/>
      <point x="392" y="1300" type="curve"/>
      <point x="112" y="1360" type="line"/>
      <point x="112" y="1561"/>
      <point x="269" y="1686"/>
      <point x="478" y="1686" type="curve" smooth="yes"/>
      <point x="687" y="1686"/>
      <point x="854" y="1579"/>
      <point x="854" y="1401" type="curve" smooth="yes"/>
      <point x="854" y="1223"/>
      <point x="757" y="1176"/>
      <point x="596" y="1101" type="curve" smooth="yes"/>
      <point x="551" y="1080"/>
      <point x="519" y="1065"/>
      <point x="506" y="1050" type="curve"/>
      <point x="854" y="1050" type="line"/>
      <point x="854" y="810" type="line"/>
      <point x="339" y="810" type="line"/>
      <point x="170" y="810" type="line"/>
    </contour>
  </outline>
</glyph>
<glyph name="uni00B3" format="2">
  <advance width="956"/>
  <unicode hex="00B3"/>
  <outline>
    <contour>
      <point x="477" y="1352" type="line" smooth="yes"/>
      <point x="547" y="1352"/>
      <point x="574" y="1371"/>
      <point x="574" y="1399" type="curve" smooth="yes"/>
      <point x="574" y="1427"/>
      <point x="547" y="1446"/>
      <point x="477" y="1446" type="curve" smooth="yes"/>
      <point x="407" y="1446"/>
      <point x="380" y="1417"/>
      <point x="380" y="1379" type="curve"/>
      <point x="114" y="1452" type="line"/>
      <point x="131" y="1604"/>
      <point x="264" y="1686"/>
      <point x="477" y="1686" type="curve" smooth="yes"/>
      <point x="704" y="1686"/>
      <point x="842" y="1593"/>
      <point x="842" y="1420" type="curve" smooth="yes"/>
      <point x="842" y="1300"/>
      <point x="763" y="1263"/>
      <point x="763" y="1263" type="curve"/>
      <point x="763" y="1263"/>
      <point x="880" y="1222"/>
      <point x="880" y="1075" type="curve" smooth="yes"/>
      <point x="880" y="885"/>
      <point x="725" y="792"/>
      <point x="477" y="792" type="curve" smooth="yes"/>
      <point x="241" y="792"/>
      <point x="102" y="895"/>
      <point x="77" y="1047" type="curve"/>
      <point x="346" y="1120" type="line"/>
      <point x="346" y="1066"/>
      <point x="389" y="1032"/>
      <point x="477" y="1032" type="curve" smooth="yes"/>
      <point x="565" y="1032"/>
      <point x="610" y="1056"/>
      <point x="610" y="1100" type="curve" smooth="yes"/>
      <point x="610" y="1144"/>
      <point x="565" y="1168"/>
      <point x="477" y="1168" type="curve" smooth="yes"/>
      <point x="407" y="1168" type="line"/>
      <point x="407" y="1352" type="line"/>
    </contour>
  </outline>
</glyph>
<glyph name="acute" format="2">
  <advance width="710"/>
  <unicode hex="00B4"/>
  <outline>
    <contour>
      <point x="420" y="1224" type="line"/>
      <point x="64" y="1224" type="line"/>
      <point x="242" y="1480" type="line"/>
      <point x="646" y="1480" type="line"/>
    </contour>
  </outline>
</glyph>
<glyph name="paragraph" format="2">
  <advance width="1318"/>
  <unicode hex="00B6"/>
  <outline>
    <contour>
      <point x="1178" y="1500" type="line"/>
      <point x="567" y="1500" type="line"/>
      <point x="567" y="1340" type="line"/>
      <point x="1178" y="1340" type="line"/>
    </contour>
    <contour>
      <point x="866" y="1439" type="line"/>
      <point x="866" y="-440" type="line"/>
      <point x="1018" y="-440" type="line"/>
      <point x="1018" y="1439" type="line"/>
    </contour>
    <contour>
      <point x="506" y="1440" type="line"/>
      <point x="506" y="-440" type="line"/>
      <point x="658" y="-440" type="line"/>
      <point x="658" y="1440" type="line"/>
      <point x="577" y="1440" type="line"/>
    </contour>
    <contour>
      <point x="100" y="1058" type="curve" smooth="yes"/>
      <point x="100" y="788"/>
      <point x="297" y="616"/>
      <point x="567" y="616" type="curve"/>
      <point x="567" y="1500" type="line"/>
      <point x="297" y="1500"/>
      <point x="100" y="1328"/>
    </contour>
  </outline>
</glyph>
<glyph name="onequarter" format="2">
  <advance width="2228"/>
  <unicode hex="00BC"/>
  <outline>
    <contour>
      <point x="1939" y="858" type="line"/>
      <point x="1645" y="858" type="line"/>
      <point x="1383" y="354" type="line"/>
      <point x="1383" y="114" type="line"/>
      <point x="1779" y="114" type="line"/>
      <point x="1779" y="0" type="line"/>
      <point x="2049" y="0" type="line"/>
      <point x="2049" y="114" type="line"/>
      <point x="2153" y="114" type="line"/>
      <point x="2153" y="354" type="line"/>
      <point x="2049" y="354" type="line"/>
      <point x="2049" y="468" type="line"/>
      <point x="1779" y="468" type="line"/>
      <point x="1779" y="354" type="line"/>
      <point x="1671" y="354" type="line"/>
    </contour>
    <contour>
      <point x="383" y="1078" type="line"/>
      <point x="163" y="1078" type="line"/>
      <point x="163" y="1318" type="line"/>
      <point x="219" y="1318" type="line" smooth="yes"/>
      <point x="321" y="1318"/>
      <point x="400" y="1388"/>
      <point x="400" y="1464" type="curve" smooth="yes"/>
      <point x="400" y="1480" type="line"/>
      <point x="653" y="1480" type="line"/>
      <point x="653" y="1225" type="line"/>
      <point x="653" y="622" type="line"/>
      <point x="383" y="622" type="line"/>
    </contour>
    <contour>
      <point x="868" y="67" type="line"/>
      <point x="652" y="191" type="line"/>
      <point x="1360" y="1413" type="line"/>
      <point x="1576" y="1289" type="line"/>
    </contour>
  </outline>
</glyph>
<glyph name="multiply" format="2">
  <advance width="1278"/>
  <unicode hex="00D7"/>
  <outline>
    <contour>
      <point x="123" y="950" type="line"/>
      <point x="929" y="144" type="line"/>
      <point x="1155" y="370" type="line"/>
      <point x="349" y="1176" type="line"/>
    </contour>
    <contour>
      <point x="350" y="145" type="line"/>
      <point x="1154" y="949" type="line"/>
      <point x="928" y="1175" type="line"/>
      <point x="124" y="371" type="line"/>
    </contour>
  </outline>
</glyph>
<glyph name="Lcaron" format="2">
  <advance width="1254"/>
  <unicode hex="013D"/>
  <outline>
    <contour>
      <point x="570" y="1390" type="curve" smooth="yes"/>
      <point x="570" y="1457"/>
      <point x="623" y="1510"/>
      <point x="690" y="1510" type="curve" smooth="yes"/>
      <point x="757" y="1510"/>
      <point x="810" y="1457"/>
      <point x="810" y="1390" type="curve" smooth="yes"/>
      <point x="810" y="1323"/>
      <point x="757" y="1270"/>
      <point x="690" y="1270" type="curve" smooth="yes"/>
      <point x="623" y="1270"/>
      <point x="570" y="1323"/>
    </contour>
    <contour>
      <point x="579" y="1193" type="line"/>
      <point x="656" y="1205"/>
      <point x="715" y="1254"/>
      <point x="715" y="1307" type="curve" smooth="yes"/>
      <point x="715" y="1333"/>
      <point x="691" y="1390"/>
      <point x="691" y="1390" type="curve"/>
      <point x="690" y="1510" type="line"/>
      <point x="758" y="1510"/>
      <point x="849" y="1467"/>
      <point x="849" y="1307" type="curve" smooth="yes"/>
      <point x="849" y="1180"/>
      <point x="706" y="1082"/>
      <point x="611" y="1065" type="curve"/>
    </contour>
    <contour>
      <point x="450" y="1480" type="line"/>
      <point x="450" y="336" type="line"/>
      <point x="1184" y="336" type="line"/>
      <point x="1184" y="0" type="line"/>
      <point x="70" y="0" type="line"/>
      <point x="70" y="1480" type="line"/>
    </contour>
  </outline>
</glyph>
<glyph name="lcaron" format="2">
  <advance width="825"/>
  <unicode hex="013E"/>
  <outline>
    <contour>
      <point x="546" y="1390" type="curve" smooth="yes"/>
      <point x="546" y="1457"/>
      <point x="599" y="1510"/>
      <point x="666" y="1510" type="curve" smooth="yes"/>
      <point x="733" y="1510"/>
      <point x="786" y="1457"/>
      <point x="786" y="1390" type="curve" smooth="yes"/>
      <point x="786" y="1323"/>
      <point x="733" y="1270"/>
      <point x="666" y="1270" type="curve" smooth="yes"/>
      <point x="599" y="1270"/>
      <point x="546" y="1323"/>
    </contour>
    <contour>
      <point x="555" y="1193" type="line"/>
      <point x="632" y="1205"/>
      <point x="691" y="1254"/>
      <point x="691" y="1307" type="curve" smooth="yes"/>
      <point x="691" y="1333"/>
      <point x="667" y="1390"/>
      <point x="667" y="1390" type="curve"/>
      <point x="666" y="1510" type="line"/>
      <point x="734" y="1510"/>
      <point x="825" y="1467"/>
      <point x="825" y="1307" type="curve" smooth="yes"/>
      <point x="825" y="1180"/>
      <point x="686" y="1082"/>
      <point x="591" y="1065" type="curve"/>
    </contour>
    <contour>
      <point x="560" y="306" type="curve"/>
      <point x="660" y="14" type="line"/>
      <point x="634" y="1"/>
      <point x="586" y="-30"/>
      <point x="498" y="-30" type="curve" smooth="yes"/>
      <point x="314" y="-30"/>
      <point x="70" y="62"/>
      <point x="70" y="362" type="curve" smooth="yes"/>
      <point x="70" y="440" type="line"/>
      <point x="70" y="578" type="line"/>
      <point x="70" y="1480" type="line"/>
      <point x="430" y="1480" type="line"/>
      <point x="430" y="578" type="line"/>
      <point x="430" y="440" type="line"/>
      <point x="430" y="362" type="line" smooth="yes"/>
      <point x="430" y="312"/>
      <point x="446" y="290"/>
      <point x="498" y="290" type="curve" smooth="yes"/>
      <point x="517" y="290"/>
      <point x="547" y="297"/>
    </contour>
  </outline>
</glyph>
<glyph name="uni0185" format="2">
  <advance width="1456"/>
  <unicode hex="0185"/>
  <outline>
    <contour>
      <point x="636" y="510" type="curve" smooth="yes"/>
      <point x="636" y="380"/>
      <point x="705" y="290"/>
      <point x="836" y="290" type="curve" smooth="yes"/>
      <point x="973" y="290"/>
      <point x="1046" y="390"/>
      <point x="1046" y="520" type="curve" smooth="yes"/>
      <point x="1046" y="650"/>
      <point x="973" y="750"/>
      <point x="836" y="750" type="curve" smooth="yes"/>
      <point x="699" y="750"/>
      <point x="636" y="640"/>
    </contour>
    <contour>
      <point x="636" y="1480" type="line"/>
      <point x="636" y="920" type="line"/>
      <point x="646" y="959"/>
      <point x="751" y="1070"/>
      <point x="901" y="1070" type="curve" smooth="yes"/>
      <point x="1221" y="1070"/>
      <point x="1406" y="840"/>
      <point x="1406" y="520" type="curve" smooth="yes"/>
      <point x="1406" y="200"/>
      <point x="1221" y="-30"/>
      <point x="901" y="-30" type="curve" smooth="yes"/>
      <point x="751" y="-30"/>
      <point x="624" y="80"/>
      <point x="624" y="120" type="curve"/>
      <point x="624" y="0" type="line"/>
      <point x="276" y="0" type="line"/>
      <point x="276" y="0"/>
      <point x="276" y="66"/>
      <point x="276" y="168" type="curve"/>
      <point x="276" y="1000" type="line"/>
      <point x="-50" y="1165" type="line"/>
      <point x="360" y="1480" type="line"/>
    </contour>
  </outline>
</glyph>
<glyph name="uni018B" format="2">
  <advance width="1372"/>
  <unicode hex="018B"/>
  <outline>
    <contour>
      <point x="184" y="1144" type="line"/>
      <point x="922" y="1144" type="line"/>
      <point x="922" y="1480" type="line"/>
      <point x="184" y="1480" type="line"/>
    </contour>
    <contour>
      <point x="922" y="336" type="line"/>
      <point x="621" y="336" type="line"/>
      <point x="501" y="336"/>
      <point x="430" y="416"/>
      <point x="430" y="496" type="curve" smooth="yes"/>
      <point x="430" y="576"/>
      <point x="501" y="656"/>
      <point x="621" y="656" type="curve"/>
      <point x="922" y="656" type="line"/>
    </contour>
    <contour>
      <point x="1302" y="1480" type="line"/>
      <point x="922" y="1480" type="line"/>
      <point x="922" y="976" type="line"/>
      <point x="621" y="976" type="line"/>
      <point x="255" y="976"/>
      <point x="50" y="751"/>
      <point x="50" y="496" type="curve" smooth="yes"/>
      <point x="50" y="241"/>
      <point x="255" y="0"/>
      <point x="621" y="0" type="curve"/>
      <point x="1302" y="0" type="line"/>
    </contour>
  </outline>
</glyph>
<glyph name="florin" format="2">
  <advance width="1058"/>
  <unicode hex="0192"/>
  <outline>
    <contour>
      <point x="156" y="-77" type="line"/>
      <point x="167" y="-82"/>
      <point x="179" y="-84"/>
      <point x="192" y="-84" type="curve" smooth="yes"/>
      <point x="242" y="-84"/>
      <point x="277" y="-50"/>
      <point x="277" y="0" type="curve" smooth="yes"/>
      <point x="637" y="0" type="line" smooth="yes"/>
      <point x="637" y="-250"/>
      <point x="442" y="-404"/>
      <point x="192" y="-404" type="curve" smooth="yes"/>
      <point x="180" y="-404"/>
      <point x="168" y="-404"/>
      <point x="156" y="-403" type="curve"/>
    </contour>
    <contour>
      <point x="942" y="1135" type="line"/>
      <point x="910" y="1167"/>
      <point x="835" y="1190"/>
      <point x="775" y="1190" type="curve" smooth="yes"/>
      <point x="685" y="1190"/>
      <point x="637" y="1150"/>
      <point x="637" y="1050" type="curve"/>
      <point x="637" y="1040" type="line"/>
      <point x="942" y="1040" type="line"/>
      <point x="942" y="720" type="line"/>
      <point x="637" y="720" type="line"/>
      <point x="637" y="0" type="line"/>
      <point x="277" y="0" type="line"/>
      <point x="277" y="720" type="line"/>
      <point x="25" y="720" type="line"/>
      <point x="25" y="1040" type="line"/>
      <point x="277" y="1040" type="line"/>
      <point x="277" y="1050" type="line"/>
      <point x="277" y="1330"/>
      <point x="411" y="1510"/>
      <point x="771" y="1510" type="curve" smooth="yes"/>
      <point x="892" y="1510"/>
      <point x="977" y="1482"/>
      <point x="1033" y="1458" type="curve"/>
    </contour>
  </outline>
</glyph>
<glyph name="uni0194" format="2">
  <advance width="1530"/>
  <unicode hex="0194"/>
  <outline>
    <contour>
      <point x="1158" y="100" type="line"/>
      <point x="1188" y="48"/>
      <point x="1204" y="-13"/>
      <point x="1204" y="-66" type="curve" smooth="yes"/>
      <point x="1204" y="-296"/>
      <point x="1000" y="-470"/>
      <point x="770" y="-470" type="curve" smooth="yes"/>
      <point x="540" y="-470"/>
      <point x="336" y="-296"/>
      <point x="336" y="-66" type="curve" smooth="yes"/>
      <point x="336" y="-13"/>
      <point x="352" y="48"/>
      <point x="382" y="100" type="curve"/>
      <point x="527" y="338" type="line"/>
      <point x="35" y="1480" type="line"/>
      <point x="427" y="1480" type="line"/>
      <point x="773" y="679" type="line"/>
      <point x="1103" y="1480" type="line"/>
      <point x="1495" y="1480" type="line"/>
      <point x="1003" y="338" type="line"/>
    </contour>
    <contour>
      <point x="835" y="0" type="curve"/>
      <point x="770" y="107" type="line"/>
      <point x="705" y="0" type="line"/>
      <point x="700" y="-9"/>
      <point x="685" y="-38"/>
      <point x="685" y="-66" type="curve" smooth="yes"/>
      <point x="685" y="-116"/>
      <point x="720" y="-150"/>
      <point x="770" y="-150" type="curve" smooth="yes"/>
      <point x="820" y="-150"/>
      <point x="854" y="-116"/>
      <point x="854" y="-66" type="curve" smooth="yes"/>
      <point x="854" y="-38"/>
      <point x="842" y="-12"/>
    </contour>
  </outline>
</glyph>
<glyph name="uni019D" format="2">
  <advance width="1533"/>
  <unicode hex="019D"/>
  <outline>
    <contour>
      <point x="0" y="-77" type="line"/>
      <point x="11" y="-82"/>
      <point x="23" y="-84"/>
      <point x="36" y="-84" type="curve" smooth="yes"/>
      <point x="86" y="-84"/>
      <point x="121" y="-50"/>
      <point x="121" y="0" type="curve" smooth="yes"/>
      <point x="501" y="0" type="line" smooth="yes"/>
      <point x="501" y="-250"/>
      <point x="286" y="-404"/>
      <point x="36" y="-404" type="curve" smooth="yes"/>
      <point x="24" y="-404"/>
      <point x="12" y="-404"/>
      <point x="0" y="-403" type="curve"/>
    </contour>
    <contour>
      <point x="485" y="1480" type="line"/>
      <point x="1083" y="652" type="line"/>
      <point x="1083" y="1480" type="line"/>
      <point x="1463" y="1480" type="line"/>
      <point x="1463" y="0" type="line"/>
      <point x="1099" y="0" type="line"/>
      <point x="501" y="828" type="line"/>
      <point x="501" y="0" type="line"/>
      <point x="121" y="0" type="line"/>
      <point x="121" y="1480" type="line"/>
    </contour>
  </outline>
</glyph>
<glyph name="uni01A3" format="2">
  <advance width="1677"/>
  <unicode hex="01A3"/>
  <outline>
    <contour>
      <point x="1405" y="780" type="curve"/>
      <point x="1247" y="1040" type="line"/>
      <point x="1181" y="988"/>
      <point x="1042" y="898"/>
      <point x="850" y="898" type="curve" smooth="yes"/>
      <point x="850" y="582" type="line" smooth="yes"/>
      <point x="1156" y="582"/>
      <point x="1325" y="688"/>
    </contour>
    <contour>
      <point x="1247" y="-440" type="line"/>
      <point x="1607" y="-440" type="line"/>
      <point x="1607" y="1040" type="line"/>
      <point x="1247" y="1040" type="line"/>
    </contour>
    <contour>
      <point x="727" y="252" type="line"/>
      <point x="1067" y="252" type="line"/>
      <point x="1067" y="788" type="line"/>
      <point x="727" y="788" type="line"/>
    </contour>
    <contour>
      <point x="760" y="430" type="line"/>
      <point x="739" y="344"/>
      <point x="704" y="290"/>
      <point x="600" y="290" type="curve" smooth="yes"/>
      <point x="463" y="290"/>
      <point x="410" y="383"/>
      <point x="410" y="520" type="curve" smooth="yes"/>
      <point x="410" y="657"/>
      <point x="463" y="750"/>
      <point x="600" y="750" type="curve" smooth="yes"/>
      <point x="704" y="750"/>
      <point x="739" y="696"/>
      <point x="760" y="610" type="curve"/>
      <point x="1067" y="788" type="line"/>
      <point x="979" y="961"/>
      <point x="821" y="1070"/>
      <point x="600" y="1070" type="curve" smooth="yes"/>
      <point x="280" y="1070"/>
      <point x="50" y="840"/>
      <point x="50" y="520" type="curve" smooth="yes"/>
      <point x="50" y="200"/>
      <point x="280" y="-30"/>
      <point x="600" y="-30" type="curve" smooth="yes"/>
      <point x="821" y="-30"/>
      <point x="979" y="79"/>
      <point x="1067" y="252" type="curve"/>
    </contour>
  </outline>
</glyph>
<glyph name="uni01AC" format="2">
  <advance width="1528"/>
  <unicode hex="01AC"/>
  <outline>
    <contour>
      <point x="356" y="1024" type="curve"/>
      <point x="2" y="1024" type="line"/>
      <point x="1" y="1036"/>
      <point x="0" y="1048"/>
      <point x="0" y="1060" type="curve" smooth="yes"/>
      <point x="0" y="1310"/>
      <point x="184" y="1480"/>
      <point x="434" y="1480" type="curve" smooth="yes"/>
      <point x="434" y="1144" type="line" smooth="yes"/>
      <point x="384" y="1144"/>
      <point x="349" y="1110"/>
      <point x="349" y="1060" type="curve" smooth="yes"/>
      <point x="349" y="1047"/>
      <point x="350" y="1035"/>
    </contour>
    <contour>
      <point x="977" y="0" type="line"/>
      <point x="597" y="0" type="line"/>
      <point x="597" y="1144" type="line"/>
      <point x="434" y="1144" type="line"/>
      <point x="434" y="1480" type="line"/>
      <point x="1458" y="1480" type="line"/>
      <point x="1458" y="1144" type="line"/>
      <point x="977" y="1144" type="line"/>
    </contour>
  </outline>
</glyph>
<glyph name="uni01B1" format="2">
  <advance width="1620"/>
  <unicode hex="01B1"/>
  <outline>
    <contour>
      <point x="1570" y="1480" type="line"/>
      <point x="1570" y="1144" type="line"/>
      <point x="969" y="1144" type="line"/>
      <point x="969" y="1480" type="line"/>
    </contour>
    <contour>
      <point x="50" y="1480" type="line"/>
      <point x="651" y="1480" type="line"/>
      <point x="651" y="1144" type="line"/>
      <point x="50" y="1144" type="line"/>
    </contour>
    <contour>
      <point x="1570" y="740" type="curve" smooth="yes"/>
      <point x="1570" y="290"/>
      <point x="1270" y="-30"/>
      <point x="810" y="-30" type="curve" smooth="yes"/>
      <point x="810" y="306" type="line" smooth="yes"/>
      <point x="1060" y="306"/>
      <point x="1190" y="490"/>
      <point x="1190" y="740" type="curve" smooth="yes"/>
      <point x="1190" y="930"/>
      <point x="1115" y="1082"/>
      <point x="969" y="1144" type="curve"/>
      <point x="1433" y="1144" type="line"/>
      <point x="1516" y="1029"/>
      <point x="1570" y="892"/>
    </contour>
    <contour>
      <point x="50" y="740" type="curve" smooth="yes"/>
      <point x="50" y="892"/>
      <point x="104" y="1029"/>
      <point x="187" y="1144" type="curve"/>
      <point x="651" y="1144" type="line"/>
      <point x="505" y="1082"/>
      <point x="430" y="930"/>
      <point x="430" y="740" type="curve" smooth="yes"/>
      <point x="430" y="490"/>
      <point x="560" y="306"/>
      <point x="810" y="306" type="curve" smooth="yes"/>
      <point x="810" y="-30" type="line" smooth="yes"/>
      <point x="350" y="-30"/>
      <point x="50" y="290"/>
    </contour>
  </outline>
</glyph>
<glyph name="uni01B4" format="2">
  <advance width="1297"/>
  <unicode hex="01B4"/>
  <outline>
    <contour>
      <point x="1208" y="754" type="line"/>
      <point x="1199" y="762"/>
      <point x="1187" y="767"/>
      <point x="1175" y="771" type="curve" smooth="yes"/>
      <point x="1166" y="774"/>
      <point x="1157" y="775"/>
      <point x="1148" y="775" type="curve" smooth="yes"/>
      <point x="1112" y="775"/>
      <point x="1084" y="751"/>
      <point x="1070" y="713" type="curve" smooth="yes"/>
      <point x="747" y="806" type="line" smooth="yes"/>
      <point x="794" y="997"/>
      <point x="943" y="1100"/>
      <point x="1119" y="1100" type="curve" smooth="yes"/>
      <point x="1165" y="1100"/>
      <point x="1213" y="1092"/>
      <point x="1263" y="1078" type="curve" smooth="yes"/>
      <point x="1275" y="1075"/>
      <point x="1286" y="1071"/>
      <point x="1297" y="1067" type="curve"/>
    </contour>
    <contour>
      <point x="772" y="-158" type="line"/>
      <point x="690" y="-384"/>
      <point x="581" y="-470"/>
      <point x="302" y="-470" type="curve" smooth="yes"/>
      <point x="181" y="-470"/>
      <point x="91" y="-439"/>
      <point x="35" y="-415" type="curve"/>
      <point x="131" y="-95" type="line"/>
      <point x="163" y="-127"/>
      <point x="242" y="-150"/>
      <point x="302" y="-150" type="curve" smooth="yes"/>
      <point x="362" y="-150"/>
      <point x="416" y="-107"/>
      <point x="431" y="-44" type="curve"/>
      <point x="443" y="0" type="line"/>
      <point x="77" y="1040" type="line"/>
      <point x="461" y="1040" type="line"/>
      <point x="637" y="404" type="line"/>
      <point x="747" y="806" type="line"/>
      <point x="1070" y="713" type="line"/>
      <point x="826" y="0" type="line"/>
    </contour>
  </outline>
</glyph>
<glyph name="uni01B7" format="2">
  <advance width="1286"/>
  <unicode hex="01B7"/>
  <outline>
    <contour>
      <point x="711" y="634" type="line"/>
      <point x="528" y="912" type="line"/>
      <point x="1033" y="1480" type="line"/>
      <point x="1176" y="1176" type="line"/>
    </contour>
    <contour>
      <point x="1236" y="453" type="curve" smooth="yes"/>
      <point x="1236" y="120"/>
      <point x="1002" y="-30"/>
      <point x="642" y="-30" type="curve" smooth="yes"/>
      <point x="357" y="-30"/>
      <point x="93" y="91"/>
      <point x="50" y="361" type="curve"/>
      <point x="423" y="461" type="line"/>
      <point x="423" y="361"/>
      <point x="492" y="306"/>
      <point x="642" y="306" type="curve" smooth="yes"/>
      <point x="792" y="306"/>
      <point x="856" y="361"/>
      <point x="856" y="461" type="curve" smooth="yes"/>
      <point x="856" y="561"/>
      <point x="792" y="616"/>
      <point x="642" y="616" type="curve" smooth="yes"/>
      <point x="622" y="616"/>
      <point x="528" y="616"/>
      <point x="528" y="616" type="curve"/>
      <point x="528" y="912" type="line"/>
      <point x="528" y="912"/>
      <point x="622" y="936"/>
      <point x="642" y="936" type="curve" smooth="yes"/>
      <point x="981" y="936"/>
      <point x="1236" y="720"/>
    </contour>
    <contour>
      <point x="122" y="1480" type="line"/>
      <point x="1176" y="1480" type="line"/>
      <point x="1176" y="1176" type="line"/>
      <point x="763" y="1144" type="line"/>
      <point x="122" y="1144" type="line"/>
    </contour>
  </outline>
</glyph>
<glyph name="uni01B9" format="2">
  <advance width="1286"/>
  <unicode hex="01B9"/>
  <outline>
    <contour>
      <point x="575" y="194" type="line"/>
      <point x="758" y="472" type="line"/>
      <point x="253" y="1040" type="line"/>
      <point x="110" y="736" type="line"/>
    </contour>
    <contour>
      <point x="50" y="13" type="curve" smooth="yes"/>
      <point x="50" y="-320"/>
      <point x="284" y="-470"/>
      <point x="644" y="-470" type="curve" smooth="yes"/>
      <point x="929" y="-470"/>
      <point x="1193" y="-349"/>
      <point x="1236" y="-79" type="curve"/>
      <point x="863" y="21" type="line"/>
      <point x="863" y="-79"/>
      <point x="794" y="-134"/>
      <point x="644" y="-134" type="curve" smooth="yes"/>
      <point x="494" y="-134"/>
      <point x="430" y="-79"/>
      <point x="430" y="21" type="curve" smooth="yes"/>
      <point x="430" y="121"/>
      <point x="494" y="176"/>
      <point x="644" y="176" type="curve" smooth="yes"/>
      <point x="664" y="176"/>
      <point x="758" y="176"/>
      <point x="758" y="176" type="curve"/>
      <point x="758" y="472" type="line"/>
      <point x="758" y="472"/>
      <point x="664" y="496"/>
      <point x="644" y="496" type="curve" smooth="yes"/>
      <point x="305" y="496"/>
      <point x="50" y="280"/>
    </contour>
    <contour>
      <point x="1164" y="1040" type="line"/>
      <point x="110" y="1040" type="line"/>
      <point x="110" y="736" type="line"/>
      <point x="523" y="704" type="line"/>
      <point x="1164" y="704" type="line"/>
    </contour>
  </outline>
</glyph>
<glyph name="uni01BE" format="2">
  <advance width="1263"/>
  <unicode hex="01BE"/>
  <outline>
    <contour>
      <point x="637" y="720" type="line"/>
      <point x="637" y="715" type="line" smooth="yes"/>
      <point x="637" y="695"/>
      <point x="667" y="675"/>
      <point x="726" y="663" type="curve" smooth="yes"/>
      <point x="1019" y="601"/>
      <point x="1213" y="566"/>
      <point x="1213" y="326" type="curve" smooth="yes"/>
      <point x="1213" y="86"/>
      <point x="1002" y="-30"/>
      <point x="726" y="-30" type="curve" smooth="yes"/>
      <point x="487" y="-30"/>
      <point x="295" y="85"/>
      <point x="247" y="265" type="curve"/>
      <point x="599" y="356" type="line" smooth="yes"/>
      <point x="599" y="326"/>
      <point x="636" y="290"/>
      <point x="726" y="290" type="curve" smooth="yes"/>
      <point x="816" y="290"/>
      <point x="853" y="296"/>
      <point x="853" y="326" type="curve" smooth="yes"/>
      <point x="853" y="356"/>
      <point x="785" y="371"/>
      <point x="726" y="383" type="curve" smooth="yes"/>
      <point x="446" y="440"/>
      <point x="277" y="515"/>
      <point x="277" y="715" type="curve" smooth="yes"/>
      <point x="277" y="720" type="line"/>
      <point x="25" y="720" type="line"/>
      <point x="25" y="1028" type="line"/>
      <point x="97" y="1028" type="line"/>
      <point x="217" y="1028"/>
      <point x="301" y="1106"/>
      <point x="301" y="1226" type="curve"/>
      <point x="301" y="1320" type="line"/>
      <point x="637" y="1320" type="line"/>
      <point x="637" y="1040" type="line"/>
      <point x="942" y="1040" type="line"/>
      <point x="942" y="720" type="line"/>
    </contour>
  </outline>
</glyph>
<glyph name="uni01DD" format="2">
  <advance width="1200"/>
  <unicode hex="01DD"/>
  <outline>
    <contour>
      <point x="1024" y="380" type="line"/>
      <point x="118" y="380" type="line"/>
      <point x="420" y="640" type="line"/>
      <point x="1024" y="640" type="line"/>
    </contour>
    <contour>
      <point x="411" y="672" type="curve"/>
      <point x="104" y="798" type="line"/>
      <point x="196" y="975"/>
      <point x="378" y="1070"/>
      <point x="600" y="1070" type="curve" smooth="yes"/>
      <point x="921" y="1070"/>
      <point x="1150" y="840"/>
      <point x="1150" y="520" type="curve" smooth="yes"/>
      <point x="1150" y="200"/>
      <point x="920" y="-30"/>
      <point x="600" y="-30" type="curve" smooth="yes"/>
      <point x="280" y="-30"/>
      <point x="50" y="200"/>
      <point x="50" y="520" type="curve" smooth="yes"/>
      <point x="50" y="561"/>
      <point x="55" y="602"/>
      <point x="62" y="640" type="curve"/>
      <point x="420" y="640" type="line"/>
      <point x="406" y="605"/>
      <point x="380" y="564"/>
      <point x="380" y="520" type="curve" smooth="yes"/>
      <point x="380" y="383"/>
      <point x="463" y="290"/>
      <point x="600" y="290" type="curve" smooth="yes"/>
      <point x="737" y="290"/>
      <point x="830" y="383"/>
      <point x="830" y="520" type="curve" smooth="yes"/>
      <point x="830" y="650"/>
      <point x="738" y="750"/>
      <point x="600" y="750" type="curve" smooth="yes"/>
      <point x="486" y="750"/>
      <point x="429" y="711"/>
    </contour>
  </outline>
</glyph>
<glyph name="uni0220" format="2">
  <advance width="1404"/>
  <unicode hex="0220"/>
  <outline>
    <contour>
      <point x="1334" y="880" type="line"/>
      <point x="1334" y="1290"/>
      <point x="1106" y="1510"/>
      <point x="736" y="1510" type="curve" smooth="yes"/>
      <point x="596" y="1510"/>
      <point x="483" y="1468"/>
      <point x="417" y="1360" type="curve"/>
      <point x="417" y="1480" type="line"/>
      <point x="70" y="1480" type="line"/>
      <point x="70" y="0" type="line"/>
      <point x="430" y="0" type="line"/>
      <point x="430" y="874" type="line" smooth="yes"/>
      <point x="430" y="1084"/>
      <point x="541" y="1174"/>
      <point x="691" y="1174" type="curve" smooth="yes"/>
      <point x="841" y="1174"/>
      <point x="947" y="1090"/>
      <point x="954" y="880" type="curve"/>
      <point x="954" y="-440" type="line"/>
      <point x="1334" y="-440" type="line"/>
    </contour>
  </outline>
</glyph>
<glyph name="uni0224" format="2">
  <advance width="1374"/>
  <unicode hex="0224"/>
  <outline>
    <contour>
      <point x="803" y="-77" type="line"/>
      <point x="814" y="-82"/>
      <point x="826" y="-84"/>
      <point x="839" y="-84" type="curve" smooth="yes"/>
      <point x="889" y="-84"/>
      <point x="924" y="-50"/>
      <point x="924" y="0" type="curve" smooth="yes"/>
      <point x="1304" y="0" type="line" smooth="yes"/>
      <point x="1304" y="-250"/>
      <point x="1089" y="-404"/>
      <point x="839" y="-404" type="curve" smooth="yes"/>
      <point x="827" y="-404"/>
      <point x="815" y="-404"/>
      <point x="803" y="-403" type="curve"/>
    </contour>
    <contour>
      <point x="253" y="0" type="line"/>
      <point x="70" y="302" type="line"/>
      <point x="1121" y="1480" type="line"/>
      <point x="1304" y="1176" type="line"/>
    </contour>
    <contour>
      <point x="493" y="336" type="line"/>
      <point x="1304" y="336" type="line"/>
      <point x="1304" y="0" type="line"/>
      <point x="860" y="0"/>
      <point x="514" y="0"/>
      <point x="70" y="0" type="curve"/>
      <point x="70" y="302" type="line"/>
    </contour>
    <contour>
      <point x="891" y="1144" type="line"/>
      <point x="94" y="1144" type="line"/>
      <point x="94" y="1480" type="line"/>
      <point x="538" y="1480"/>
      <point x="860" y="1480"/>
      <point x="1304" y="1480" type="curve"/>
      <point x="1304" y="1176" type="line"/>
    </contour>
  </outline>
</glyph>
<glyph name="uni0225" format="2">
  <advance width="1032"/>
  <unicode hex="0225"/>
  <outline>
    <contour>
      <point x="477" y="-77" type="line"/>
      <point x="488" y="-82"/>
      <point x="500" y="-84"/>
      <point x="513" y="-84" type="curve" smooth="yes"/>
      <point x="563" y="-84"/>
      <point x="598" y="-50"/>
      <point x="598" y="0" type="curve" smooth="yes"/>
      <point x="958" y="0" type="line" smooth="yes"/>
      <point x="958" y="-250"/>
      <point x="763" y="-404"/>
      <point x="513" y="-404" type="curve" smooth="yes"/>
      <point x="501" y="-404"/>
      <point x="489" y="-404"/>
      <point x="477" y="-403" type="curve"/>
    </contour>
    <contour>
      <point x="70" y="1040" type="line"/>
      <point x="70" y="720" type="line"/>
      <point x="548" y="720" type="line"/>
      <point x="962" y="752" type="line"/>
      <point x="962" y="1040" type="line"/>
    </contour>
    <contour>
      <point x="958" y="320" type="line"/>
      <point x="484" y="320" type="line"/>
      <point x="70" y="288" type="line"/>
      <point x="70" y="0" type="line"/>
      <point x="958" y="0" type="line"/>
    </contour>
    <contour>
      <point x="544" y="320" type="line"/>
      <point x="962" y="752" type="line"/>
      <point x="488" y="720" type="line"/>
      <point x="70" y="288" type="line"/>
    </contour>
  </outline>
</glyph>
<glyph name="uni023F" format="2">
  <advance width="1066"/>
  <unicode hex="023F"/>
  <outline>
    <contour>
      <point x="709" y="0" type="line" smooth="yes"/>
      <point x="709" y="-50"/>
      <point x="744" y="-84"/>
      <point x="794" y="-84" type="curve" smooth="yes"/>
      <point x="807" y="-84"/>
      <point x="819" y="-82"/>
      <point x="830" y="-77" type="curve"/>
      <point x="830" y="-403" type="line"/>
      <point x="818" y="-404"/>
      <point x="806" y="-404"/>
      <point x="794" y="-404" type="curve" smooth="yes"/>
      <point x="544" y="-404"/>
      <point x="349" y="-250"/>
      <point x="349" y="0" type="curve" smooth="yes"/>
    </contour>
    <contour>
      <point x="529" y="1070" type="curve" smooth="yes"/>
      <point x="809" y="1070"/>
      <point x="949" y="931"/>
      <point x="995" y="775" type="curve"/>
      <point x="648" y="685" type="line" smooth="yes"/>
      <point x="648" y="705"/>
      <point x="629" y="750"/>
      <point x="529" y="750" type="curve" smooth="yes"/>
      <point x="459" y="750"/>
      <point x="440" y="735"/>
      <point x="440" y="715" type="curve" smooth="yes"/>
      <point x="440" y="695"/>
      <point x="470" y="675"/>
      <point x="529" y="663" type="curve" smooth="yes"/>
      <point x="822" y="601"/>
      <point x="1016" y="566"/>
      <point x="1016" y="326" type="curve" smooth="yes"/>
      <point x="1016" y="86"/>
      <point x="805" y="-30"/>
      <point x="529" y="-30" type="curve" smooth="yes"/>
      <point x="290" y="-30"/>
      <point x="98" y="85"/>
      <point x="50" y="265" type="curve"/>
      <point x="402" y="356" type="line" smooth="yes"/>
      <point x="402" y="326"/>
      <point x="439" y="290"/>
      <point x="529" y="290" type="curve" smooth="yes"/>
      <point x="619" y="290"/>
      <point x="656" y="296"/>
      <point x="656" y="326" type="curve" smooth="yes"/>
      <point x="656" y="356"/>
      <point x="588" y="371"/>
      <point x="529" y="383" type="curve" smooth="yes"/>
      <point x="249" y="442"/>
      <point x="80" y="515"/>
      <point x="80" y="715" type="curve" smooth="yes"/>
      <point x="80" y="915"/>
      <point x="249" y="1070"/>
    </contour>
  </outline>
</glyph>
<glyph name="uni0240" format="2">
  <advance width="1212"/>
  <unicode hex="0240"/>
  <outline>
    <contour>
      <point x="987" y="130" type="curve"/>
      <point x="1212" y="-108" type="line"/>
      <point x="1133" y="-208"/>
      <point x="1020" y="-276"/>
      <point x="888" y="-276" type="curve" smooth="yes"/>
      <point x="817" y="-276"/>
      <point x="740" y="-257"/>
      <point x="661" y="-211" type="curve" smooth="yes"/>
      <point x="531" y="-136"/>
      <point x="522" y="29"/>
      <point x="461" y="64" type="curve" smooth="yes"/>
      <point x="446" y="73"/>
      <point x="430" y="76"/>
      <point x="415" y="76" type="curve" smooth="yes"/>
      <point x="359" y="76"/>
      <point x="309" y="24"/>
      <point x="295" y="0" type="curve"/>
      <point x="70" y="238" type="line"/>
      <point x="149" y="338"/>
      <point x="262" y="406"/>
      <point x="394" y="406" type="curve" smooth="yes"/>
      <point x="465" y="406"/>
      <point x="542" y="387"/>
      <point x="621" y="341" type="curve" smooth="yes"/>
      <point x="751" y="266"/>
      <point x="760" y="101"/>
      <point x="821" y="66" type="curve" smooth="yes"/>
      <point x="834" y="58"/>
      <point x="847" y="56"/>
      <point x="861" y="56" type="curve" smooth="yes"/>
      <point x="916" y="56"/>
      <point x="973" y="106"/>
    </contour>
    <contour>
      <point x="70" y="1040" type="line"/>
      <point x="962" y="1040" type="line"/>
      <point x="962" y="752" type="line"/>
      <point x="548" y="720" type="line"/>
      <point x="70" y="720" type="line"/>
    </contour>
    <contour>
      <point x="544" y="270" type="line"/>
      <point x="70" y="238" type="line"/>
      <point x="488" y="720" type="line"/>
      <point x="962" y="752" type="line"/>
    </contour>
  </outline>
</glyph>
<glyph name="uni0242" format="2">
  <advance width="1034"/>
  <unicode hex="0242"/>
  <outline>
    <contour>
      <point x="331" y="0" type="line"/>
      <point x="691" y="0" type="line"/>
      <point x="691" y="584" type="line"/>
      <point x="331" y="584" type="line"/>
    </contour>
    <contour>
      <point x="511" y="264" type="line"/>
      <point x="779" y="264"/>
      <point x="984" y="443"/>
      <point x="984" y="674" type="curve" smooth="yes"/>
      <point x="984" y="905"/>
      <point x="795" y="1084"/>
      <point x="511" y="1084" type="curve" smooth="yes"/>
      <point x="268" y="1084"/>
      <point x="95" y="952"/>
      <point x="50" y="771" type="curve"/>
      <point x="398" y="674" type="line"/>
      <point x="398" y="734"/>
      <point x="451" y="764"/>
      <point x="511" y="764" type="curve" smooth="yes"/>
      <point x="571" y="764"/>
      <point x="624" y="734"/>
      <point x="624" y="674" type="curve" smooth="yes"/>
      <point x="624" y="614"/>
      <point x="571" y="584"/>
      <point x="511" y="584" type="curve"/>
    </contour>
  </outline>
</glyph>
<glyph name="uni0243" format="2">
  <advance width="1512"/>
  <unicode hex="0243"/>
  <outline>
    <contour>
      <point x="860" y="376" type="line"/>
      <point x="0" y="376" type="line"/>
      <point x="0" y="422"/>
      <point x="0" y="570"/>
      <point x="0" y="616" type="curve"/>
      <point x="860" y="616" type="line"/>
    </contour>
    <contour>
      <point x="891" y="1480" type="line"/>
      <point x="1215" y="1480"/>
      <point x="1385" y="1280"/>
      <point x="1385" y="1060" type="curve" smooth="yes"/>
      <point x="1385" y="840"/>
      <point x="1155" y="656"/>
      <point x="891" y="656" type="curve"/>
      <point x="891" y="976" type="line"/>
      <point x="981" y="976"/>
      <point x="1005" y="1012"/>
      <point x="1005" y="1062" type="curve" smooth="yes"/>
      <point x="1005" y="1112"/>
      <point x="981" y="1144"/>
      <point x="891" y="1144" type="curve"/>
      <point x="590" y="1144" type="line"/>
      <point x="590" y="1480" type="line"/>
    </contour>
    <contour>
      <point x="590" y="336" type="line"/>
      <point x="891" y="336" type="line"/>
      <point x="1011" y="336"/>
      <point x="1082" y="416"/>
      <point x="1082" y="496" type="curve" smooth="yes"/>
      <point x="1082" y="576"/>
      <point x="1011" y="656"/>
      <point x="891" y="656" type="curve"/>
      <point x="590" y="656" type="line"/>
    </contour>
    <contour>
      <point x="210" y="1480" type="line"/>
      <point x="590" y="1480" type="line"/>
      <point x="590" y="976" type="line"/>
      <point x="891" y="976" type="line"/>
      <point x="1257" y="976"/>
      <point x="1462" y="751"/>
      <point x="1462" y="496" type="curve" smooth="yes"/>
      <point x="1462" y="241"/>
      <point x="1257" y="0"/>
      <point x="891" y="0" type="curve"/>
      <point x="210" y="0" type="line"/>
    </contour>
  </outline>
</glyph>
<glyph name="uni0247" format="2">
  <advance width="1200"/>
  <unicode hex="0247"/>
  <outline>
    <contour>
      <point x="913" y="1220" type="line"/>
      <point x="533" y="-180" type="line"/>
      <point x="287" y="-180" type="line"/>
      <point x="667" y="1220" type="line"/>
    </contour>
    <contour>
      <point x="176" y="660" type="line"/>
      <point x="1082" y="660" type="line"/>
      <point x="780" y="400" type="line"/>
      <point x="176" y="400" type="line"/>
    </contour>
    <contour>
      <point x="789" y="368" type="curve"/>
      <point x="1096" y="242" type="line"/>
      <point x="1004" y="65"/>
      <point x="822" y="-30"/>
      <point x="600" y="-30" type="curve" smooth="yes"/>
      <point x="279" y="-30"/>
      <point x="50" y="200"/>
      <point x="50" y="520" type="curve" smooth="yes"/>
      <point x="50" y="840"/>
      <point x="280" y="1070"/>
      <point x="600" y="1070" type="curve" smooth="yes"/>
      <point x="920" y="1070"/>
      <point x="1150" y="840"/>
      <point x="1150" y="520" type="curve" smooth="yes"/>
      <point x="1150" y="479"/>
      <point x="1145" y="438"/>
      <point x="1138" y="400" type="curve"/>
      <point x="780" y="400" type="line"/>
      <point x="794" y="435"/>
      <point x="820" y="476"/>
      <point x="820" y="520" type="curve" smooth="yes"/>
      <point x="820" y="657"/>
      <point x="737" y="750"/>
      <point x="600" y="750" type="curve" smooth="yes"/>
      <point x="463" y="750"/>
      <point x="370" y="657"/>
      <point x="370" y="520" type="curve" smooth="yes"/>
      <point x="370" y="390"/>
      <point x="462" y="290"/>
      <point x="600" y="290" type="curve" smooth="yes"/>
      <point x="714" y="290"/>
      <point x="771" y="329"/>
    </contour>
  </outline>
</glyph>
<glyph name="uni0248" format="2">
  <advance width="1425"/>
  <unicode hex="0248"/>
  <outline>
    <contour>
      <point x="437" y="569" type="line"/>
      <point x="437" y="569"/>
      <point x="430" y="543"/>
      <point x="430" y="485" type="curve" smooth="yes"/>
      <point x="430" y="385"/>
      <point x="514" y="306"/>
      <point x="629" y="306" type="curve" smooth="yes"/>
      <point x="744" y="306"/>
      <point x="835" y="385"/>
      <point x="835" y="485" type="curve" smooth="yes"/>
      <point x="835" y="1480" type="line"/>
      <point x="1215" y="1480" type="line"/>
      <point x="1215" y="485" type="line" smooth="yes"/>
      <point x="1215" y="165"/>
      <point x="965" y="-30"/>
      <point x="629" y="-30" type="curve" smooth="yes"/>
      <point x="293" y="-30"/>
      <point x="50" y="165"/>
      <point x="50" y="485" type="curve" smooth="yes"/>
    </contour>
    <contour>
      <point x="1425" y="620" type="line"/>
      <point x="565" y="620" type="line"/>
      <point x="565" y="666"/>
      <point x="565" y="814"/>
      <point x="565" y="860" type="curve"/>
      <point x="1425" y="860" type="line"/>
    </contour>
  </outline>
</glyph>
<glyph name="uni024C" format="2">
  <advance width="1433"/>
  <unicode hex="024C"/>
  <outline>
    <contour>
      <point x="414" y="488" type="line"/>
      <point x="414" y="824" type="line"/>
      <point x="0" y="824" type="line"/>
      <point x="0" y="778"/>
      <point x="0" y="534"/>
      <point x="0" y="488" type="curve"/>
    </contour>
    <contour>
      <point x="535" y="643" type="line"/>
      <point x="988" y="0" type="line"/>
      <point x="1428" y="0" type="line"/>
      <point x="952" y="660" type="line"/>
    </contour>
    <contour>
      <point x="590" y="1144" type="line"/>
      <point x="777" y="1144" type="line"/>
      <point x="897" y="1144"/>
      <point x="968" y="1094"/>
      <point x="968" y="984" type="curve" smooth="yes"/>
      <point x="968" y="874"/>
      <point x="897" y="824"/>
      <point x="777" y="824" type="curve"/>
      <point x="590" y="824" type="line"/>
    </contour>
    <contour>
      <point x="210" y="0" type="line"/>
      <point x="590" y="0" type="line"/>
      <point x="590" y="488" type="line"/>
      <point x="777" y="488" type="line"/>
      <point x="1163" y="488"/>
      <point x="1348" y="729"/>
      <point x="1348" y="984" type="curve" smooth="yes"/>
      <point x="1348" y="1239"/>
      <point x="1163" y="1480"/>
      <point x="777" y="1480" type="curve"/>
      <point x="210" y="1480" type="line"/>
    </contour>
  </outline>
</glyph>
<glyph name="uni025C" format="2">
  <advance width="1064"/>
  <unicode hex="025C"/>
  <outline>
    <contour>
      <point x="525" y="674" type="curve"/>
      <point x="575" y="674"/>
      <point x="603" y="682"/>
      <point x="603" y="712" type="curve" smooth="yes"/>
      <point x="603" y="742"/>
      <point x="575" y="750"/>
      <point x="525" y="750" type="curve" smooth="yes"/>
      <point x="475" y="750"/>
      <point x="447" y="723"/>
      <point x="447" y="691" type="curve" smooth="yes"/>
      <point x="88" y="788" type="line"/>
      <point x="113" y="937"/>
      <point x="267" y="1070"/>
      <point x="525" y="1070" type="curve" smooth="yes"/>
      <point x="783" y="1070"/>
      <point x="964" y="932"/>
      <point x="964" y="774" type="curve" smooth="yes"/>
      <point x="964" y="673"/>
      <point x="952" y="612"/>
      <point x="843" y="549" type="curve"/>
      <point x="982" y="469"/>
      <point x="1014" y="398"/>
      <point x="1014" y="290" type="curve" smooth="yes"/>
      <point x="1014" y="117"/>
      <point x="812" y="-30"/>
      <point x="525" y="-30" type="curve" smooth="yes"/>
      <point x="256" y="-30"/>
      <point x="84" y="98"/>
      <point x="50" y="272" type="curve"/>
      <point x="366" y="359" type="line" smooth="yes"/>
      <point x="381" y="305"/>
      <point x="430" y="290"/>
      <point x="525" y="290" type="curve" smooth="yes"/>
      <point x="620" y="290"/>
      <point x="654" y="317"/>
      <point x="654" y="352" type="curve" smooth="yes"/>
      <point x="654" y="387"/>
      <point x="620" y="414"/>
      <point x="525" y="414" type="curve"/>
      <point x="475" y="414"/>
      <point x="447" y="414"/>
      <point x="447" y="414" type="curve"/>
      <point x="447" y="674" type="line"/>
      <point x="447" y="674"/>
      <point x="467" y="674"/>
    </contour>
  </outline>
</glyph>
<glyph name="uni0264" format="2">
  <advance width="1212"/>
  <unicode hex="0264"/>
  <outline>
    <contour>
      <point x="954" y="454" type="line"/>
      <point x="980" y="409"/>
      <point x="990" y="362"/>
      <point x="990" y="309" type="curve" smooth="yes"/>
      <point x="990" y="122"/>
      <point x="836" y="-20"/>
      <point x="606" y="-20" type="curve" smooth="yes"/>
      <point x="376" y="-20"/>
      <point x="221" y="122"/>
      <point x="221" y="309" type="curve" smooth="yes"/>
      <point x="221" y="362"/>
      <point x="228" y="404"/>
      <point x="257" y="454" type="curve"/>
      <point x="328" y="578" type="line"/>
      <point x="35" y="1040" type="line"/>
      <point x="452" y="1040" type="line"/>
      <point x="606" y="743" type="line"/>
      <point x="757" y="1040" type="line"/>
      <point x="1177" y="1040" type="line"/>
      <point x="897" y="553" type="line"/>
    </contour>
    <contour>
      <point x="641" y="389" type="curve"/>
      <point x="606" y="450" type="line"/>
      <point x="571" y="389" type="line"/>
      <point x="565" y="379"/>
      <point x="561" y="369"/>
      <point x="561" y="349" type="curve" smooth="yes"/>
      <point x="561" y="319"/>
      <point x="576" y="301"/>
      <point x="606" y="301" type="curve" smooth="yes"/>
      <point x="636" y="301"/>
      <point x="650" y="319"/>
      <point x="650" y="349" type="curve" smooth="yes"/>
      <point x="650" y="369"/>
      <point x="647" y="379"/>
    </contour>
  </outline>
</glyph>
<glyph name="uni0277" format="2">
  <advance width="1606"/>
  <unicode hex="0277"/>
  <outline>
    <contour>
      <point x="1196" y="468" type="curve" smooth="yes"/>
      <point x="1196" y="358"/>
      <point x="1172" y="290"/>
      <point x="1072" y="290" type="curve" smooth="yes"/>
      <point x="972" y="290"/>
      <point x="966" y="410"/>
      <point x="966" y="520" type="curve"/>
      <point x="697" y="520" type="line"/>
      <point x="697" y="200"/>
      <point x="804" y="-30"/>
      <point x="1128" y="-30" type="curve" smooth="yes"/>
      <point x="1392" y="-30"/>
      <point x="1556" y="148"/>
      <point x="1556" y="468" type="curve"/>
      <point x="1556" y="828"/>
      <point x="1223" y="1060"/>
      <point x="803" y="1060" type="curve" smooth="yes"/>
      <point x="383" y="1060"/>
      <point x="50" y="828"/>
      <point x="50" y="468" type="curve"/>
      <point x="50" y="148"/>
      <point x="212" y="-30"/>
      <point x="476" y="-30" type="curve" smooth="yes"/>
      <point x="800" y="-30"/>
      <point x="906" y="200"/>
      <point x="906" y="520" type="curve"/>
      <point x="638" y="520" type="line"/>
      <point x="638" y="410"/>
      <point x="632" y="290"/>
      <point x="532" y="290" type="curve" smooth="yes"/>
      <point x="432" y="290"/>
      <point x="410" y="358"/>
      <point x="410" y="468" type="curve" smooth="yes"/>
      <point x="410" y="633"/>
      <point x="563" y="740"/>
      <point x="803" y="740" type="curve" smooth="yes"/>
      <point x="1043" y="740"/>
      <point x="1196" y="633"/>
    </contour>
  </outline>
</glyph>
<glyph name="uni0283" format="2">
  <advance width="1202"/>
  <unicode hex="0283"/>
  <outline>
    <contour>
      <point x="781" y="798" type="line"/>
      <point x="781" y="1050" type="line"/>
      <point x="781" y="1150"/>
      <point x="829" y="1190"/>
      <point x="919" y="1190" type="curve" smooth="yes"/>
      <point x="979" y="1190"/>
      <point x="1054" y="1167"/>
      <point x="1086" y="1135" type="curve"/>
      <point x="1177" y="1458" type="line"/>
      <point x="1121" y="1482"/>
      <point x="1036" y="1510"/>
      <point x="915" y="1510" type="curve" smooth="yes"/>
      <point x="555" y="1510"/>
      <point x="421" y="1320"/>
      <point x="421" y="1040" type="curve"/>
      <point x="421" y="795" type="line"/>
      <point x="421" y="350" type="line"/>
      <point x="421" y="-10" type="line"/>
      <point x="421" y="-110"/>
      <point x="373" y="-150"/>
      <point x="283" y="-150" type="curve" smooth="yes"/>
      <point x="223" y="-150"/>
      <point x="148" y="-127"/>
      <point x="116" y="-95" type="curve"/>
      <point x="25" y="-418" type="line"/>
      <point x="81" y="-442"/>
      <point x="166" y="-470"/>
      <point x="287" y="-470" type="curve" smooth="yes"/>
      <point x="647" y="-470"/>
      <point x="781" y="-280"/>
      <point x="781" y="0" type="curve"/>
      <point x="781" y="360" type="line"/>
    </contour>
  </outline>
</glyph>
<glyph name="uni0292" format="2">
  <advance width="1286"/>
  <unicode hex="0292"/>
  <outline>
    <contour>
      <point x="711" y="194" type="line"/>
      <point x="528" y="472" type="line"/>
      <point x="1033" y="1040" type="line"/>
      <point x="1176" y="736" type="line"/>
    </contour>
    <contour>
      <point x="1236" y="13" type="curve" smooth="yes"/>
      <point x="1236" y="-320"/>
      <point x="1002" y="-470"/>
      <point x="642" y="-470" type="curve" smooth="yes"/>
      <point x="357" y="-470"/>
      <point x="93" y="-349"/>
      <point x="50" y="-79" type="curve"/>
      <point x="423" y="21" type="line"/>
      <point x="423" y="-79"/>
      <point x="492" y="-134"/>
      <point x="642" y="-134" type="curve" smooth="yes"/>
      <point x="792" y="-134"/>
      <point x="856" y="-79"/>
      <point x="856" y="21" type="curve" smooth="yes"/>
      <point x="856" y="121"/>
      <point x="792" y="176"/>
      <point x="642" y="176" type="curve" smooth="yes"/>
      <point x="622" y="176"/>
      <point x="528" y="176"/>
      <point x="528" y="176" type="curve"/>
      <point x="528" y="472" type="line"/>
      <point x="528" y="472"/>
      <point x="622" y="496"/>
      <point x="642" y="496" type="curve" smooth="yes"/>
      <point x="981" y="496"/>
      <point x="1236" y="280"/>
    </contour>
    <contour>
      <point x="122" y="1040" type="line"/>
      <point x="1176" y="1040" type="line"/>
      <point x="1176" y="736" type="line"/>
      <point x="763" y="704" type="line"/>
      <point x="122" y="704" type="line"/>
    </contour>
  </outline>
</glyph>
<glyph name="uni0296" format="2">
  <advance width="1287"/>
  <unicode hex="0296"/>
  <outline>
    <contour>
      <point x="450" y="1480" type="line"/>
      <point x="830" y="1480" type="line"/>
      <point x="830" y="734" type="line"/>
      <point x="450" y="734" type="line"/>
    </contour>
    <contour>
      <point x="640" y="1070" type="line"/>
      <point x="977" y="1070"/>
      <point x="1237" y="832"/>
      <point x="1237" y="520" type="curve" smooth="yes"/>
      <point x="1237" y="208"/>
      <point x="1000" y="-30"/>
      <point x="640" y="-30" type="curve" smooth="yes"/>
      <point x="318" y="-30"/>
      <point x="95" y="160"/>
      <point x="50" y="424" type="curve"/>
      <point x="403" y="520" type="line"/>
      <point x="403" y="370"/>
      <point x="519" y="306"/>
      <point x="640" y="306" type="curve" smooth="yes"/>
      <point x="761" y="306"/>
      <point x="877" y="370"/>
      <point x="877" y="520" type="curve" smooth="yes"/>
      <point x="877" y="670"/>
      <point x="756" y="734"/>
      <point x="640" y="734" type="curve"/>
    </contour>
  </outline>
</glyph>
<glyph name="uni02A6" format="2">
  <advance width="2024"/>
  <unicode hex="02A6"/>
  <outline>
    <contour>
      <point x="1487" y="0" type="curve" smooth="yes"/>
      <point x="771" y="0" type="line" smooth="yes"/>
      <point x="411" y="0"/>
      <point x="277" y="160"/>
      <point x="277" y="440" type="curve" smooth="yes"/>
      <point x="277" y="720" type="line"/>
      <point x="25" y="720" type="line"/>
      <point x="25" y="1028" type="line"/>
      <point x="97" y="1028" type="line"/>
      <point x="217" y="1028"/>
      <point x="301" y="1106"/>
      <point x="301" y="1226" type="curve"/>
      <point x="301" y="1320" type="line"/>
      <point x="637" y="1320" type="line"/>
      <point x="637" y="1040" type="line"/>
      <point x="942" y="1040" type="line"/>
      <point x="942" y="720" type="line"/>
      <point x="637" y="720" type="line"/>
      <point x="637" y="440" type="line" smooth="yes"/>
      <point x="637" y="340"/>
      <point x="685" y="320"/>
      <point x="775" y="320" type="curve" smooth="yes"/>
      <point x="1487" y="320" type="line" smooth="yes"/>
      <point x="1597" y="320"/>
      <point x="1614" y="327"/>
      <point x="1614" y="347" type="curve" smooth="yes"/>
      <point x="1614" y="367"/>
      <point x="1546" y="375"/>
      <point x="1487" y="387" type="curve" smooth="yes"/>
      <point x="1207" y="446"/>
      <point x="1038" y="519"/>
      <point x="1038" y="719" type="curve" smooth="yes"/>
      <point x="1038" y="919"/>
      <point x="1207" y="1074"/>
      <point x="1487" y="1074" type="curve" smooth="yes"/>
      <point x="1767" y="1074"/>
      <point x="1907" y="935"/>
      <point x="1953" y="779" type="curve"/>
      <point x="1606" y="689" type="line"/>
      <point x="1606" y="709"/>
      <point x="1587" y="754"/>
      <point x="1487" y="754" type="curve" smooth="yes"/>
      <point x="1417" y="754"/>
      <point x="1398" y="739"/>
      <point x="1398" y="719" type="curve" smooth="yes"/>
      <point x="1398" y="699"/>
      <point x="1428" y="679"/>
      <point x="1487" y="667" type="curve" smooth="yes"/>
      <point x="1780" y="605"/>
      <point x="1974" y="570"/>
      <point x="1974" y="330" type="curve" smooth="yes"/>
      <point x="1974" y="90"/>
      <point x="1763" y="0"/>
    </contour>
  </outline>
</glyph>
<glyph name="uni02A9" format="2">
  <advance width="2064"/>
  <unicode hex="02A9"/>
  <outline>
    <contour>
      <point x="1994" y="0" type="line"/>
      <point x="1994" y="-78" type="line" smooth="yes"/>
      <point x="1990" y="-378"/>
      <point x="1830" y="-470"/>
      <point x="1566" y="-470" type="curve" smooth="yes"/>
      <point x="1478" y="-470"/>
      <point x="1430" y="-439"/>
      <point x="1404" y="-426" type="curve"/>
      <point x="1504" y="-134" type="line"/>
      <point x="1517" y="-143"/>
      <point x="1547" y="-150"/>
      <point x="1566" y="-150" type="curve"/>
      <point x="1618" y="-150"/>
      <point x="1634" y="-128"/>
      <point x="1634" y="-78" type="curve"/>
      <point x="1634" y="0" type="line"/>
      <point x="1634" y="572" type="line" smooth="yes"/>
      <point x="1634" y="682"/>
      <point x="1598" y="750"/>
      <point x="1468" y="750" type="curve" smooth="yes"/>
      <point x="1338" y="750"/>
      <point x="1302" y="682"/>
      <point x="1302" y="572" type="curve" smooth="yes"/>
      <point x="1302" y="0" type="line"/>
      <point x="942" y="0" type="line"/>
      <point x="942" y="1040" type="line"/>
      <point x="1290" y="1040" type="line"/>
      <point x="1290" y="920" type="line"/>
      <point x="1325" y="981"/>
      <point x="1414" y="1070"/>
      <point x="1564" y="1070" type="curve" smooth="yes"/>
      <point x="1828" y="1070"/>
      <point x="1994" y="892"/>
      <point x="1994" y="572" type="curve"/>
    </contour>
    <contour>
      <point x="942" y="1135" type="line"/>
      <point x="910" y="1167"/>
      <point x="835" y="1190"/>
      <point x="775" y="1190" type="curve" smooth="yes"/>
      <point x="685" y="1190"/>
      <point x="637" y="1150"/>
      <point x="637" y="1050" type="curve"/>
      <point x="637" y="1040" type="line"/>
      <point x="942" y="1040" type="line"/>
      <point x="942" y="720" type="line"/>
      <point x="637" y="720" type="line"/>
      <point x="637" y="0" type="line"/>
      <point x="277" y="0" type="line"/>
      <point x="277" y="720" type="line"/>
      <point x="25" y="720" type="line"/>
      <point x="25" y="1040" type="line"/>
      <point x="277" y="1040" type="line"/>
      <point x="277" y="1050" type="line"/>
      <point x="277" y="1330"/>
      <point x="411" y="1510"/>
      <point x="771" y="1510" type="curve" smooth="yes"/>
      <point x="892" y="1510"/>
      <point x="977" y="1482"/>
      <point x="1033" y="1458" type="curve"/>
    </contour>
  </outline>
</glyph>
<glyph name="uni02AB" format="2">
  <advance width="1500"/>
  <unicode hex="02AB"/>
  <outline>
    <contour>
      <point x="621" y="330" type="line"/>
      <point x="538" y="330" type="line"/>
      <point x="446" y="330"/>
      <point x="430" y="382"/>
      <point x="430" y="432" type="curve" smooth="yes"/>
      <point x="430" y="510" type="line"/>
      <point x="430" y="578" type="line"/>
      <point x="430" y="1480" type="line"/>
      <point x="70" y="1480" type="line"/>
      <point x="70" y="578" type="line"/>
      <point x="70" y="510" type="line"/>
      <point x="70" y="432" type="line" smooth="yes"/>
      <point x="70" y="132"/>
      <point x="354" y="0"/>
      <point x="538" y="0" type="curve" smooth="yes"/>
    </contour>
    <contour>
      <point x="538" y="1040" type="line"/>
      <point x="538" y="720" type="line"/>
      <point x="1016" y="720" type="line"/>
      <point x="1430" y="752" type="line"/>
      <point x="1430" y="1040" type="line"/>
    </contour>
    <contour>
      <point x="1426" y="320" type="line"/>
      <point x="952" y="320" type="line"/>
      <point x="538" y="288" type="line"/>
      <point x="538" y="0" type="line"/>
      <point x="1426" y="0" type="line"/>
    </contour>
    <contour>
      <point x="1012" y="320" type="line"/>
      <point x="1430" y="752" type="line"/>
      <point x="956" y="720" type="line"/>
      <point x="538" y="288" type="line"/>
    </contour>
  </outline>
</glyph>
<glyph name="uni02BE" format="2">
  <advance width="276"/>
  <unicode hex="02BE"/>
  <outline>
    <contour>
      <point x="35" y="1302" type="line" smooth="yes"/>
      <point x="61" y="1302"/>
      <point x="80" y="1321"/>
      <point x="80" y="1347" type="curve" smooth="yes"/>
      <point x="80" y="1373"/>
      <point x="61" y="1392"/>
      <point x="35" y="1392" type="curve" smooth="yes"/>
      <point x="35" y="1542" type="line" smooth="yes"/>
      <point x="155" y="1542"/>
      <point x="241" y="1457"/>
      <point x="241" y="1347" type="curve" smooth="yes"/>
      <point x="241" y="1237"/>
      <point x="155" y="1152"/>
      <point x="35" y="1152" type="curve" smooth="yes"/>
    </contour>
  </outline>
</glyph>
<glyph name="ogonek" format="2">
  <advance width="455"/>
  <unicode hex="02DB"/>
  <outline>
    <contour>
      <point x="385" y="0" type="line"/>
      <point x="277" y="-78"/>
      <point x="205" y="-137"/>
      <point x="205" y="-204" type="curve" smooth="yes"/>
      <point x="205" y="-230"/>
      <point x="226" y="-261"/>
      <point x="258" y="-261" type="curve" smooth="yes"/>
      <point x="302" y="-261"/>
      <point x="322" y="-256"/>
      <point x="342" y="-225" type="curve"/>
      <point x="420" y="-368" type="line"/>
      <point x="363" y="-418"/>
      <point x="312" y="-432"/>
      <point x="248" y="-432" type="curve" smooth="yes"/>
      <point x="148" y="-432"/>
      <point x="35" y="-374"/>
      <point x="35" y="-224" type="curve" smooth="yes"/>
      <point x="35" y="-137"/>
      <point x="96" y="-59"/>
      <point x="158" y="0" type="curve"/>
    </contour>
  </outline>
</glyph>
<glyph name="uni02EE" format="2">
  <advance width="1100"/>
  <unicode hex="02EE"/>
  <outline>
    <contour>
      <point x="585" y="1310" type="curve" smooth="yes"/>
      <point x="585" y="1421"/>
      <point x="674" y="1510"/>
      <point x="785" y="1510" type="curve" smooth="yes"/>
      <point x="896" y="1510"/>
      <point x="985" y="1421"/>
      <point x="985" y="1310" type="curve" smooth="yes"/>
      <point x="985" y="1199"/>
      <point x="896" y="1110"/>
      <point x="785" y="1110" type="curve" smooth="yes"/>
      <point x="674" y="1110"/>
      <point x="585" y="1199"/>
    </contour>
    <contour>
      <point x="600" y="999" type="line"/>
      <point x="729" y="1019"/>
      <point x="826" y="1084"/>
      <point x="826" y="1172" type="curve" smooth="yes"/>
      <point x="826" y="1216"/>
      <point x="787" y="1310"/>
      <point x="787" y="1310" type="curve"/>
      <point x="785" y="1510" type="line"/>
      <point x="898" y="1510"/>
      <point x="1050" y="1438"/>
      <point x="1050" y="1172" type="curve" smooth="yes"/>
      <point x="1050" y="961"/>
      <point x="819" y="797"/>
      <point x="660" y="769" type="curve"/>
    </contour>
    <contour>
      <point x="50" y="1310" type="curve" smooth="yes"/>
      <point x="50" y="1421"/>
      <point x="139" y="1510"/>
      <point x="250" y="1510" type="curve" smooth="yes"/>
      <point x="361" y="1510"/>
      <point x="450" y="1421"/>
      <point x="450" y="1310" type="curve" smooth="yes"/>
      <point x="450" y="1199"/>
      <point x="361" y="1110"/>
      <point x="250" y="1110" type="curve" smooth="yes"/>
      <point x="139" y="1110"/>
      <point x="50" y="1199"/>
    </contour>
    <contour>
      <point x="65" y="999" type="line"/>
      <point x="194" y="1019"/>
      <point x="291" y="1084"/>
      <point x="291" y="1172" type="curve" smooth="yes"/>
      <point x="291" y="1216"/>
      <point x="252" y="1310"/>
      <point x="252" y="1310" type="curve"/>
      <point x="250" y="1510" type="line"/>
      <point x="363" y="1510"/>
      <point x="515" y="1438"/>
      <point x="515" y="1172" type="curve" smooth="yes"/>
      <point x="515" y="961"/>
      <point x="284" y="797"/>
      <point x="125" y="769" type="curve"/>
    </contour>
  </outline>
</glyph>
<glyph name="uni0302" format="2">
  <advance width="0"/>
  <unicode hex="0302"/>
  <anchor x="642" y="1040" name="_top_center"/>
  <outline>
    <contour>
      <point x="699" y="1224" type="line"/>
      <point x="539" y="1480" type="line"/>
      <point x="845" y="1480" type="line"/>
      <point x="1050" y="1224" type="line"/>
    </contour>
    <contour>
      <point x="585" y="1224" type="line"/>
      <point x="234" y="1224" type="line"/>
      <point x="439" y="1480" type="line"/>
      <point x="745" y="1480" type="line"/>
    </contour>
  </outline>
</glyph>
<glyph name="uni0304" format="2">
  <advance width="0"/>
  <unicode hex="0304"/>
  <anchor x="642" y="1224" name="_mark_anchor_top"/>
  <anchor x="642" y="1504" name="mark_anchor_top"/>
  <anchor x="642" y="1504" name="mark_anchor_right"/>
  <anchor x="642" y="1504" name="mark_anchor_left"/>
  <anchor x="642" y="1654" name="mark_anchor_center"/>
  <anchor x="643" y="1040" name="_top_center"/>
  <outline>
    <contour>
      <point x="277" y="1224" type="line"/>
      <point x="277" y="1414" type="line"/>
      <point x="1009" y="1414" type="line"/>
      <point x="1009" y="1224" type="line"/>
    </contour>
  </outline>
</glyph>
<glyph name="uni0308" format="2">
  <advance width="0"/>
  <unicode hex="0308"/>
  <anchor x="642" y="1480" name="mark_anchor_left"/>
  <anchor x="642" y="1480" name="mark_anchor_right"/>
  <anchor x="642" y="1592" name="mark_anchor_top"/>
  <anchor x="642" y="1525" name="mark_anchor_center"/>
  <anchor x="642" y="1372" name="_mark_anchor_center"/>
  <anchor x="642" y="1040" name="_top_center"/>
  <outline>
    <contour>
      <point x="755" y="1352" type="curve" smooth="yes"/>
      <point x="755" y="1463"/>
      <point x="844" y="1552"/>
      <point x="955" y="1552" type="curve" smooth="yes"/>
      <point x="1066" y="1552"/>
      <point x="1155" y="1463"/>
      <point x="1155" y="1352" type="curve" smooth="yes"/>
      <point x="1155" y="1241"/>
      <point x="1066" y="1152"/>
      <point x="955" y="1152" type="curve" smooth="yes"/>
      <point x="844" y="1152"/>
      <point x="755" y="1241"/>
    </contour>
    <contour>
      <point x="125" y="1352" type="curve" smooth="yes"/>
      <point x="125" y="1463"/>
      <point x="214" y="1552"/>
      <point x="325" y="1552" type="curve" smooth="yes"/>
      <point x="436" y="1552"/>
      <point x="525" y="1463"/>
      <point x="525" y="1352" type="curve" smooth="yes"/>
      <point x="525" y="1241"/>
      <point x="436" y="1152"/>
      <point x="325" y="1152" type="curve" smooth="yes"/>
      <point x="214" y="1152"/>
      <point x="125" y="1241"/>
    </contour>
  </outline>
</glyph>
<glyph name="uni030B" format="2">
  <advance width="0"/>
  <unicode hex="030B"/>
  <anchor x="642" y="1040" name="_top_center"/>
  <outline>
    <contour>
      <point x="1061" y="1224" type="line"/>
      <point x="705" y="1224" type="line"/>
      <point x="883" y="1480" type="line"/>
      <point x="1287" y="1480" type="line"/>
    </contour>
    <contour>
      <point x="481" y="1224" type="line"/>
      <point x="125" y="1224" type="line"/>
      <point x="303" y="1480" type="line"/>
      <point x="707" y="1480" type="line"/>
    </contour>
  </outline>
</glyph>
<glyph name="dotbelowcomb" format="2">
  <advance width="0"/>
  <unicode hex="0323"/>
  <anchor x="642" y="0" name="_bottom_center"/>
  <outline>
    <contour>
      <point x="442" y="-312" type="curve" smooth="yes"/>
      <point x="442" y="-201"/>
      <point x="531" y="-112"/>
      <point x="642" y="-112" type="curve" smooth="yes"/>
      <point x="753" y="-112"/>
      <point x="842" y="-201"/>
      <point x="842" y="-312" type="curve" smooth="yes"/>
      <point x="842" y="-423"/>
      <point x="753" y="-512"/>
      <point x="642" y="-512" type="curve" smooth="yes"/>
      <point x="531" y="-512"/>
      <point x="442" y="-423"/>
    </contour>
  </outline>
</glyph>
<glyph name="uni0327" format="2">
  <advance width="0"/>
  <unicode hex="0327"/>
  <anchor x="704" y="-20" name="_bottom_cedilla"/>
  <outline>
    <contour>
      <point x="516" y="-314" type="curve"/>
      <point x="645" y="-239" type="line"/>
      <point x="667" y="-268"/>
      <point x="707" y="-272"/>
      <point x="722" y="-272" type="curve" smooth="yes"/>
      <point x="757" y="-272"/>
      <point x="778" y="-261"/>
      <point x="778" y="-246" type="curve" smooth="yes"/>
      <point x="778" y="-231"/>
      <point x="757" y="-220"/>
      <point x="722" y="-220" type="curve" smooth="yes"/>
      <point x="707" y="-220"/>
      <point x="688" y="-223"/>
      <point x="675" y="-232" type="curve"/>
      <point x="545" y="-170" type="line"/>
      <point x="580" y="-120"/>
      <point x="624" y="-60"/>
      <point x="722" y="-60" type="curve" smooth="yes"/>
      <point x="842" y="-60"/>
      <point x="938" y="-146"/>
      <point x="938" y="-246" type="curve" smooth="yes"/>
      <point x="938" y="-346"/>
      <point x="872" y="-432"/>
      <point x="722" y="-432" type="curve" smooth="yes"/>
      <point x="622" y="-432"/>
      <point x="562" y="-375"/>
    </contour>
    <contour>
      <point x="647" y="0" type="line"/>
      <point x="807" y="0" type="line"/>
      <point x="682" y="-205" type="line"/>
      <point x="675" y="-232" type="line"/>
      <point x="546" y="-171" type="line"/>
    </contour>
  </outline>
</glyph>
<glyph name="uni0338" format="2">
  <advance width="0"/>
  <unicode hex="0338"/>
  <outline>
    <contour>
      <point x="1046" y="1620" type="line"/>
      <point x="1238" y="1476" type="line"/>
      <point x="-61" y="-140" type="line"/>
      <point x="-253" y="4" type="line"/>
    </contour>
  </outline>
</glyph>
<glyph name="uni0341" format="2">
  <advance width="0"/>
  <unicode hex="0341"/>
  <anchor x="1068" y="1480" name="_top_left"/>
  <anchor x="891" y="1224" name="_top_left_O2"/>
  <anchor x="587" y="1092" name="_circumflex_right"/>
  <anchor x="642" y="1040" name="_top_center"/>
  <outline>
    <contour>
      <point x="810" y="1224" type="line"/>
      <point x="454" y="1224" type="line"/>
      <point x="632" y="1480" type="line"/>
      <point x="1036" y="1480" type="line"/>
    </contour>
  </outline>
</glyph>
<glyph name="uni037B" format="2">
  <advance width="1137"/>
  <unicode hex="037B"/>
  <outline>
    <contour>
      <point x="727" y="520" type="curve" smooth="yes"/>
      <point x="727" y="383"/>
      <point x="674" y="290"/>
      <point x="537" y="290" type="curve" smooth="yes"/>
      <point x="433" y="290"/>
      <point x="378" y="344"/>
      <point x="357" y="430" type="curve"/>
      <point x="50" y="252" type="line"/>
      <point x="138" y="79"/>
      <point x="316" y="-30"/>
      <point x="537" y="-30" type="curve" smooth="yes"/>
      <point x="857" y="-30"/>
      <point x="1087" y="200"/>
      <point x="1087" y="520" type="curve" smooth="yes"/>
      <point x="1087" y="840"/>
      <point x="857" y="1070"/>
      <point x="537" y="1070" type="curve" smooth="yes"/>
      <point x="316" y="1070"/>
      <point x="138" y="961"/>
      <point x="50" y="788" type="curve"/>
      <point x="357" y="610" type="line"/>
      <point x="378" y="696"/>
      <point x="433" y="750"/>
      <point x="537" y="750" type="curve" smooth="yes"/>
      <point x="674" y="750"/>
      <point x="727" y="657"/>
    </contour>
  </outline>
</glyph>
<glyph name="tonos" format="2">
  <advance width="652"/>
  <unicode hex="0384"/>
  <anchor x="223" y="1140" name="_dieresis_center"/>
  <anchor x="617" y="1224" name="_top_left_O2"/>
  <anchor x="649" y="1480" name="_top_left"/>
  <anchor x="223" y="1040" name="_top_center_1F"/>
  <outline>
    <contour>
      <point x="391" y="1224" type="line"/>
      <point x="617" y="1480" type="line"/>
      <point x="213" y="1480" type="line"/>
      <point x="35" y="1224" type="line"/>
    </contour>
  </outline>
</glyph>
<glyph name="Gamma" format="2">
  <advance width="1219"/>
  <unicode hex="0393"/>
  <anchor x="627" y="1380" name="top_center"/>
  <anchor x="260" y="0" name="bottom_center"/>
  <outline>
    <contour>
      <point x="450" y="798" type="line"/>
      <point x="450" y="219" type="line"/>
      <point x="450" y="0" type="line"/>
      <point x="70" y="0" type="line"/>
      <point x="70" y="1480" type="line"/>
      <point x="1184" y="1480" type="line"/>
      <point x="1184" y="1144" type="line"/>
      <point x="450" y="1144" type="line"/>
    </contour>
  </outline>
</glyph>
<glyph name="uni03A9" format="2">
  <advance width="1620"/>
  <unicode hex="03A9"/>
  <anchor x="231" y="1480" name="top_left"/>
  <anchor x="827" y="-80" name="bottom_ypogegrammeni"/>
  <anchor x="827" y="-23" name="bottom_center"/>
  <anchor x="810" y="1380" name="top_center"/>
  <outline>
    <contour>
      <point x="651" y="0" type="line"/>
      <point x="50" y="0" type="line"/>
      <point x="50" y="336" type="line"/>
      <point x="651" y="336" type="line"/>
    </contour>
    <contour>
      <point x="1570" y="0" type="line"/>
      <point x="969" y="0" type="line"/>
      <point x="969" y="336" type="line"/>
      <point x="1570" y="336" type="line"/>
    </contour>
    <contour>
      <point x="50" y="740" type="curve" smooth="yes"/>
      <point x="50" y="1190"/>
      <point x="350" y="1510"/>
      <point x="810" y="1510" type="curve"/>
      <point x="810" y="1174" type="line"/>
      <point x="560" y="1174"/>
      <point x="430" y="990"/>
      <point x="430" y="740" type="curve" smooth="yes"/>
      <point x="430" y="550"/>
      <point x="505" y="398"/>
      <point x="651" y="336" type="curve"/>
      <point x="187" y="336" type="line"/>
      <point x="104" y="451"/>
      <point x="50" y="588"/>
    </contour>
    <contour>
      <point x="1570" y="740" type="curve" smooth="yes"/>
      <point x="1570" y="588"/>
      <point x="1516" y="451"/>
      <point x="1433" y="336" type="curve"/>
      <point x="969" y="336" type="line"/>
      <point x="1115" y="398"/>
      <point x="1190" y="550"/>
      <point x="1190" y="740" type="curve" smooth="yes"/>
      <point x="1190" y="990"/>
      <point x="1060" y="1174"/>
      <point x="810" y="1174" type="curve"/>
      <point x="810" y="1510" type="line"/>
      <point x="1270" y="1510"/>
      <point x="1570" y="1190"/>
    </contour>
  </outline>
</glyph>
<glyph name="alpha" format="2">
  <advance width="1528"/>
  <unicode hex="03B1"/>
  <anchor x="695" y="1040" name="top_center"/>
  <anchor x="702" y="-90" name="bottom_ypogegrammeni"/>
  <anchor x="648" y="0" name="bottom_center"/>
  <anchor x="695" y="1040" name="top_center_1F"/>
  <outline>
    <contour>
      <point x="623" y="750" type="curve" smooth="yes"/>
      <point x="503" y="750"/>
      <point x="410" y="650"/>
      <point x="410" y="520" type="curve" smooth="yes"/>
      <point x="410" y="390"/>
      <point x="503" y="290"/>
      <point x="623" y="290" type="curve" smooth="yes"/>
      <point x="743" y="290"/>
      <point x="865" y="331"/>
      <point x="865" y="652" type="curve"/>
      <point x="967" y="1040" type="line"/>
      <point x="1399" y="1040" type="line"/>
      <point x="1258" y="520" type="line"/>
      <point x="1165" y="172"/>
      <point x="975" y="-30"/>
      <point x="623" y="-30" type="curve" smooth="yes"/>
      <point x="286" y="-30"/>
      <point x="50" y="190"/>
      <point x="50" y="520" type="curve" smooth="yes"/>
      <point x="50" y="850"/>
      <point x="286" y="1070"/>
      <point x="623" y="1070" type="curve" smooth="yes"/>
      <point x="1179" y="1070"/>
      <point x="1207" y="527"/>
      <point x="1249" y="370" type="curve" smooth="yes"/>
      <point x="1263" y="318"/>
      <point x="1287" y="290"/>
      <point x="1340" y="290" type="curve" smooth="yes"/>
      <point x="1359" y="290"/>
      <point x="1389" y="299"/>
      <point x="1403" y="306" type="curve"/>
      <point x="1503" y="-6" type="line"/>
      <point x="1477" y="-19"/>
      <point x="1428" y="-30"/>
      <point x="1390" y="-30" type="curve" smooth="yes"/>
      <point x="1184" y="-30"/>
      <point x="1006" y="-5"/>
      <point x="928" y="285" type="curve" smooth="yes"/>
      <point x="871" y="498"/>
      <point x="837" y="750"/>
    </contour>
  </outline>
</glyph>
<glyph name="xi" format="2">
  <advance width="1204"/>
  <unicode hex="03BE"/>
  <anchor x="694" y="0" name="bottom_center"/>
  <anchor x="694" y="1380" name="top_center"/>
  <outline>
    <contour>
      <point x="50" y="1480" type="line"/>
      <point x="1043" y="1480" type="line"/>
      <point x="1043" y="1160" type="line"/>
      <point x="50" y="1160" type="line"/>
    </contour>
    <contour>
      <point x="50" y="466" type="curve" smooth="yes"/>
      <point x="50" y="801"/>
      <point x="321" y="932"/>
      <point x="682" y="932" type="curve" smooth="yes"/>
      <point x="682" y="612" type="line" smooth="yes"/>
      <point x="512" y="612"/>
      <point x="410" y="596"/>
      <point x="410" y="466" type="curve" smooth="yes"/>
      <point x="410" y="336"/>
      <point x="545" y="320"/>
      <point x="715" y="320" type="curve"/>
      <point x="775" y="320" type="line"/>
      <point x="1085" y="320"/>
      <point x="1179" y="87"/>
      <point x="1179" y="-89" type="curve" smooth="yes"/>
      <point x="1179" y="-167"/>
      <point x="1173" y="-201"/>
      <point x="1155" y="-252" type="curve"/>
      <point x="813" y="-152" type="line"/>
      <point x="820" y="-138"/>
      <point x="829" y="-108"/>
      <point x="829" y="-89" type="curve" smooth="yes"/>
      <point x="829" y="-36"/>
      <point x="803" y="0"/>
      <point x="749" y="0" type="curve"/>
      <point x="715" y="0" type="line"/>
      <point x="317" y="3"/>
      <point x="50" y="131"/>
    </contour>
    <contour>
      <point x="799" y="932" type="line"/>
      <point x="799" y="612" type="line"/>
      <point x="682" y="612" type="line"/>
      <point x="682" y="932" type="line"/>
    </contour>
    <contour>
      <point x="693" y="1160" type="line" smooth="yes"/>
      <point x="603" y="1160"/>
      <point x="518" y="1136"/>
      <point x="518" y="1046" type="curve" smooth="yes"/>
      <point x="518" y="996"/>
      <point x="532" y="932"/>
      <point x="682" y="932" type="curve" smooth="yes"/>
      <point x="682" y="729" type="line" smooth="yes"/>
      <point x="376" y="729"/>
      <point x="158" y="851"/>
      <point x="158" y="1046" type="curve" smooth="yes"/>
      <point x="158" y="1211"/>
      <point x="388" y="1320"/>
      <point x="693" y="1320" type="curve" smooth="yes"/>
    </contour>
  </outline>
</glyph>
<glyph name="rho" format="2">
  <advance width="1220"/>
  <unicode hex="03C1"/>
  <anchor x="620" y="1040" name="greek_t"/>
  <anchor x="620" y="1040" name="greek_k"/>
  <anchor x="620" y="1040" name="greek_kt"/>
  <anchor x="620" y="1040" name="greek_v"/>
  <anchor x="262" y="-360" name="bottom_center"/>
  <anchor x="620" y="1040" name="top_center"/>
  <outline>
    <contour>
      <point x="70" y="520" type="line" smooth="yes"/>
      <point x="70" y="840"/>
      <point x="300" y="1070"/>
      <point x="620" y="1070" type="curve" smooth="yes"/>
      <point x="940" y="1070"/>
      <point x="1170" y="840"/>
      <point x="1170" y="520" type="curve" smooth="yes"/>
      <point x="1170" y="200"/>
      <point x="940" y="-30"/>
      <point x="620" y="-30" type="curve" smooth="yes"/>
      <point x="552" y="-30"/>
      <point x="462" y="14"/>
      <point x="430" y="60" type="curve"/>
      <point x="430" y="-440" type="line"/>
      <point x="70" y="-440" type="line"/>
    </contour>
    <contour>
      <point x="430" y="520" type="curve" smooth="yes"/>
      <point x="430" y="390"/>
      <point x="483" y="290"/>
      <point x="620" y="290" type="curve" smooth="yes"/>
      <point x="757" y="290"/>
      <point x="810" y="383"/>
      <point x="810" y="520" type="curve" smooth="yes"/>
      <point x="810" y="657"/>
      <point x="757" y="750"/>
      <point x="620" y="750" type="curve" smooth="yes"/>
      <point x="483" y="750"/>
      <point x="430" y="657"/>
    </contour>
  </outline>
</glyph>
<glyph name="omega" format="2">
  <advance width="1606"/>
  <unicode hex="03C9"/>
  <anchor x="802" y="1040" name="greek_t"/>
  <anchor x="802" y="1040" name="greek_k"/>
  <anchor x="802" y="1040" name="greek_kt"/>
  <anchor x="802" y="1040" name="greek_v"/>
  <anchor x="802" y="1040" name="top_center"/>
  <anchor x="802" y="0" name="bottom_center"/>
  <anchor x="802" y="-90" name="bottom_ypogegrammeni"/>
  <outline>
    <contour>
      <point x="50" y="468" type="curve" smooth="yes"/>
      <point x="50" y="148"/>
      <point x="212" y="-30"/>
      <point x="476" y="-30" type="curve" smooth="yes"/>
      <point x="800" y="-30"/>
      <point x="906" y="200"/>
      <point x="906" y="520" type="curve"/>
      <point x="638" y="520" type="line"/>
      <point x="638" y="410"/>
      <point x="632" y="290"/>
      <point x="532" y="290" type="curve" smooth="yes"/>
      <point x="432" y="290"/>
      <point x="410" y="358"/>
      <point x="410" y="468" type="curve" smooth="yes"/>
      <point x="410" y="658"/>
      <point x="448" y="803"/>
      <point x="567" y="906" type="curve"/>
      <point x="267" y="1070" type="line"/>
      <point x="142" y="941"/>
      <point x="50" y="818"/>
    </contour>
    <contour>
      <point x="1556" y="468" type="curve" smooth="yes"/>
      <point x="1556" y="818"/>
      <point x="1464" y="941"/>
      <point x="1339" y="1070" type="curve"/>
      <point x="1039" y="906" type="line"/>
      <point x="1158" y="803"/>
      <point x="1196" y="658"/>
      <point x="1196" y="468" type="curve" smooth="yes"/>
      <point x="1196" y="358"/>
      <point x="1172" y="290"/>
      <point x="1072" y="290" type="curve" smooth="yes"/>
      <point x="972" y="290"/>
      <point x="966" y="410"/>
      <point x="966" y="520" type="curve"/>
      <point x="697" y="520" type="line"/>
      <point x="697" y="200"/>
      <point x="804" y="-30"/>
      <point x="1128" y="-30" type="curve" smooth="yes"/>
      <point x="1392" y="-30"/>
      <point x="1556" y="148"/>
    </contour>
  </outline>
</glyph>
<glyph name="uni03DF" format="2">
  <advance width="1038"/>
  <unicode hex="03DF"/>
  <outline>
    <contour>
      <point x="359" y="1480" type="line"/>
      <point x="70" y="870" type="line"/>
      <point x="526" y="900" type="line"/>
      <point x="815" y="1480" type="line"/>
    </contour>
    <contour>
      <point x="223" y="0" type="line"/>
      <point x="679" y="0" type="line"/>
      <point x="968" y="610" type="line"/>
      <point x="502" y="580" type="line"/>
    </contour>
    <contour>
      <point x="70" y="580" type="line"/>
      <point x="810" y="580" type="line"/>
      <point x="968" y="610" type="line"/>
      <point x="968" y="900" type="line"/>
      <point x="218" y="900" type="line"/>
      <point x="70" y="870" type="line"/>
    </contour>
  </outline>
</glyph>
<glyph name="uni03E4" format="2">
  <advance width="1350"/>
  <unicode hex="03E4"/>
  <outline>
    <contour>
      <point x="600" y="1510" type="curve" smooth="yes"/>
      <point x="655" y="1510"/>
      <point x="709" y="1502"/>
      <point x="758" y="1490" type="curve"/>
      <point x="672" y="1166" type="line"/>
      <point x="651" y="1172"/>
      <point x="627" y="1174"/>
      <point x="600" y="1174" type="curve" smooth="yes"/>
      <point x="473" y="1174"/>
      <point x="430" y="1087"/>
      <point x="430" y="960" type="curve" smooth="yes"/>
      <point x="430" y="833"/>
      <point x="525" y="746"/>
      <point x="662" y="746" type="curve" smooth="yes"/>
      <point x="882" y="746"/>
      <point x="911" y="872"/>
      <point x="911" y="872" type="curve"/>
      <point x="1042" y="592" type="line"/>
      <point x="1042" y="592"/>
      <point x="891" y="410"/>
      <point x="602" y="410" type="curve" smooth="yes"/>
      <point x="282" y="410"/>
      <point x="50" y="640"/>
      <point x="50" y="960" type="curve" smooth="yes"/>
      <point x="50" y="1280"/>
      <point x="280" y="1510"/>
    </contour>
    <contour>
      <point x="900" y="910" type="line"/>
      <point x="900" y="1480" type="line"/>
      <point x="1280" y="1480" type="line"/>
      <point x="1280" y="0" type="line"/>
      <point x="900" y="0" type="line"/>
    </contour>
  </outline>
</glyph>
<glyph name="uni03E8" format="2">
  <advance width="1330"/>
  <unicode hex="03E8"/>
  <outline>
    <contour>
      <point x="864" y="543" type="line"/>
      <point x="887" y="523"/>
      <point x="900" y="505"/>
      <point x="900" y="445" type="curve" smooth="yes"/>
      <point x="900" y="355"/>
      <point x="815" y="306"/>
      <point x="665" y="306" type="curve" smooth="yes"/>
      <point x="515" y="306"/>
      <point x="430" y="355"/>
      <point x="430" y="445" type="curve" smooth="yes"/>
      <point x="430" y="535"/>
      <point x="559" y="549"/>
      <point x="665" y="577" type="curve" smooth="yes"/>
      <point x="1013" y="670"/>
      <point x="1249" y="792"/>
      <point x="1249" y="1052" type="curve" smooth="yes"/>
      <point x="1249" y="1312"/>
      <point x="1035" y="1510"/>
      <point x="665" y="1510" type="curve" smooth="yes"/>
      <point x="360" y="1510"/>
      <point x="121" y="1394"/>
      <point x="78" y="1124" type="curve"/>
      <point x="451" y="1024" type="line" smooth="yes"/>
      <point x="451" y="1124"/>
      <point x="525" y="1174"/>
      <point x="665" y="1174" type="curve" smooth="yes"/>
      <point x="805" y="1174"/>
      <point x="869" y="1132"/>
      <point x="869" y="1052" type="curve" smooth="yes"/>
      <point x="869" y="992"/>
      <point x="771" y="973"/>
      <point x="665" y="945" type="curve" smooth="yes"/>
      <point x="298" y="847"/>
      <point x="50" y="725"/>
      <point x="50" y="445" type="curve" smooth="yes"/>
      <point x="50" y="165"/>
      <point x="255" y="-30"/>
      <point x="665" y="-30" type="curve" smooth="yes"/>
      <point x="1075" y="-30"/>
      <point x="1280" y="165"/>
      <point x="1280" y="445" type="curve" smooth="yes"/>
      <point x="1280" y="585"/>
      <point x="1231" y="650"/>
      <point x="1174" y="707" type="curve"/>
    </contour>
  </outline>
</glyph>
<glyph name="uni03EB" format="2">
  <advance width="1210"/>
  <unicode hex="03EB"/>
  <outline>
    <contour>
      <point x="879" y="614" type="line"/>
      <point x="894" y="677"/>
      <point x="918" y="720"/>
      <point x="968" y="720" type="curve" smooth="yes"/>
      <point x="1028" y="720"/>
      <point x="1047" y="707"/>
      <point x="1079" y="675" type="curve"/>
      <point x="1175" y="995" type="line"/>
      <point x="1119" y="1019"/>
      <point x="1089" y="1040"/>
      <point x="968" y="1040" type="curve" smooth="yes"/>
      <point x="802" y="1040"/>
      <point x="696" y="1010"/>
      <point x="620" y="937" type="curve"/>
      <point x="605" y="921" type="line"/>
      <point x="590" y="937" type="line"/>
      <point x="514" y="1010"/>
      <point x="408" y="1040"/>
      <point x="242" y="1040" type="curve" smooth="yes"/>
      <point x="121" y="1040"/>
      <point x="91" y="1019"/>
      <point x="35" y="995" type="curve"/>
      <point x="131" y="675" type="line"/>
      <point x="163" y="707"/>
      <point x="182" y="720"/>
      <point x="242" y="720" type="curve" smooth="yes"/>
      <point x="292" y="720"/>
      <point x="316" y="677"/>
      <point x="331" y="614" type="curve"/>
      <point x="343" y="570" type="line"/>
      <point x="164" y="288" type="line"/>
      <point x="164" y="0" type="line"/>
      <point x="1046" y="0" type="line"/>
      <point x="1046" y="288" type="line"/>
      <point x="867" y="570" type="line"/>
    </contour>
    <contour>
      <point x="605" y="468" type="line"/>
      <point x="686" y="320" type="line"/>
      <point x="524" y="320" type="line"/>
    </contour>
  </outline>
</glyph>
<glyph name="uni0402" format="2">
  <advance width="1813"/>
  <unicode hex="0402"/>
  <outline>
    <contour>
      <point x="771" y="612" type="line"/>
      <point x="771" y="932" type="line"/>
      <point x="1131" y="932" type="line"/>
      <point x="1131" y="612" type="line"/>
    </contour>
    <contour>
      <point x="1403" y="456" type="curve" smooth="yes"/>
      <point x="1403" y="576"/>
      <point x="1251" y="612"/>
      <point x="1131" y="612" type="curve" smooth="yes"/>
      <point x="1131" y="932" type="line" smooth="yes"/>
      <point x="1491" y="932"/>
      <point x="1763" y="736"/>
      <point x="1763" y="456" type="curve" smooth="yes"/>
      <point x="1763" y="176"/>
      <point x="1554" y="-30"/>
      <point x="1195" y="-30" type="curve" smooth="yes"/>
      <point x="1145" y="-30"/>
      <point x="1043" y="-3"/>
      <point x="1003" y="10" type="curve"/>
      <point x="1068" y="329" type="line"/>
      <point x="1127" y="296"/>
      <point x="1153" y="290"/>
      <point x="1195" y="290" type="curve" smooth="yes"/>
      <point x="1315" y="290"/>
      <point x="1403" y="336"/>
    </contour>
    <contour>
      <point x="931" y="0" type="line"/>
      <point x="551" y="0" type="line"/>
      <point x="551" y="1144" type="line"/>
      <point x="70" y="1144" type="line"/>
      <point x="70" y="1480" type="line"/>
      <point x="1412" y="1480" type="line"/>
      <point x="1412" y="1144" type="line"/>
      <point x="931" y="1144" type="line"/>
    </contour>
  </outline>
</glyph>
<glyph name="uni040F" format="2">
  <advance width="1482"/>
  <unicode hex="040F"/>
  <outline>
    <contour>
      <point x="551" y="265" type="line"/>
      <point x="931" y="265" type="line"/>
      <point x="931" y="-300" type="line"/>
      <point x="551" y="-300" type="line"/>
    </contour>
    <contour>
      <point x="70" y="0" type="line"/>
      <point x="70" y="1480" type="line"/>
      <point x="450" y="1480" type="line"/>
      <point x="450" y="336" type="line"/>
      <point x="1032" y="336" type="line"/>
      <point x="1032" y="1480" type="line"/>
      <point x="1412" y="1480" type="line"/>
      <point x="1412" y="0" type="line"/>
    </contour>
  </outline>
</glyph>
<glyph name="uni0417" format="2">
  <advance width="1406"/>
  <unicode hex="0417"/>
  <anchor x="704" y="0" name="bottom_cedilla"/>
  <anchor x="702" y="1380" name="top_center"/>
  <outline>
    <contour>
      <point x="702" y="936" type="line" smooth="yes"/>
      <point x="847" y="936"/>
      <point x="922" y="970"/>
      <point x="922" y="1050" type="curve" smooth="yes"/>
      <point x="922" y="1130"/>
      <point x="837" y="1174"/>
      <point x="702" y="1174" type="curve" smooth="yes"/>
      <point x="567" y="1174"/>
      <point x="474" y="1130"/>
      <point x="474" y="1050" type="curve" smooth="yes"/>
      <point x="103" y="1150" type="line"/>
      <point x="148" y="1377"/>
      <point x="390" y="1510"/>
      <point x="702" y="1510" type="curve" smooth="yes"/>
      <point x="1052" y="1510"/>
      <point x="1302" y="1341"/>
      <point x="1302" y="1058" type="curve" smooth="yes"/>
      <point x="1302" y="829"/>
      <point x="1136" y="781"/>
      <point x="1136" y="781" type="curve"/>
      <point x="1136" y="781"/>
      <point x="1356" y="695"/>
      <point x="1356" y="453" type="curve" smooth="yes"/>
      <point x="1356" y="120"/>
      <point x="1082" y="-30"/>
      <point x="702" y="-30" type="curve" smooth="yes"/>
      <point x="387" y="-30"/>
      <point x="93" y="91"/>
      <point x="50" y="361" type="curve"/>
      <point x="423" y="461" type="line" smooth="yes"/>
      <point x="423" y="361"/>
      <point x="542" y="306"/>
      <point x="702" y="306" type="curve" smooth="yes"/>
      <point x="862" y="306"/>
      <point x="976" y="361"/>
      <point x="976" y="461" type="curve" smooth="yes"/>
      <point x="976" y="561"/>
      <point x="882" y="616"/>
      <point x="702" y="616" type="curve" smooth="yes"/>
      <point x="588" y="616" type="line"/>
      <point x="588" y="936" type="line"/>
    </contour>
  </outline>
</glyph>
<glyph name="uni042B" format="2">
  <advance width="1953"/>
  <unicode hex="042B"/>
  <anchor x="976" y="1380" name="top_center"/>
  <anchor x="976" y="0" name="bottom_center"/>
  <outline>
    <contour>
      <point x="1883" y="1480" type="line"/>
      <point x="1883" y="0" type="line"/>
      <point x="1503" y="0" type="line"/>
      <point x="1503" y="1480" type="line"/>
    </contour>
    <contour>
      <point x="450" y="336" type="line"/>
      <point x="751" y="336" type="line"/>
      <point x="871" y="336"/>
      <point x="942" y="416"/>
      <point x="942" y="496" type="curve" smooth="yes"/>
      <point x="942" y="576"/>
      <point x="871" y="656"/>
      <point x="751" y="656" type="curve"/>
      <point x="450" y="656" type="line"/>
    </contour>
    <contour>
      <point x="70" y="1480" type="line"/>
      <point x="450" y="1480" type="line"/>
      <point x="450" y="976" type="line"/>
      <point x="751" y="976" type="line"/>
      <point x="1117" y="976"/>
      <point x="1322" y="751"/>
      <point x="1322" y="496" type="curve" smooth="yes"/>
      <point x="1322" y="241"/>
      <point x="1117" y="0"/>
      <point x="751" y="0" type="curve"/>
      <point x="70" y="0" type="line"/>
    </contour>
  </outline>
</glyph>
<glyph name="uni042D" format="2">
  <advance width="1535"/>
  <unicode hex="042D"/>
  <anchor x="725" y="1380" name="top_center"/>
  <anchor x="725" y="0" name="bottom_center"/>
  <outline>
    <contour>
      <point x="1222" y="908" type="line"/>
      <point x="723" y="908" type="line"/>
      <point x="470" y="908" type="line"/>
      <point x="470" y="572" type="line"/>
      <point x="723" y="572" type="line"/>
      <point x="1222" y="572" type="line"/>
    </contour>
    <contour>
      <point x="375" y="930" type="line"/>
      <point x="426" y="1078"/>
      <point x="544" y="1174"/>
      <point x="725" y="1174" type="curve" smooth="yes"/>
      <point x="975" y="1174"/>
      <point x="1105" y="990"/>
      <point x="1105" y="740" type="curve" smooth="yes"/>
      <point x="1105" y="490"/>
      <point x="975" y="306"/>
      <point x="725" y="306" type="curve" smooth="yes"/>
      <point x="544" y="306"/>
      <point x="426" y="402"/>
      <point x="375" y="550" type="curve"/>
      <point x="50" y="360" type="line"/>
      <point x="170" y="120"/>
      <point x="410" y="-30"/>
      <point x="725" y="-30" type="curve" smooth="yes"/>
      <point x="1185" y="-30"/>
      <point x="1485" y="290"/>
      <point x="1485" y="740" type="curve" smooth="yes"/>
      <point x="1485" y="1190"/>
      <point x="1185" y="1510"/>
      <point x="725" y="1510" type="curve" smooth="yes"/>
      <point x="410" y="1510"/>
      <point x="170" y="1360"/>
      <point x="50" y="1120" type="curve"/>
    </contour>
  </outline>
</glyph>
<glyph name="uni0448" format="2">
  <advance width="1650"/>
  <unicode hex="0448"/>
  <anchor x="825" y="0" name="bottom_center"/>
  <anchor x="825" y="1040" name="top_center"/>
  <outline>
    <contour>
      <point x="430" y="1040" type="line"/>
      <point x="430" y="320" type="line"/>
      <point x="627" y="320" type="line"/>
      <point x="627" y="0" type="line"/>
      <point x="286" y="0" type="line"/>
      <point x="70" y="0" type="line"/>
      <point x="70" y="1040" type="line"/>
    </contour>
    <contour>
      <point x="1220" y="1040" type="line"/>
      <point x="1580" y="1040" type="line"/>
      <point x="1580" y="0" type="line"/>
      <point x="1364" y="0" type="line"/>
      <point x="1023" y="0" type="line"/>
      <point x="627" y="0" type="line"/>
      <point x="627" y="1040" type="line"/>
      <point x="1023" y="1040" type="line"/>
      <point x="1023" y="320" type="line"/>
      <point x="1220" y="320" type="line"/>
    </contour>
  </outline>
</glyph>
<glyph name="uni044A" format="2">
  <advance width="1254"/>
  <unicode hex="044A"/>
  <anchor x="473" y="1040" name="top_center"/>
  <anchor x="668" y="0" name="bottom_center"/>
  <outline>
    <contour>
      <point x="5" y="720" type="line"/>
      <point x="5" y="1040" type="line"/>
      <point x="293" y="1040" type="line"/>
      <point x="293" y="720" type="line"/>
    </contour>
    <contour>
      <point x="653" y="320" type="line"/>
      <point x="766" y="320" type="line" smooth="yes"/>
      <point x="811" y="320"/>
      <point x="844" y="333"/>
      <point x="844" y="378" type="curve" smooth="yes"/>
      <point x="844" y="423"/>
      <point x="811" y="436"/>
      <point x="766" y="436" type="curve" smooth="yes"/>
      <point x="653" y="436" type="line"/>
    </contour>
    <contour>
      <point x="653" y="756" type="line"/>
      <point x="766" y="756" type="line" smooth="yes"/>
      <point x="1046" y="756"/>
      <point x="1204" y="618"/>
      <point x="1204" y="378" type="curve" smooth="yes"/>
      <point x="1204" y="138"/>
      <point x="1046" y="0"/>
      <point x="766" y="0" type="curve" smooth="yes"/>
      <point x="293" y="0" type="line"/>
      <point x="293" y="1040" type="line"/>
      <point x="653" y="1040" type="line"/>
    </contour>
  </outline>
</glyph>
<glyph name="uni0468" format="2">
  <advance width="2125"/>
  <unicode hex="0468"/>
  <outline>
    <contour>
      <point x="450" y="908" type="line"/>
      <point x="450" y="572" type="line"/>
      <point x="1031" y="572" type="line"/>
      <point x="1031" y="908" type="line"/>
    </contour>
    <contour>
      <point x="450" y="490" type="line"/>
      <point x="450" y="1480" type="line"/>
      <point x="70" y="1480" type="line"/>
      <point x="70" y="0" type="line"/>
      <point x="450" y="0" type="line"/>
    </contour>
    <contour>
      <point x="1180" y="0" type="line"/>
      <point x="1540" y="0" type="line"/>
      <point x="1540" y="740" type="line"/>
      <point x="1180" y="740" type="line"/>
    </contour>
    <contour>
      <point x="1643" y="908" type="line"/>
      <point x="1081" y="908" type="line"/>
      <point x="1081" y="572" type="line"/>
      <point x="1643" y="572" type="line"/>
    </contour>
    <contour>
      <point x="1368" y="1080" type="line"/>
      <point x="1698" y="0" type="line"/>
      <point x="2090" y="0" type="line"/>
      <point x="1598" y="1480" type="line"/>
      <point x="1122" y="1480" type="line"/>
      <point x="630" y="0" type="line"/>
      <point x="1022" y="0" type="line"/>
    </contour>
  </outline>
</glyph>
<glyph name="uni046F" format="2">
  <advance width="1267"/>
  <unicode hex="046F"/>
  <outline>
    <contour>
      <point x="656" y="988" type="line"/>
      <point x="379" y="1446" type="line"/>
      <point x="92" y="1446" type="line"/>
      <point x="386" y="986" type="line"/>
    </contour>
    <contour>
      <point x="1041" y="1476" type="curve" smooth="yes"/>
      <point x="924" y="1476"/>
      <point x="810" y="1417"/>
      <point x="722" y="1261" type="curve"/>
      <point x="563" y="996" type="line"/>
      <point x="807" y="986" type="line"/>
      <point x="919" y="1168" type="line"/>
      <point x="949" y="1222"/>
      <point x="996" y="1250"/>
      <point x="1047" y="1250" type="curve" smooth="yes"/>
      <point x="1113" y="1250"/>
      <point x="1163" y="1212"/>
      <point x="1163" y="1212" type="curve"/>
      <point x="1244" y="1400" type="line"/>
      <point x="1244" y="1400"/>
      <point x="1158" y="1476"/>
    </contour>
    <contour>
      <point x="608" y="-30" type="curve" smooth="yes"/>
      <point x="895" y="-30"/>
      <point x="1097" y="117"/>
      <point x="1097" y="290" type="curve" smooth="yes"/>
      <point x="1097" y="398"/>
      <point x="1065" y="469"/>
      <point x="926" y="549" type="curve"/>
      <point x="1035" y="612"/>
      <point x="1047" y="673"/>
      <point x="1047" y="774" type="curve" smooth="yes"/>
      <point x="1047" y="932"/>
      <point x="866" y="1070"/>
      <point x="608" y="1070" type="curve" smooth="yes"/>
      <point x="350" y="1070"/>
      <point x="196" y="937"/>
      <point x="171" y="788" type="curve"/>
      <point x="530" y="691" type="line" smooth="yes"/>
      <point x="530" y="723"/>
      <point x="558" y="750"/>
      <point x="608" y="750" type="curve" smooth="yes"/>
      <point x="658" y="750"/>
      <point x="686" y="742"/>
      <point x="686" y="712" type="curve" smooth="yes"/>
      <point x="686" y="682"/>
      <point x="658" y="674"/>
      <point x="608" y="674" type="curve"/>
      <point x="550" y="674"/>
      <point x="530" y="674"/>
      <point x="530" y="674" type="curve"/>
      <point x="530" y="414" type="line"/>
      <point x="530" y="414"/>
      <point x="558" y="414"/>
      <point x="608" y="414" type="curve"/>
      <point x="703" y="414"/>
      <point x="737" y="387"/>
      <point x="737" y="352" type="curve" smooth="yes"/>
      <point x="737" y="317"/>
      <point x="703" y="290"/>
      <point x="608" y="290" type="curve" smooth="yes"/>
      <point x="232" y="290"/>
      <point x="50" y="112"/>
      <point x="50" y="-98" type="curve" smooth="yes"/>
      <point x="50" y="-308"/>
      <point x="226" y="-486"/>
      <point x="532" y="-486" type="curve" smooth="yes"/>
      <point x="772" y="-486"/>
      <point x="794" y="-394"/>
      <point x="914" y="-394" type="curve" smooth="yes"/>
      <point x="1014" y="-394"/>
      <point x="1074" y="-412"/>
      <point x="1175" y="-486" type="curve"/>
      <point x="1262" y="-165" type="line"/>
      <point x="1160" y="-110"/>
      <point x="1034" y="-58"/>
      <point x="914" y="-58" type="curve" smooth="yes"/>
      <point x="724" y="-58"/>
      <point x="699" y="-166"/>
      <point x="532" y="-166" type="curve" smooth="yes"/>
      <point x="446" y="-166"/>
      <point x="410" y="-138"/>
      <point x="410" y="-98" type="curve" smooth="yes"/>
      <point x="410" y="-48"/>
      <point x="472" y="-30"/>
    </contour>
  </outline>
</glyph>
<glyph name="uni0481" format="2">
  <advance width="1137"/>
  <unicode hex="0481"/>
  <outline>
    <contour>
      <point x="982" y="290" type="line"/>
      <point x="982" y="-290" type="line"/>
      <point x="602" y="-290" type="line"/>
      <point x="602" y="290" type="line"/>
    </contour>
    <contour>
      <point x="602" y="-30" type="line" smooth="yes"/>
      <point x="282" y="-30"/>
      <point x="50" y="200"/>
      <point x="50" y="520" type="curve" smooth="yes"/>
      <point x="50" y="840"/>
      <point x="280" y="1070"/>
      <point x="600" y="1070" type="curve" smooth="yes"/>
      <point x="821" y="1070"/>
      <point x="999" y="961"/>
      <point x="1087" y="788" type="curve"/>
      <point x="780" y="610" type="line"/>
      <point x="759" y="696"/>
      <point x="704" y="750"/>
      <point x="600" y="750" type="curve" smooth="yes"/>
      <point x="463" y="750"/>
      <point x="410" y="657"/>
      <point x="410" y="520" type="curve" smooth="yes"/>
      <point x="410" y="383"/>
      <point x="465" y="290"/>
      <point x="602" y="290" type="curve" smooth="yes"/>
    </contour>
  </outline>
</glyph>
<glyph name="uni0484" format="2">
  <advance width="0"/>
  <unicode hex="0484"/>
  <outline>
    <contour>
      <point x="307" y="1205" type="line"/>
      <point x="627" y="1205"/>
      <point x="581" y="1290"/>
      <point x="703" y="1290" type="curve" smooth="yes"/>
      <point x="764" y="1290"/>
      <point x="790" y="1236"/>
      <point x="790" y="1205" type="curve"/>
      <point x="1009" y="1261" type="line"/>
      <point x="992" y="1378"/>
      <point x="879" y="1480"/>
      <point x="703" y="1480" type="curve" smooth="yes"/>
      <point x="543" y="1480"/>
      <point x="579" y="1395"/>
      <point x="307" y="1395" type="curve"/>
    </contour>
  </outline>
</glyph>
<glyph name="uni048D" format="2">
  <advance width="1171"/>
  <unicode hex="048D"/>
  <outline>
    <contour>
      <point x="840" y="1120" type="line"/>
      <point x="0" y="1120" type="line"/>
      <point x="0" y="1166"/>
      <point x="0" y="1314"/>
      <point x="0" y="1360" type="curve"/>
      <point x="840" y="1360" type="line"/>
    </contour>
    <contour>
      <point x="570" y="320" type="line"/>
      <point x="683" y="320" type="line" smooth="yes"/>
      <point x="728" y="320"/>
      <point x="761" y="333"/>
      <point x="761" y="378" type="curve" smooth="yes"/>
      <point x="761" y="423"/>
      <point x="728" y="436"/>
      <point x="683" y="436" type="curve" smooth="yes"/>
      <point x="570" y="436" type="line"/>
    </contour>
    <contour>
      <point x="210" y="1480" type="line"/>
      <point x="570" y="1480" type="line"/>
      <point x="570" y="756" type="line"/>
      <point x="683" y="756" type="line" smooth="yes"/>
      <point x="963" y="756"/>
      <point x="1121" y="618"/>
      <point x="1121" y="378" type="curve" smooth="yes"/>
      <point x="1121" y="138"/>
      <point x="963" y="0"/>
      <point x="683" y="0" type="curve" smooth="yes"/>
      <point x="210" y="0" type="line"/>
    </contour>
  </outline>
</glyph>
<glyph name="uni0492" format="2">
  <advance width="1359"/>
  <unicode hex="0492"/>
  <outline>
    <contour>
      <point x="860" y="620" type="line"/>
      <point x="0" y="620" type="line"/>
      <point x="0" y="666"/>
      <point x="0" y="814"/>
      <point x="0" y="860" type="curve"/>
      <point x="860" y="860" type="line"/>
    </contour>
    <contour>
      <point x="590" y="798" type="line"/>
      <point x="590" y="219" type="line"/>
      <point x="590" y="0" type="line"/>
      <point x="210" y="0" type="line"/>
      <point x="210" y="1480" type="line"/>
      <point x="1324" y="1480" type="line"/>
      <point x="1324" y="1144" type="line"/>
      <point x="590" y="1144" type="line"/>
    </contour>
  </outline>
</glyph>
<glyph name="uni0495" format="2">
  <advance width="1208"/>
  <unicode hex="0495"/>
  <outline>
    <contour>
      <point x="608" y="320" type="curve" smooth="yes"/>
      <point x="506" y="320"/>
      <point x="452" y="268"/>
      <point x="429" y="186" type="curve"/>
      <point x="204" y="476" type="line"/>
      <point x="302" y="579"/>
      <point x="443" y="640"/>
      <point x="608" y="640" type="curve" smooth="yes"/>
      <point x="928" y="640"/>
      <point x="1158" y="410"/>
      <point x="1158" y="90" type="curve" smooth="yes"/>
      <point x="1158" y="-230"/>
      <point x="928" y="-460"/>
      <point x="608" y="-460" type="curve"/>
      <point x="608" y="-140" type="line"/>
      <point x="745" y="-140"/>
      <point x="798" y="-47"/>
      <point x="798" y="90" type="curve" smooth="yes"/>
      <point x="798" y="227"/>
      <point x="745" y="320"/>
    </contour>
    <contour>
      <point x="70" y="0" type="line"/>
      <point x="70" y="1040" type="line"/>
      <point x="909" y="1040" type="line"/>
      <point x="909" y="720" type="line"/>
      <point x="430" y="720" type="line"/>
      <point x="430" y="0" type="line"/>
    </contour>
  </outline>
</glyph>
<glyph name="uni049C" format="2">
  <advance width="1463"/>
  <unicode hex="049C"/>
  <outline>
    <contour>
      <point x="493" y="1260" type="line"/>
      <point x="683" y="1260" type="line"/>
      <point x="683" y="220" type="line"/>
      <point x="493" y="220" type="line"/>
    </contour>
    <contour>
      <point x="453" y="801" type="line"/>
      <point x="792" y="925" type="line"/>
      <point x="1458" y="0" type="line"/>
      <point x="1018" y="0" type="line"/>
    </contour>
    <contour>
      <point x="450" y="450" type="line"/>
      <point x="450" y="0" type="line"/>
      <point x="70" y="0" type="line"/>
      <point x="70" y="1480" type="line"/>
      <point x="450" y="1480" type="line"/>
      <point x="450" y="940" type="line"/>
      <point x="978" y="1480" type="line"/>
      <point x="1050" y="1480"/>
      <point x="1386" y="1480"/>
      <point x="1458" y="1480" type="curve"/>
    </contour>
  </outline>
</glyph>
<glyph name="uni04AB" format="2">
  <advance width="1139"/>
  <unicode hex="04AB"/>
  <outline>
    <contour>
      <point x="410" y="520" type="curve" smooth="yes"/>
      <point x="410" y="383"/>
      <point x="465" y="290"/>
      <point x="602" y="290" type="curve" smooth="yes"/>
      <point x="706" y="290"/>
      <point x="761" y="344"/>
      <point x="782" y="430" type="curve"/>
      <point x="1089" y="252" type="line"/>
      <point x="1001" y="79"/>
      <point x="823" y="-30"/>
      <point x="602" y="-30" type="curve" smooth="yes"/>
      <point x="282" y="-30"/>
      <point x="50" y="200"/>
      <point x="50" y="520" type="curve" smooth="yes"/>
      <point x="50" y="840"/>
      <point x="280" y="1070"/>
      <point x="600" y="1070" type="curve" smooth="yes"/>
      <point x="821" y="1070"/>
      <point x="999" y="961"/>
      <point x="1087" y="788" type="curve"/>
      <point x="780" y="610" type="line"/>
      <point x="759" y="696"/>
      <point x="704" y="750"/>
      <point x="600" y="750" type="curve" smooth="yes"/>
      <point x="463" y="750"/>
      <point x="410" y="657"/>
    </contour>
    <contour>
      <point x="398" y="-141" type="line"/>
      <point x="406" y="-148"/>
      <point x="430" y="-150"/>
      <point x="440" y="-150" type="curve" smooth="yes"/>
      <point x="478" y="-150"/>
      <point x="507" y="-132"/>
      <point x="507" y="-96" type="curve" smooth="yes"/>
      <point x="507" y="0" type="line"/>
      <point x="775" y="0" type="line"/>
      <point x="775" y="-114" type="line" smooth="yes"/>
      <point x="775" y="-290"/>
      <point x="643" y="-390"/>
      <point x="446" y="-390" type="curve" smooth="yes"/>
      <point x="394" y="-390"/>
      <point x="356" y="-372"/>
      <point x="341" y="-362" type="curve"/>
    </contour>
  </outline>
</glyph>
<glyph name="uni04AD" format="2">
  <advance width="1068"/>
  <unicode hex="04AD"/>
  <outline>
    <contour>
      <point x="479" y="320" type="line"/>
      <point x="929" y="320" type="line"/>
      <point x="929" y="-300" type="line"/>
      <point x="569" y="-300" type="line"/>
      <point x="569" y="0" type="line"/>
      <point x="479" y="0" type="line"/>
    </contour>
    <contour>
      <point x="389" y="0" type="line"/>
      <point x="389" y="720" type="line"/>
      <point x="70" y="720" type="line"/>
      <point x="70" y="1040" type="line"/>
      <point x="1068" y="1040" type="line"/>
      <point x="1068" y="720" type="line"/>
      <point x="749" y="720" type="line"/>
      <point x="749" y="0" type="line"/>
    </contour>
  </outline>
</glyph>
<glyph name="uni04BD" format="2">
  <advance width="1524"/>
  <unicode hex="04BD"/>
  <outline>
    <contour>
      <point x="296" y="780" type="line"/>
      <point x="290" y="769"/>
      <point x="289" y="757"/>
      <point x="289" y="744" type="curve" smooth="yes"/>
      <point x="289" y="694"/>
      <point x="324" y="660"/>
      <point x="374" y="660" type="curve"/>
      <point x="374" y="400" type="line"/>
      <point x="134" y="400"/>
      <point x="0" y="554"/>
      <point x="0" y="744" type="curve" smooth="yes"/>
      <point x="0" y="756"/>
      <point x="1" y="768"/>
      <point x="2" y="780" type="curve"/>
    </contour>
    <contour>
      <point x="1406" y="660" type="line"/>
      <point x="1104" y="400" type="line"/>
      <point x="374" y="400" type="line"/>
      <point x="374" y="660" type="line"/>
    </contour>
    <contour>
      <point x="1113" y="368" type="curve"/>
      <point x="1420" y="242" type="line"/>
      <point x="1328" y="65"/>
      <point x="1146" y="-30"/>
      <point x="924" y="-30" type="curve" smooth="yes"/>
      <point x="603" y="-30"/>
      <point x="374" y="200"/>
      <point x="374" y="520" type="curve" smooth="yes"/>
      <point x="374" y="840"/>
      <point x="604" y="1070"/>
      <point x="924" y="1070" type="curve" smooth="yes"/>
      <point x="1244" y="1070"/>
      <point x="1474" y="840"/>
      <point x="1474" y="520" type="curve" smooth="yes"/>
      <point x="1474" y="479"/>
      <point x="1469" y="438"/>
      <point x="1462" y="400" type="curve"/>
      <point x="1104" y="400" type="line"/>
      <point x="1118" y="435"/>
      <point x="1144" y="476"/>
      <point x="1144" y="520" type="curve" smooth="yes"/>
      <point x="1144" y="657"/>
      <point x="1061" y="750"/>
      <point x="924" y="750" type="curve" smooth="yes"/>
      <point x="787" y="750"/>
      <point x="694" y="657"/>
      <point x="694" y="520" type="curve" smooth="yes"/>
      <point x="694" y="390"/>
      <point x="786" y="290"/>
      <point x="924" y="290" type="curve" smooth="yes"/>
      <point x="1038" y="290"/>
      <point x="1095" y="329"/>
    </contour>
  </outline>
</glyph>
<glyph name="uni04E8" format="2">
  <advance width="1620"/>
  <unicode hex="04E8"/>
  <anchor x="810" y="0" name="bottom_center"/>
  <anchor x="810" y="1380" name="top_center"/>
  <outline>
    <contour>
      <point x="313" y="908" type="line"/>
      <point x="812" y="908" type="line"/>
      <point x="1301" y="908" type="line"/>
      <point x="1301" y="572" type="line"/>
      <point x="812" y="572" type="line"/>
      <point x="313" y="572" type="line"/>
    </contour>
    <component base="O"/>
  </outline>
</glyph>
<glyph name="uni04FA" format="2">
  <advance width="1359"/>
  <unicode hex="04FA"/>
  <outline>
    <contour>
      <point x="492" y="336" type="line"/>
      <point x="970" y="336" type="line"/>
      <point x="970" y="0" type="line" smooth="yes"/>
      <point x="970" y="-250"/>
      <point x="755" y="-404"/>
      <point x="505" y="-404" type="curve" smooth="yes"/>
      <point x="493" y="-404"/>
      <point x="481" y="-404"/>
      <point x="469" y="-403" type="curve"/>
      <point x="469" y="-77" type="line"/>
      <point x="480" y="-82"/>
      <point x="492" y="-84"/>
      <point x="505" y="-84" type="curve" smooth="yes"/>
      <point x="555" y="-84"/>
      <point x="590" y="-50"/>
      <point x="590" y="0" type="curve"/>
      <point x="492" y="0" type="line"/>
    </contour>
    <contour>
      <point x="860" y="620" type="line"/>
      <point x="0" y="620" type="line"/>
      <point x="0" y="666"/>
      <point x="0" y="814"/>
      <point x="0" y="860" type="curve"/>
      <point x="860" y="860" type="line"/>
    </contour>
    <contour>
      <point x="590" y="798" type="line"/>
      <point x="590" y="387" type="line"/>
      <point x="590" y="0" type="line"/>
      <point x="210" y="0" type="line"/>
      <point x="210" y="1480" type="line"/>
      <point x="1324" y="1480" type="line"/>
      <point x="1324" y="1144" type="line"/>
      <point x="590" y="1144" type="line"/>
    </contour>
  </outline>
</glyph>
<glyph name="uni04FC" format="2">
  <advance width="1572"/>
  <unicode hex="04FC"/>
  <outline>
    <contour>
      <point x="1036" y="-77" type="curve"/>
      <point x="1036" y="-403" type="line"/>
      <point x="1048" y="-404"/>
      <point x="1060" y="-404"/>
      <point x="1072" y="-404" type="curve" smooth="yes"/>
      <point x="1322" y="-404"/>
      <point x="1537" y="-250"/>
      <point x="1537" y="0" type="curve" smooth="yes"/>
      <point x="1157" y="0" type="line" smooth="yes"/>
      <point x="1157" y="-50"/>
      <point x="1122" y="-84"/>
      <point x="1072" y="-84" type="curve" smooth="yes"/>
      <point x="1059" y="-84"/>
      <point x="1047" y="-82"/>
    </contour>
    <contour>
      <point x="784" y="487" type="line"/>
      <point x="463" y="0" type="line"/>
      <point x="35" y="0" type="line"/>
      <point x="562" y="740" type="line"/>
      <point x="35" y="1480" type="line"/>
      <point x="463" y="1480" type="line"/>
      <point x="786" y="988" type="line"/>
      <point x="1109" y="1480" type="line"/>
      <point x="1537" y="1480" type="line"/>
      <point x="1010" y="740" type="line"/>
      <point x="1537" y="0" type="line"/>
      <point x="1109" y="0" type="line"/>
    </contour>
  </outline>
</glyph>
<glyph name="uni04FE" format="2">
  <advance width="1572"/>
  <unicode hex="04FE"/>
  <outline>
    <contour>
      <point x="1447" y="620" type="line"/>
      <point x="125" y="620" type="line"/>
      <point x="125" y="666"/>
      <point x="125" y="814"/>
      <point x="125" y="860" type="curve"/>
      <point x="1447" y="860" type="line"/>
    </contour>
    <contour>
      <point x="784" y="487" type="line"/>
      <point x="463" y="0" type="line"/>
      <point x="35" y="0" type="line"/>
      <point x="562" y="740" type="line"/>
      <point x="35" y="1480" type="line"/>
      <point x="463" y="1480" type="line"/>
      <point x="786" y="988" type="line"/>
      <point x="1109" y="1480" type="line"/>
      <point x="1537" y="1480" type="line"/>
      <point x="1010" y="740" type="line"/>
      <point x="1537" y="0" type="line"/>
      <point x="1109" y="0" type="line"/>
    </contour>
  </outline>
</glyph>
<glyph name="uni0502" format="2">
  <advance width="2084"/>
  <unicode hex="0502"/>
  <outline>
    <contour>
      <point x="1302" y="1480" type="line"/>
      <point x="1302" y="466" type="line" smooth="yes"/>
      <point x="1302" y="211"/>
      <point x="1099" y="-30"/>
      <point x="733" y="-30" type="curve"/>
      <point x="621" y="-30" type="line"/>
      <point x="255" y="-30"/>
      <point x="50" y="211"/>
      <point x="50" y="466" type="curve" smooth="yes"/>
      <point x="50" y="721"/>
      <point x="255" y="946"/>
      <point x="621" y="946" type="curve"/>
      <point x="922" y="946" type="line"/>
      <point x="922" y="1480" type="line"/>
    </contour>
    <contour>
      <point x="922" y="626" type="line"/>
      <point x="621" y="626" type="line"/>
      <point x="501" y="626"/>
      <point x="430" y="546"/>
      <point x="430" y="466" type="curve" smooth="yes"/>
      <point x="430" y="386"/>
      <point x="501" y="306"/>
      <point x="621" y="306" type="curve"/>
      <point x="733" y="306" type="line"/>
      <point x="853" y="306"/>
      <point x="922" y="386"/>
      <point x="922" y="466" type="curve" smooth="yes"/>
    </contour>
    <contour>
      <point x="2014" y="1039" type="line"/>
      <point x="2014" y="466" type="line"/>
      <point x="2014" y="146"/>
      <point x="1788" y="-32"/>
      <point x="1468" y="-32" type="curve" smooth="yes"/>
      <point x="1148" y="-32"/>
      <point x="922" y="146"/>
      <point x="922" y="466" type="curve"/>
      <point x="1302" y="466" type="line"/>
      <point x="1302" y="356"/>
      <point x="1338" y="304"/>
      <point x="1468" y="304" type="curve" smooth="yes"/>
      <point x="1598" y="304"/>
      <point x="1634" y="356"/>
      <point x="1634" y="466" type="curve" smooth="yes"/>
      <point x="1634" y="1039" type="line"/>
    </contour>
  </outline>
</glyph>
<glyph name="uni0506" format="2">
  <advance width="1502"/>
  <unicode hex="0506"/>
  <outline>
    <contour>
      <point x="997" y="336" type="line"/>
      <point x="1467" y="336" type="line"/>
      <point x="1467" y="-300" type="line"/>
      <point x="1087" y="-300" type="line"/>
      <point x="1087" y="0" type="line"/>
      <point x="997" y="0" type="line"/>
    </contour>
    <contour>
      <point x="897" y="468" type="line"/>
      <point x="897" y="548"/>
      <point x="794" y="600"/>
      <point x="609" y="600" type="curve" smooth="yes"/>
      <point x="609" y="936" type="line" smooth="yes"/>
      <point x="969" y="936"/>
      <point x="1277" y="751"/>
      <point x="1277" y="468" type="curve"/>
      <point x="1277" y="0" type="line"/>
      <point x="897" y="0" type="line"/>
    </contour>
    <contour>
      <point x="497" y="936" type="line"/>
      <point x="609" y="936" type="line"/>
      <point x="609" y="600" type="line"/>
      <point x="497" y="600" type="line"/>
    </contour>
    <contour>
      <point x="50" y="1150" type="line"/>
      <point x="95" y="1377"/>
      <point x="317" y="1510"/>
      <point x="609" y="1510" type="curve" smooth="yes"/>
      <point x="939" y="1510"/>
      <point x="1169" y="1341"/>
      <point x="1169" y="1058" type="curve" smooth="yes"/>
      <point x="1169" y="829"/>
      <point x="939" y="706"/>
      <point x="609" y="706" type="curve"/>
      <point x="609" y="936" type="line" smooth="yes"/>
      <point x="694" y="936"/>
      <point x="789" y="970"/>
      <point x="789" y="1050" type="curve" smooth="yes"/>
      <point x="789" y="1130"/>
      <point x="734" y="1174"/>
      <point x="609" y="1174" type="curve" smooth="yes"/>
      <point x="484" y="1174"/>
      <point x="421" y="1130"/>
      <point x="421" y="1050" type="curve" smooth="yes"/>
    </contour>
  </outline>
</glyph>
<glyph name="uni0508" format="2">
  <advance width="2128"/>
  <unicode hex="0508"/>
  <outline>
    <contour>
      <point x="1346" y="468" type="curve"/>
      <point x="1346" y="1480" type="line"/>
      <point x="368" y="1480" type="line"/>
      <point x="273" y="520" type="line" smooth="yes"/>
      <point x="258" y="371"/>
      <point x="107" y="306"/>
      <point x="5" y="306" type="curve"/>
      <point x="5" y="-30" type="line" smooth="yes"/>
      <point x="373" y="-30"/>
      <point x="618" y="121"/>
      <point x="653" y="520" type="curve" smooth="yes"/>
      <point x="724" y="1144" type="line"/>
      <point x="966" y="1144" type="line"/>
      <point x="966" y="468" type="line"/>
      <point x="966" y="148"/>
      <point x="1192" y="-30"/>
      <point x="1512" y="-30" type="curve" smooth="yes"/>
      <point x="1832" y="-30"/>
      <point x="2058" y="148"/>
      <point x="2058" y="468" type="curve"/>
      <point x="2058" y="1041" type="line"/>
      <point x="1678" y="1041" type="line"/>
      <point x="1678" y="468" type="line" smooth="yes"/>
      <point x="1678" y="358"/>
      <point x="1642" y="306"/>
      <point x="1512" y="306" type="curve" smooth="yes"/>
      <point x="1382" y="306"/>
      <point x="1346" y="358"/>
    </contour>
  </outline>
</glyph>
<glyph name="uni050F" format="2">
  <advance width="1329"/>
  <unicode hex="050F"/>
  <outline>
    <contour>
      <point x="749" y="344" type="curve"/>
      <point x="749" y="720" type="line"/>
      <point x="1068" y="720" type="line"/>
      <point x="1068" y="1040" type="line"/>
      <point x="70" y="1040" type="line"/>
      <point x="70" y="720" type="line"/>
      <point x="389" y="720" type="line"/>
      <point x="389" y="344" type="line"/>
      <point x="389" y="76"/>
      <point x="561" y="-30"/>
      <point x="824" y="-30" type="curve" smooth="yes"/>
      <point x="1087" y="-30"/>
      <point x="1259" y="76"/>
      <point x="1259" y="344" type="curve"/>
      <point x="1259" y="699" type="line"/>
      <point x="899" y="699" type="line"/>
      <point x="899" y="344" type="line" smooth="yes"/>
      <point x="899" y="308"/>
      <point x="880" y="290"/>
      <point x="824" y="290" type="curve" smooth="yes"/>
      <point x="768" y="290"/>
      <point x="749" y="308"/>
    </contour>
  </outline>
</glyph>
<glyph name="uni0510" format="2">
  <advance width="1406"/>
  <unicode hex="0510"/>
  <outline>
    <contour>
      <point x="704" y="936" type="line" smooth="yes"/>
      <point x="559" y="936"/>
      <point x="484" y="970"/>
      <point x="484" y="1050" type="curve" smooth="yes"/>
      <point x="484" y="1130"/>
      <point x="569" y="1174"/>
      <point x="704" y="1174" type="curve" smooth="yes"/>
      <point x="839" y="1174"/>
      <point x="932" y="1130"/>
      <point x="932" y="1050" type="curve"/>
      <point x="1303" y="1150" type="line"/>
      <point x="1258" y="1377"/>
      <point x="1016" y="1510"/>
      <point x="704" y="1510" type="curve" smooth="yes"/>
      <point x="354" y="1510"/>
      <point x="104" y="1341"/>
      <point x="104" y="1058" type="curve" smooth="yes"/>
      <point x="104" y="829"/>
      <point x="270" y="781"/>
      <point x="270" y="781" type="curve"/>
      <point x="270" y="781"/>
      <point x="50" y="695"/>
      <point x="50" y="453" type="curve" smooth="yes"/>
      <point x="50" y="120"/>
      <point x="324" y="-30"/>
      <point x="704" y="-30" type="curve" smooth="yes"/>
      <point x="1019" y="-30"/>
      <point x="1313" y="91"/>
      <point x="1356" y="361" type="curve"/>
      <point x="983" y="461" type="line"/>
      <point x="983" y="361"/>
      <point x="864" y="306"/>
      <point x="704" y="306" type="curve" smooth="yes"/>
      <point x="544" y="306"/>
      <point x="430" y="361"/>
      <point x="430" y="461" type="curve" smooth="yes"/>
      <point x="430" y="561"/>
      <point x="524" y="616"/>
      <point x="704" y="616" type="curve" smooth="yes"/>
      <point x="818" y="616" type="line"/>
      <point x="818" y="936" type="line"/>
    </contour>
  </outline>
</glyph>
<glyph name="uni0524" format="2">
  <advance width="1637"/>
  <unicode hex="0524"/>
  <outline>
    <contour>
      <point x="1132" y="336" type="line"/>
      <point x="1602" y="336" type="line"/>
      <point x="1602" y="-300" type="line"/>
      <point x="1222" y="-300" type="line"/>
      <point x="1222" y="0" type="line"/>
      <point x="1132" y="0" type="line"/>
    </contour>
    <contour>
      <point x="1412" y="1480" type="line"/>
      <point x="1412" y="0" type="line"/>
      <point x="1032" y="0" type="line"/>
      <point x="1032" y="1143" type="line"/>
      <point x="450" y="1143" type="line"/>
      <point x="450" y="0" type="line"/>
      <point x="70" y="0" type="line"/>
      <point x="70" y="1480" type="line"/>
    </contour>
  </outline>
</glyph>
<glyph name="uni052C" format="2">
  <advance width="1655"/>
  <unicode hex="052C"/>
  <outline>
    <contour>
      <point x="35" y="-300" type="line"/>
      <point x="35" y="336" type="line"/>
      <point x="415" y="336" type="line"/>
      <point x="415" y="-300" type="line"/>
    </contour>
    <contour>
      <point x="1240" y="-300" type="line"/>
      <point x="1240" y="336" type="line"/>
      <point x="1620" y="336" type="line"/>
      <point x="1620" y="-300" type="line"/>
    </contour>
    <contour>
      <point x="1280" y="0" type="line"/>
      <point x="355" y="0" type="line"/>
      <point x="355" y="336" type="line"/>
      <point x="1240" y="336" type="line"/>
    </contour>
    <contour>
      <point x="1430" y="1480" type="line"/>
      <point x="1430" y="0" type="line"/>
      <point x="1050" y="0" type="line"/>
      <point x="1050" y="1144" type="line"/>
      <point x="988" y="1144" type="line"/>
      <point x="917" y="550" type="line" smooth="yes"/>
      <point x="882" y="151"/>
      <point x="637" y="0"/>
      <point x="269" y="0" type="curve" smooth="yes"/>
      <point x="269" y="336" type="line"/>
      <point x="371" y="336"/>
      <point x="522" y="401"/>
      <point x="537" y="550" type="curve" smooth="yes"/>
      <point x="632" y="1480" type="line"/>
    </contour>
    <contour>
      <point x="754" y="570" type="curve" smooth="yes"/>
      <point x="395" y="570"/>
      <point x="157" y="731"/>
      <point x="157" y="1151" type="curve"/>
      <point x="157" y="1480" type="line"/>
      <point x="537" y="1480" type="line"/>
      <point x="537" y="1151" type="line" smooth="yes"/>
      <point x="537" y="993"/>
      <point x="596" y="906"/>
      <point x="754" y="906" type="curve" smooth="yes"/>
      <point x="1012" y="906"/>
      <point x="1067" y="1054"/>
      <point x="1067" y="1054" type="curve"/>
      <point x="1257" y="795" type="line"/>
      <point x="1257" y="795"/>
      <point x="1173" y="570"/>
    </contour>
  </outline>
</glyph>
<glyph name="uni052E" format="2">
  <advance width="1571"/>
  <unicode hex="052E"/>
  <outline>
    <contour>
      <point x="1066" y="336" type="line"/>
      <point x="1536" y="336" type="line"/>
      <point x="1536" y="-300" type="line"/>
      <point x="1156" y="-300" type="line"/>
      <point x="1156" y="0" type="line"/>
      <point x="1066" y="0" type="line"/>
    </contour>
    <contour>
      <point x="1346" y="1480" type="line"/>
      <point x="1346" y="0" type="line"/>
      <point x="966" y="0" type="line"/>
      <point x="966" y="1144" type="line"/>
      <point x="724" y="1144" type="line"/>
      <point x="653" y="520" type="line" smooth="yes"/>
      <point x="618" y="121"/>
      <point x="373" y="-30"/>
      <point x="5" y="-30" type="curve" smooth="yes"/>
      <point x="5" y="306" type="line"/>
      <point x="107" y="306"/>
      <point x="258" y="371"/>
      <point x="273" y="520" type="curve" smooth="yes"/>
      <point x="368" y="1480" type="line"/>
    </contour>
  </outline>
</glyph>
<glyph name="uni1D43" format="2">
  <advance width="780"/>
  <unicode hex="1D43"/>
  <outline>
    <contour>
      <point x="538" y="845" type="curve"/>
      <point x="510" y="801"/>
      <point x="433" y="765"/>
      <point x="348" y="765" type="curve" smooth="yes"/>
      <point x="171" y="765"/>
      <point x="70" y="867"/>
      <point x="70" y="998" type="curve" smooth="yes"/>
      <point x="70" y="1129"/>
      <point x="199" y="1206"/>
      <point x="376" y="1206" type="curve" smooth="yes"/>
      <point x="395" y="1206"/>
      <point x="427" y="1201"/>
      <point x="453" y="1189" type="curve"/>
      <point x="452" y="1197"/>
      <point x="430" y="1221"/>
      <point x="376" y="1221" type="curve" smooth="yes"/>
      <point x="245" y="1221"/>
      <point x="179" y="1189"/>
      <point x="179" y="1189" type="curve"/>
      <point x="98" y="1376" type="line"/>
      <point x="98" y="1376"/>
      <point x="220" y="1431"/>
      <point x="376" y="1431" type="curve" smooth="yes"/>
      <point x="547" y="1431"/>
      <point x="682" y="1391"/>
      <point x="682" y="1186" type="curve" smooth="yes"/>
      <point x="682" y="1127" type="line"/>
      <point x="682" y="1098" type="line"/>
      <point x="682" y="1051" type="line" smooth="yes"/>
      <point x="682" y="1016"/>
      <point x="703" y="981"/>
      <point x="745" y="981" type="curve"/>
      <point x="698" y="764" type="line"/>
      <point x="627" y="771"/>
      <point x="575" y="806"/>
    </contour>
    <contour>
      <point x="443" y="1015" type="curve" smooth="yes"/>
      <point x="443" y="1023"/>
      <point x="426" y="1025"/>
      <point x="376" y="1025" type="curve" smooth="yes"/>
      <point x="326" y="1025"/>
      <point x="308" y="1023"/>
      <point x="308" y="1015" type="curve" smooth="yes"/>
      <point x="308" y="1007"/>
      <point x="326" y="1005"/>
      <point x="376" y="1005" type="curve" smooth="yes"/>
      <point x="426" y="1005"/>
      <point x="443" y="1007"/>
    </contour>
  </outline>
</glyph>
<glyph name="uni1D4B" format="2">
  <advance width="756"/>
  <unicode hex="1D4B"/>
  <outline>
    <contour>
      <point x="394" y="1208" type="curve"/>
      <point x="365" y="1208"/>
      <point x="349" y="1212"/>
      <point x="349" y="1226" type="curve" smooth="yes"/>
      <point x="349" y="1240"/>
      <point x="365" y="1244"/>
      <point x="394" y="1244" type="curve" smooth="yes"/>
      <point x="423" y="1244"/>
      <point x="440" y="1231"/>
      <point x="440" y="1216" type="curve" smooth="yes"/>
      <point x="684" y="1272" type="line"/>
      <point x="668" y="1384"/>
      <point x="542" y="1484"/>
      <point x="394" y="1484" type="curve" smooth="yes"/>
      <point x="216" y="1484"/>
      <point x="78" y="1416"/>
      <point x="78" y="1295" type="curve" smooth="yes"/>
      <point x="78" y="1230"/>
      <point x="87" y="1191"/>
      <point x="169" y="1151" type="curve"/>
      <point x="65" y="1101"/>
      <point x="50" y="1057"/>
      <point x="50" y="990" type="curve" smooth="yes"/>
      <point x="50" y="862"/>
      <point x="199" y="791"/>
      <point x="387" y="791" type="curve" smooth="yes"/>
      <point x="563" y="791"/>
      <point x="684" y="887"/>
      <point x="706" y="1018" type="curve"/>
      <point x="482" y="1064" type="line" smooth="yes"/>
      <point x="473" y="1039"/>
      <point x="444" y="1031"/>
      <point x="387" y="1031" type="curve" smooth="yes"/>
      <point x="330" y="1031"/>
      <point x="320" y="1044"/>
      <point x="320" y="1060" type="curve" smooth="yes"/>
      <point x="320" y="1076"/>
      <point x="332" y="1089"/>
      <point x="394" y="1089" type="curve"/>
      <point x="423" y="1089"/>
      <point x="440" y="1089"/>
      <point x="440" y="1089" type="curve"/>
      <point x="440" y="1208" type="line"/>
      <point x="440" y="1208"/>
      <point x="428" y="1208"/>
    </contour>
  </outline>
</glyph>
<glyph name="uni1D52" format="2">
  <advance width="782"/>
  <unicode hex="1D52"/>
  <outline>
    <contour>
      <point x="391" y="1431" type="curve" smooth="yes"/>
      <point x="191" y="1431"/>
      <point x="50" y="1311"/>
      <point x="50" y="1111" type="curve" smooth="yes"/>
      <point x="50" y="911"/>
      <point x="191" y="792"/>
      <point x="391" y="792" type="curve" smooth="yes"/>
      <point x="591" y="792"/>
      <point x="732" y="911"/>
      <point x="732" y="1111" type="curve" smooth="yes"/>
      <point x="732" y="1311"/>
      <point x="591" y="1431"/>
    </contour>
    <contour>
      <point x="391" y="1032" type="curve" smooth="yes"/>
      <point x="341" y="1032"/>
      <point x="320" y="1061"/>
      <point x="320" y="1111" type="curve" smooth="yes"/>
      <point x="320" y="1161"/>
      <point x="341" y="1191"/>
      <point x="391" y="1191" type="curve" smooth="yes"/>
      <point x="441" y="1191"/>
      <point x="462" y="1161"/>
      <point x="462" y="1111" type="curve" smooth="yes"/>
      <point x="462" y="1061"/>
      <point x="441" y="1032"/>
    </contour>
  </outline>
</glyph>
<glyph name="uni1D58" format="2">
  <advance width="739"/>
  <unicode hex="1D58"/>
  <outline>
    <contour>
      <point x="220" y="1413" type="line"/>
      <point x="220" y="1099" type="line" smooth="yes"/>
      <point x="220" y="978"/>
      <point x="266" y="918"/>
      <point x="370" y="918" type="curve" smooth="yes"/>
      <point x="474" y="918"/>
      <point x="519" y="978"/>
      <point x="519" y="1099" type="curve" smooth="yes"/>
      <point x="519" y="1413" type="line"/>
      <point x="654" y="1413" type="line"/>
      <point x="654" y="910" type="line"/>
      <point x="654" y="851"/>
      <point x="666" y="810"/>
      <point x="666" y="810" type="curve"/>
      <point x="540" y="810" type="line"/>
      <point x="540" y="810"/>
      <point x="528" y="856"/>
      <point x="528" y="901" type="curve"/>
      <point x="475" y="837"/>
      <point x="412" y="798"/>
      <point x="334" y="798" type="curve" smooth="yes"/>
      <point x="165" y="798"/>
      <point x="85" y="900"/>
      <point x="85" y="1096" type="curve"/>
      <point x="85" y="1413" type="line"/>
    </contour>
  </outline>
</glyph>
<glyph name="uni1D7D" format="2">
  <advance width="1550"/>
  <unicode hex="1D7D"/>
  <outline>
    <contour>
      <point x="1550" y="400" type="line"/>
      <point x="0" y="400" type="line"/>
      <point x="0" y="446"/>
      <point x="0" y="594"/>
      <point x="0" y="640" type="curve"/>
      <point x="1550" y="640" type="line"/>
    </contour>
    <contour>
      <point x="570" y="530" type="curve" smooth="yes"/>
      <point x="570" y="400"/>
      <point x="633" y="290"/>
      <point x="770" y="290" type="curve" smooth="yes"/>
      <point x="907" y="290"/>
      <point x="980" y="390"/>
      <point x="980" y="520" type="curve" smooth="yes"/>
      <point x="980" y="650"/>
      <point x="907" y="750"/>
      <point x="770" y="750" type="curve" smooth="yes"/>
      <point x="639" y="750"/>
      <point x="570" y="660"/>
    </contour>
    <contour>
      <point x="210" y="872" type="line"/>
      <point x="210" y="974"/>
      <point x="210" y="1040"/>
      <point x="210" y="1040" type="curve"/>
      <point x="558" y="1040" type="line"/>
      <point x="558" y="920" type="line"/>
      <point x="558" y="960"/>
      <point x="685" y="1070"/>
      <point x="835" y="1070" type="curve" smooth="yes"/>
      <point x="1155" y="1070"/>
      <point x="1340" y="840"/>
      <point x="1340" y="520" type="curve" smooth="yes"/>
      <point x="1340" y="200"/>
      <point x="1155" y="-30"/>
      <point x="835" y="-30" type="curve" smooth="yes"/>
      <point x="685" y="-30"/>
      <point x="580" y="81"/>
      <point x="570" y="120" type="curve"/>
      <point x="570" y="-440" type="line"/>
      <point x="210" y="-440" type="line"/>
    </contour>
  </outline>
</glyph>
<glyph name="uni1DA4" format="2">
  <advance width="630"/>
  <unicode hex="1DA4"/>
  <outline>
    <contour>
      <point x="0" y="992" type="line"/>
      <point x="630" y="992" type="line"/>
      <point x="630" y="1232" type="line"/>
      <point x="0" y="1232" type="line"/>
    </contour>
    <contour>
      <point x="165" y="1624" type="curve" smooth="yes"/>
      <point x="165" y="1707"/>
      <point x="232" y="1774"/>
      <point x="315" y="1774" type="curve" smooth="yes"/>
      <point x="398" y="1774"/>
      <point x="465" y="1707"/>
      <point x="465" y="1624" type="curve" smooth="yes"/>
      <point x="465" y="1541"/>
      <point x="398" y="1474"/>
      <point x="315" y="1474" type="curve" smooth="yes"/>
      <point x="232" y="1474"/>
      <point x="165" y="1541"/>
    </contour>
    <contour>
      <point x="450" y="810" type="line"/>
      <point x="450" y="890" type="line"/>
      <point x="450" y="1413" type="line"/>
      <point x="180" y="1413" type="line"/>
      <point x="180" y="908" type="line"/>
      <point x="180" y="810" type="line"/>
    </contour>
  </outline>
</glyph>
<glyph name="uni1DC6" format="2">
  <advance width="0"/>
  <unicode hex="1DC6"/>
  <anchor x="643" y="1040" name="_top_center"/>
  <outline>
    <contour>
      <point x="751" y="1224" type="line"/>
      <point x="525" y="1480" type="line"/>
      <point x="929" y="1480" type="line"/>
      <point x="1107" y="1224" type="line"/>
    </contour>
    <contour>
      <point x="197" y="1290" type="line"/>
      <point x="197" y="1480" type="line"/>
      <point x="525" y="1480" type="line"/>
      <point x="929" y="1290" type="line"/>
    </contour>
  </outline>
</glyph>
<glyph name="uni1E64" format="2">
  <advance width="1327"/>
  <unicode hex="1E64"/>
  <outline>
    <contour>
      <point x="662" y="1174" type="curve" smooth="yes"/>
      <point x="522" y="1174"/>
      <point x="458" y="1132"/>
      <point x="458" y="1052" type="curve" smooth="yes"/>
      <point x="458" y="992"/>
      <point x="556" y="973"/>
      <point x="662" y="945" type="curve" smooth="yes"/>
      <point x="1029" y="847"/>
      <point x="1277" y="725"/>
      <point x="1277" y="445" type="curve" smooth="yes"/>
      <point x="1277" y="165"/>
      <point x="1072" y="-30"/>
      <point x="662" y="-30" type="curve" smooth="yes"/>
      <point x="357" y="-30"/>
      <point x="93" y="91"/>
      <point x="50" y="361" type="curve"/>
      <point x="423" y="461" type="line" smooth="yes"/>
      <point x="423" y="361"/>
      <point x="512" y="306"/>
      <point x="662" y="306" type="curve" smooth="yes"/>
      <point x="812" y="306"/>
      <point x="897" y="355"/>
      <point x="897" y="445" type="curve" smooth="yes"/>
      <point x="897" y="535"/>
      <point x="768" y="549"/>
      <point x="662" y="577" type="curve" smooth="yes"/>
      <point x="314" y="670"/>
      <point x="78" y="792"/>
      <point x="78" y="1052" type="curve" smooth="yes"/>
      <point x="78" y="1312"/>
      <point x="292" y="1510"/>
      <point x="662" y="1510" type="curve" smooth="yes"/>
      <point x="967" y="1510"/>
      <point x="1206" y="1394"/>
      <point x="1249" y="1124" type="curve"/>
      <point x="876" y="1024" type="line" smooth="yes"/>
      <point x="876" y="1124"/>
      <point x="802" y="1174"/>
    </contour>
    <contour>
      <point x="1018" y="1564" type="line"/>
      <point x="662" y="1564" type="line"/>
      <point x="840" y="1820" type="line"/>
      <point x="1244" y="1820" type="line"/>
    </contour>
    <contour>
      <point x="216" y="1692" type="curve" smooth="yes"/>
      <point x="216" y="1803"/>
      <point x="305" y="1892"/>
      <point x="416" y="1892" type="curve" smooth="yes"/>
      <point x="527" y="1892"/>
      <point x="616" y="1803"/>
      <point x="616" y="1692" type="curve" smooth="yes"/>
      <point x="616" y="1581"/>
      <point x="527" y="1492"/>
      <point x="416" y="1492" type="curve" smooth="yes"/>
      <point x="305" y="1492"/>
      <point x="216" y="1581"/>
    </contour>
  </outline>
</glyph>
<glyph name="uni1E9E" format="2">
  <advance width="1340"/>
  <unicode hex="1E9E"/>
  <outline>
    <contour>
      <point x="1202" y="1040" type="line" smooth="yes"/>
      <point x="1202" y="1295"/>
      <point x="932" y="1510"/>
      <point x="626" y="1510" type="curve" smooth="yes"/>
      <point x="320" y="1510"/>
      <point x="70" y="1295"/>
      <point x="70" y="1040" type="curve" smooth="yes"/>
      <point x="70" y="785"/>
      <point x="70" y="0"/>
      <point x="70" y="0" type="curve"/>
      <point x="450" y="0" type="line"/>
      <point x="450" y="0"/>
      <point x="450" y="960"/>
      <point x="450" y="1040" type="curve" smooth="yes"/>
      <point x="450" y="1120"/>
      <point x="536" y="1174"/>
      <point x="626" y="1174" type="curve" smooth="yes"/>
      <point x="716" y="1174"/>
      <point x="802" y="1130"/>
      <point x="802" y="1060" type="curve" smooth="yes"/>
      <point x="638" y="932" type="line"/>
      <point x="714" y="662" type="line"/>
    </contour>
    <contour>
      <point x="702" y="306" type="curve" smooth="yes"/>
      <point x="660" y="306"/>
      <point x="634" y="312"/>
      <point x="575" y="345" type="curve"/>
      <point x="510" y="10" type="line"/>
      <point x="550" y="-3"/>
      <point x="652" y="-30"/>
      <point x="702" y="-30" type="curve" smooth="yes"/>
      <point x="1061" y="-30"/>
      <point x="1290" y="176"/>
      <point x="1290" y="456" type="curve" smooth="yes"/>
      <point x="1290" y="736"/>
      <point x="998" y="932"/>
      <point x="638" y="932" type="curve" smooth="yes"/>
      <point x="638" y="612" type="line" smooth="yes"/>
      <point x="758" y="612"/>
      <point x="910" y="576"/>
      <point x="910" y="456" type="curve" smooth="yes"/>
      <point x="910" y="336"/>
      <point x="822" y="306"/>
    </contour>
  </outline>
</glyph>
<glyph name="uni1E9F" format="2">
  <advance width="1200"/>
  <unicode hex="1E9F"/>
  <outline>
    <contour>
      <point x="50" y="520" type="curve" smooth="yes"/>
      <point x="50" y="840"/>
      <point x="280" y="970"/>
      <point x="600" y="970" type="curve" smooth="yes"/>
      <point x="600" y="750" type="line" smooth="yes"/>
      <point x="463" y="750"/>
      <point x="410" y="657"/>
      <point x="410" y="520" type="curve" smooth="yes"/>
      <point x="410" y="390"/>
      <point x="463" y="290"/>
      <point x="600" y="290" type="curve" smooth="yes"/>
      <point x="737" y="290"/>
      <point x="790" y="383"/>
      <point x="790" y="520" type="curve" smooth="yes"/>
      <point x="790" y="657"/>
      <point x="737" y="750"/>
      <point x="600" y="750" type="curve" smooth="yes"/>
      <point x="600" y="1070" type="line" smooth="yes"/>
      <point x="920" y="1070"/>
      <point x="1150" y="840"/>
      <point x="1150" y="520" type="curve" smooth="yes"/>
      <point x="1150" y="200"/>
      <point x="920" y="-30"/>
      <point x="600" y="-30" type="curve" smooth="yes"/>
      <point x="280" y="-30"/>
      <point x="50" y="200"/>
    </contour>
    <contour>
      <point x="600" y="1510" type="curve" smooth="yes"/>
      <point x="816" y="1510"/>
      <point x="960" y="1484"/>
      <point x="1082" y="1433" type="curve"/>
      <point x="1004" y="1119" type="line"/>
      <point x="877" y="1174"/>
      <point x="739" y="1190"/>
      <point x="600" y="1190" type="curve" smooth="yes"/>
      <point x="514" y="1190"/>
      <point x="478" y="1170"/>
      <point x="478" y="1130" type="curve" smooth="yes"/>
      <point x="478" y="1090"/>
      <point x="514" y="1070"/>
      <point x="600" y="1070" type="curve" smooth="yes"/>
      <point x="600" y="750" type="line" smooth="yes"/>
      <point x="264" y="750"/>
      <point x="118" y="950"/>
      <point x="118" y="1130" type="curve" smooth="yes"/>
      <point x="118" y="1310"/>
      <point x="264" y="1510"/>
    </contour>
  </outline>
</glyph>
<glyph name="uni1EFC" format="2">
  <advance width="1428"/>
  <unicode hex="1EFC"/>
  <outline>
    <contour>
      <point x="775" y="719" type="line"/>
      <point x="955" y="675"/>
      <point x="998" y="603"/>
      <point x="998" y="483" type="curve" smooth="yes"/>
      <point x="998" y="363"/>
      <point x="922" y="306"/>
      <point x="762" y="306" type="curve" smooth="yes"/>
      <point x="602" y="306"/>
      <point x="430" y="340"/>
      <point x="430" y="740" type="curve" smooth="yes"/>
      <point x="430" y="1140"/>
      <point x="713" y="1164"/>
      <point x="978" y="1164" type="curve" smooth="yes"/>
      <point x="978" y="1500" type="line" smooth="yes"/>
      <point x="662" y="1500"/>
      <point x="50" y="1440"/>
      <point x="50" y="740" type="curve" smooth="yes"/>
      <point x="50" y="90"/>
      <point x="432" y="-30"/>
      <point x="762" y="-30" type="curve" smooth="yes"/>
      <point x="1092" y="-30"/>
      <point x="1378" y="133"/>
      <point x="1378" y="483" type="curve" smooth="yes"/>
      <point x="1378" y="788"/>
      <point x="1139" y="969"/>
      <point x="888" y="1039" type="curve"/>
    </contour>
  </outline>
</glyph>
<glyph name="uni1EFD" format="2">
  <advance width="1356"/>
  <unicode hex="1EFD"/>
  <outline>
    <contour>
      <point x="783" y="1051" type="line"/>
      <point x="1083" y="991"/>
      <point x="1306" y="823"/>
      <point x="1306" y="483" type="curve" smooth="yes"/>
      <point x="1306" y="192"/>
      <point x="1062" y="-30"/>
      <point x="702" y="-30" type="curve" smooth="yes"/>
      <point x="342" y="-30"/>
      <point x="50" y="163"/>
      <point x="50" y="563" type="curve" smooth="yes"/>
      <point x="50" y="1163"/>
      <point x="478" y="1480"/>
      <point x="478" y="1480" type="curve"/>
      <point x="977" y="1480" type="line"/>
      <point x="977" y="1480"/>
      <point x="410" y="1163"/>
      <point x="410" y="563" type="curve" smooth="yes"/>
      <point x="410" y="383"/>
      <point x="507" y="290"/>
      <point x="702" y="290" type="curve" smooth="yes"/>
      <point x="897" y="290"/>
      <point x="946" y="359"/>
      <point x="946" y="483" type="curve" smooth="yes"/>
      <point x="946" y="613"/>
      <point x="847" y="693"/>
      <point x="681" y="727" type="curve"/>
    </contour>
  </outline>
</glyph>
<glyph name="uni1EFE" format="2">
  <advance width="1452"/>
  <unicode hex="1EFE"/>
  <outline>
    <contour>
      <point x="409" y="210" type="curve" smooth="yes"/>
      <point x="500.01" y="210"/>
      <point x="534.988" y="325.005"/>
      <point x="554" y="370" type="curve" smooth="yes"/>
      <point x="1023" y="1480" type="line"/>
      <point x="1417" y="1480" type="line"/>
      <point x="876" y="258" type="line" smooth="yes"/>
      <point x="806" y="100"/>
      <point x="667" y="-29"/>
      <point x="410" y="-30" type="curve" smooth="yes"/>
      <point x="215" y="-30"/>
      <point x="50" y="106"/>
      <point x="50" y="319" type="curve" smooth="yes"/>
      <point x="50" y="532"/>
      <point x="215" y="648"/>
      <point x="410" y="648" type="curve" smooth="yes"/>
      <point x="619" y="648" type="line"/>
      <point x="619" y="408" type="line"/>
      <point x="410" y="408" type="line" smooth="yes"/>
      <point x="356" y="408"/>
      <point x="320" y="363"/>
      <point x="320" y="309" type="curve" smooth="yes"/>
      <point x="320" y="255"/>
      <point x="355" y="210"/>
    </contour>
    <contour>
      <point x="858" y="623" type="line"/>
      <point x="620" y="340" type="line"/>
      <point x="119" y="1480" type="line"/>
      <point x="513" y="1480" type="line"/>
    </contour>
  </outline>
</glyph>
<glyph name="uni1FBD" format="2">
  <advance width="349"/>
  <unicode hex="1FBD"/>
  <anchor x="423" y="1480" name="_top_left"/>
  <anchor x="388" y="1234" name="_top_left_O2"/>
  <anchor x="155" y="1040" name="_top_center_1F"/>
  <outline>
    <contour>
      <point x="35" y="1443" type="curve" smooth="yes"/>
      <point x="35" y="1510"/>
      <point x="88" y="1563"/>
      <point x="155" y="1563" type="curve" smooth="yes"/>
      <point x="222" y="1563"/>
      <point x="275" y="1510"/>
      <point x="275" y="1443" type="curve" smooth="yes"/>
      <point x="275" y="1376"/>
      <point x="222" y="1323"/>
      <point x="155" y="1323" type="curve" smooth="yes"/>
      <point x="88" y="1323"/>
      <point x="35" y="1376"/>
    </contour>
    <contour>
      <point x="44" y="1246" type="line"/>
      <point x="121" y="1258"/>
      <point x="180" y="1307"/>
      <point x="180" y="1360" type="curve" smooth="yes"/>
      <point x="180" y="1386"/>
      <point x="156" y="1443"/>
      <point x="156" y="1443" type="curve"/>
      <point x="155" y="1563" type="line"/>
      <point x="223" y="1563"/>
      <point x="314" y="1520"/>
      <point x="314" y="1360" type="curve" smooth="yes"/>
      <point x="314" y="1233"/>
      <point x="175" y="1135"/>
      <point x="80" y="1118" type="curve"/>
    </contour>
  </outline>
</glyph>
<glyph name="uni1FC0" format="2">
  <advance width="788"/>
  <unicode hex="1FC0"/>
  <anchor x="398" y="1040" name="_top_center"/>
  <outline>
    <contour>
      <point x="244" y="1204" type="curve"/>
      <point x="35" y="1260" type="line"/>
      <point x="52" y="1377"/>
      <point x="145" y="1499"/>
      <point x="301" y="1499" type="curve" smooth="yes"/>
      <point x="391" y="1499"/>
      <point x="445" y="1436"/>
      <point x="487" y="1436" type="curve" smooth="yes"/>
      <point x="532" y="1436"/>
      <point x="544" y="1478"/>
      <point x="544" y="1499" type="curve"/>
      <point x="753" y="1443" type="line"/>
      <point x="736" y="1326"/>
      <point x="643" y="1204"/>
      <point x="487" y="1204" type="curve" smooth="yes"/>
      <point x="397" y="1204"/>
      <point x="343" y="1267"/>
      <point x="301" y="1267" type="curve" smooth="yes"/>
      <point x="250" y="1267"/>
      <point x="244" y="1225"/>
    </contour>
  </outline>
</glyph>
<glyph name="uni1FC1" format="2">
  <advance width="1100"/>
  <unicode hex="1FC1"/>
  <anchor x="552" y="1040" name="_top_center"/>
  <outline>
    <contour>
      <point x="400" y="1524" type="curve"/>
      <point x="191" y="1580" type="line"/>
      <point x="208" y="1697"/>
      <point x="301" y="1819"/>
      <point x="457" y="1819" type="curve" smooth="yes"/>
      <point x="547" y="1819"/>
      <point x="601" y="1756"/>
      <point x="643" y="1756" type="curve" smooth="yes"/>
      <point x="688" y="1756"/>
      <point x="700" y="1798"/>
      <point x="700" y="1819" type="curve"/>
      <point x="909" y="1763" type="line"/>
      <point x="892" y="1646"/>
      <point x="799" y="1524"/>
      <point x="643" y="1524" type="curve" smooth="yes"/>
      <point x="553" y="1524"/>
      <point x="499" y="1587"/>
      <point x="457" y="1587" type="curve" smooth="yes"/>
      <point x="406" y="1587"/>
      <point x="400" y="1545"/>
    </contour>
    <contour>
      <point x="665" y="1352" type="curve" smooth="yes"/>
      <point x="665" y="1463"/>
      <point x="754" y="1552"/>
      <point x="865" y="1552" type="curve" smooth="yes"/>
      <point x="976" y="1552"/>
      <point x="1065" y="1463"/>
      <point x="1065" y="1352" type="curve" smooth="yes"/>
      <point x="1065" y="1241"/>
      <point x="976" y="1152"/>
      <point x="865" y="1152" type="curve" smooth="yes"/>
      <point x="754" y="1152"/>
      <point x="665" y="1241"/>
    </contour>
    <contour>
      <point x="35" y="1352" type="curve" smooth="yes"/>
      <point x="35" y="1463"/>
      <point x="124" y="1552"/>
      <point x="235" y="1552" type="curve" smooth="yes"/>
      <point x="346" y="1552"/>
      <point x="435" y="1463"/>
      <point x="435" y="1352" type="curve" smooth="yes"/>
      <point x="435" y="1241"/>
      <point x="346" y="1152"/>
      <point x="235" y="1152" type="curve" smooth="yes"/>
      <point x="124" y="1152"/>
      <point x="35" y="1241"/>
    </contour>
  </outline>
</glyph>
<glyph name="uni1FEE" format="2">
  <advance width="1100"/>
  <unicode hex="1FEE"/>
  <anchor x="552" y="1040" name="_top_center"/>
  <outline>
    <contour>
      <point x="728" y="1436" type="line"/>
      <point x="372" y="1436" type="line"/>
      <point x="550" y="1692" type="line"/>
      <point x="954" y="1692" type="line"/>
    </contour>
    <contour>
      <point x="665" y="1352" type="curve" smooth="yes"/>
      <point x="665" y="1463"/>
      <point x="754" y="1552"/>
      <point x="865" y="1552" type="curve" smooth="yes"/>
      <point x="976" y="1552"/>
      <point x="1065" y="1463"/>
      <point x="1065" y="1352" type="curve" smooth="yes"/>
      <point x="1065" y="1241"/>
      <point x="976" y="1152"/>
      <point x="865" y="1152" type="curve" smooth="yes"/>
      <point x="754" y="1152"/>
      <point x="665" y="1241"/>
    </contour>
    <contour>
      <point x="35" y="1352" type="curve" smooth="yes"/>
      <point x="35" y="1463"/>
      <point x="124" y="1552"/>
      <point x="235" y="1552" type="curve" smooth="yes"/>
      <point x="346" y="1552"/>
      <point x="435" y="1463"/>
      <point x="435" y="1352" type="curve" smooth="yes"/>
      <point x="435" y="1241"/>
      <point x="346" y="1152"/>
      <point x="235" y="1152" type="curve" smooth="yes"/>
      <point x="124" y="1152"/>
      <point x="35" y="1241"/>
    </contour>
  </outline>
</glyph>
<glyph name="uni1FFE" format="2">
  <advance width="349"/>
  <unicode hex="1FFE"/>
  <anchor x="171" y="1040" name="_top_center_1F"/>
  <anchor x="431" y="1480" name="_top_left"/>
  <outline>
    <contour>
      <point x="314" y="1443" type="curve" smooth="yes"/>
      <point x="314" y="1376"/>
      <point x="261" y="1323"/>
      <point x="194" y="1323" type="curve" smooth="yes"/>
      <point x="127" y="1323"/>
      <point x="74" y="1376"/>
      <point x="74" y="1443" type="curve" smooth="yes"/>
      <point x="74" y="1510"/>
      <point x="127" y="1563"/>
      <point x="194" y="1563" type="curve" smooth="yes"/>
      <point x="261" y="1563"/>
      <point x="314" y="1510"/>
    </contour>
    <contour>
      <point x="305" y="1246" type="curve"/>
      <point x="269" y="1118" type="line"/>
      <point x="174" y="1135"/>
      <point x="35" y="1233"/>
      <point x="35" y="1360" type="curve" smooth="yes"/>
      <point x="35" y="1520"/>
      <point x="126" y="1563"/>
      <point x="194" y="1563" type="curve"/>
      <point x="193" y="1443" type="line"/>
      <point x="193" y="1443"/>
      <point x="169" y="1386"/>
      <point x="169" y="1360" type="curve" smooth="yes"/>
      <point x="169" y="1307"/>
      <point x="228" y="1258"/>
    </contour>
  </outline>
</glyph>
<glyph name="uni2016" format="2">
  <advance width="1040"/>
  <unicode hex="2016"/>
  <outline>
    <contour>
      <point x="970" y="1480" type="line"/>
      <point x="970" y="-440" type="line"/>
      <point x="610" y="-440" type="line"/>
      <point x="610" y="1480" type="line"/>
    </contour>
    <contour>
      <point x="430" y="1480" type="line"/>
      <point x="430" y="-440" type="line"/>
      <point x="70" y="-440" type="line"/>
      <point x="70" y="1480" type="line"/>
    </contour>
  </outline>
</glyph>
<glyph name="underscoredbl" format="2">
  <advance width="1278"/>
  <unicode hex="2017"/>
  <outline>
    <contour>
      <point x="0" y="-320" type="line"/>
      <point x="1278" y="-320" type="line"/>
      <point x="1278" y="-560" type="line"/>
      <point x="0" y="-560" type="line"/>
    </contour>
    <contour>
      <point x="0" y="0" type="line"/>
      <point x="1278" y="0" type="line"/>
      <point x="1278" y="-240" type="line"/>
      <point x="0" y="-240" type="line"/>
    </contour>
  </outline>
</glyph>
<glyph name="uni2027" format="2">
  <advance width="540"/>
  <unicode hex="2027"/>
  <outline>
    <contour>
      <point x="70" y="740" type="curve" smooth="yes"/>
      <point x="70" y="851"/>
      <point x="159" y="940"/>
      <point x="270" y="940" type="curve" smooth="yes"/>
      <point x="381" y="940"/>
      <point x="470" y="851"/>
      <point x="470" y="740" type="curve" smooth="yes"/>
      <point x="470" y="629"/>
      <point x="381" y="540"/>
      <point x="270" y="540" type="curve" smooth="yes"/>
      <point x="159" y="540"/>
      <point x="70" y="629"/>
    </contour>
  </outline>
</glyph>
<glyph name="uni203D" format="2">
  <advance width="1264"/>
  <unicode hex="203D"/>
  <outline>
    <contour>
      <point x="432" y="1480" type="line"/>
      <point x="478" y="452" type="line"/>
      <point x="798" y="452" type="line"/>
      <point x="844" y="1480" type="line"/>
    </contour>
    <contour>
      <point x="632" y="1174" type="curve" smooth="yes"/>
      <point x="727" y="1174"/>
      <point x="834" y="1145"/>
      <point x="834" y="1025" type="curve" smooth="yes"/>
      <point x="834" y="905"/>
      <point x="727" y="876"/>
      <point x="632" y="876" type="curve" smooth="yes"/>
      <point x="632" y="540" type="line" smooth="yes"/>
      <point x="968" y="540"/>
      <point x="1214" y="725"/>
      <point x="1214" y="1025" type="curve" smooth="yes"/>
      <point x="1214" y="1325"/>
      <point x="968" y="1510"/>
      <point x="632" y="1510" type="curve" smooth="yes"/>
      <point x="296" y="1510"/>
      <point x="50" y="1347"/>
      <point x="50" y="1027" type="curve" smooth="yes"/>
      <point x="437" y="943" type="line"/>
      <point x="437" y="943"/>
      <point x="430" y="969"/>
      <point x="430" y="1027" type="curve" smooth="yes"/>
      <point x="430" y="1127"/>
      <point x="517" y="1174"/>
    </contour>
    <contour>
      <point x="438" y="160" type="curve" smooth="yes"/>
      <point x="438" y="271"/>
      <point x="527" y="360"/>
      <point x="638" y="360" type="curve" smooth="yes"/>
      <point x="749" y="360"/>
      <point x="838" y="271"/>
      <point x="838" y="160" type="curve" smooth="yes"/>
      <point x="838" y="49"/>
      <point x="749" y="-40"/>
      <point x="638" y="-40" type="curve" smooth="yes"/>
      <point x="527" y="-40"/>
      <point x="438" y="49"/>
    </contour>
    <contour>
      <point x="458" y="876" type="line"/>
      <point x="458" y="452" type="line"/>
      <point x="818" y="452" type="line"/>
      <point x="818" y="876" type="line"/>
    </contour>
  </outline>
</glyph>
<glyph name="uni204D" format="2">
  <advance width="640"/>
  <unicode hex="204D"/>
  <note>Flipped uni204C</note>
  <outline>
    <contour>
      <point x="230" y="1010" type="line"/>
      <point x="50" y="1010" type="line"/>
      <point x="50" y="470" type="line"/>
      <point x="230" y="470" type="line"/>
    </contour>
    <contour>
      <point x="320" y="470" type="line" smooth="yes"/>
      <point x="468" y="470"/>
      <point x="590" y="592"/>
      <point x="590" y="740" type="curve" smooth="yes"/>
      <point x="590" y="888"/>
      <point x="468" y="1010"/>
      <point x="320" y="1010" type="curve" smooth="yes"/>
    </contour>
  </outline>
</glyph>
<glyph name="uni2076" format="2">
  <advance width="956"/>
  <unicode hex="2076"/>
  <outline>
    <contour>
      <point x="357" y="1334" type="curve"/>
      <point x="389" y="1375"/>
      <point x="414" y="1392"/>
      <point x="511" y="1392" type="curve" smooth="yes"/>
      <point x="736" y="1392"/>
      <point x="866" y="1286"/>
      <point x="866" y="1092" type="curve" smooth="yes"/>
      <point x="866" y="898"/>
      <point x="718" y="792"/>
      <point x="488" y="792" type="curve" smooth="yes"/>
      <point x="346" y="792"/>
      <point x="237" y="832"/>
      <point x="174" y="930" type="curve" smooth="yes"/>
      <point x="121" y="1013"/>
      <point x="90" y="1109"/>
      <point x="90" y="1212" type="curve" smooth="yes"/>
      <point x="90" y="1494"/>
      <point x="214" y="1686"/>
      <point x="574" y="1686" type="curve" smooth="yes"/>
      <point x="735" y="1686"/>
      <point x="831" y="1606"/>
      <point x="831" y="1606" type="curve"/>
      <point x="714" y="1400" type="line"/>
      <point x="714" y="1400"/>
      <point x="636" y="1446"/>
      <point x="524" y="1446" type="curve" smooth="yes"/>
      <point x="412" y="1446"/>
      <point x="370" y="1395"/>
    </contour>
    <contour>
      <point x="382" y="1107" type="curve" smooth="yes"/>
      <point x="382" y="1057"/>
      <point x="428" y="1032"/>
      <point x="488" y="1032" type="curve" smooth="yes"/>
      <point x="548" y="1032"/>
      <point x="595" y="1057"/>
      <point x="595" y="1107" type="curve" smooth="yes"/>
      <point x="595" y="1157"/>
      <point x="548" y="1182"/>
      <point x="488" y="1182" type="curve" smooth="yes"/>
      <point x="428" y="1182"/>
      <point x="382" y="1157"/>
    </contour>
  </outline>
</glyph>
<glyph name="uni2077" format="2">
  <advance width="956"/>
  <unicode hex="2077"/>
  <outline>
    <contour>
      <point x="108" y="1429" type="line"/>
      <point x="108" y="1668" type="line"/>
      <point x="848" y="1668" type="line"/>
      <point x="848" y="1449" type="line"/>
      <point x="848" y="1449"/>
      <point x="561" y="1266"/>
      <point x="510" y="810" type="curve"/>
      <point x="459" y="810"/>
      <point x="290" y="810"/>
      <point x="239" y="810" type="curve"/>
      <point x="296" y="1265"/>
      <point x="527" y="1429"/>
      <point x="527" y="1429" type="curve"/>
    </contour>
  </outline>
</glyph>
<glyph name="eight.superior" format="2">
  <advance width="956"/>
  <unicode hex="2078"/>
  <outline>
    <contour>
      <point x="76" y="1075" type="curve" smooth="yes"/>
      <point x="76" y="885"/>
      <point x="229" y="792"/>
      <point x="477" y="792" type="curve" smooth="yes"/>
      <point x="725" y="792"/>
      <point x="880" y="885"/>
      <point x="880" y="1075" type="curve" smooth="yes"/>
      <point x="880" y="1222"/>
      <point x="763" y="1263"/>
      <point x="763" y="1263" type="curve"/>
      <point x="763" y="1263"/>
      <point x="842" y="1300"/>
      <point x="842" y="1420" type="curve" smooth="yes"/>
      <point x="842" y="1593"/>
      <point x="704" y="1686"/>
      <point x="477" y="1686" type="curve" smooth="yes"/>
      <point x="250" y="1686"/>
      <point x="112" y="1593"/>
      <point x="112" y="1420" type="curve" smooth="yes"/>
      <point x="112" y="1300"/>
      <point x="190" y="1263"/>
      <point x="190" y="1263" type="curve"/>
      <point x="190" y="1263"/>
      <point x="76" y="1222"/>
    </contour>
    <contour>
      <point x="380" y="1399" type="curve" smooth="yes"/>
      <point x="380" y="1427"/>
      <point x="407" y="1446"/>
      <point x="477" y="1446" type="curve" smooth="yes"/>
      <point x="547" y="1446"/>
      <point x="574" y="1427"/>
      <point x="574" y="1399" type="curve" smooth="yes"/>
      <point x="574" y="1371"/>
      <point x="547" y="1352"/>
      <point x="477" y="1352" type="curve" smooth="yes"/>
      <point x="407" y="1352"/>
      <point x="380" y="1371"/>
    </contour>
    <contour>
      <point x="477" y="1168" type="curve" smooth="yes"/>
      <point x="565" y="1168"/>
      <point x="610" y="1144"/>
      <point x="610" y="1100" type="curve" smooth="yes"/>
      <point x="610" y="1056"/>
      <point x="565" y="1032"/>
      <point x="477" y="1032" type="curve" smooth="yes"/>
      <point x="389" y="1032"/>
      <point x="346" y="1056"/>
      <point x="346" y="1100" type="curve" smooth="yes"/>
      <point x="346" y="1144"/>
      <point x="389" y="1168"/>
    </contour>
  </outline>
</glyph>
<glyph name="uni207E" format="2">
  <advance width="611"/>
  <unicode hex="207E"/>
  <outline>
    <contour>
      <point x="561" y="1193" type="curve" smooth="yes"/>
      <point x="561" y="1541"/>
      <point x="255" y="1729"/>
      <point x="133" y="1773" type="curve"/>
      <point x="35" y="1535" type="line"/>
      <point x="114" y="1505"/>
      <point x="291" y="1437"/>
      <point x="291" y="1193" type="curve" smooth="yes"/>
      <point x="291" y="951"/>
      <point x="114" y="881"/>
      <point x="35" y="851" type="curve"/>
      <point x="133" y="614" type="line"/>
      <point x="255" y="658"/>
      <point x="561" y="846"/>
    </contour>
  </outline>
</glyph>
<glyph name="uni2080" format="2">
  <advance width="956"/>
  <unicode hex="2080"/>
  <outline>
    <contour>
      <point x="352" y="241" type="curve" smooth="yes"/>
      <point x="352" y="85"/>
      <point x="406" y="34"/>
      <point x="478" y="34" type="curve" smooth="yes"/>
      <point x="550" y="34"/>
      <point x="604" y="85"/>
      <point x="604" y="241" type="curve" smooth="yes"/>
      <point x="604" y="397"/>
      <point x="550" y="448"/>
      <point x="478" y="448" type="curve" smooth="yes"/>
      <point x="406" y="448"/>
      <point x="352" y="397"/>
    </contour>
    <contour>
      <point x="82" y="240" type="curve" smooth="yes"/>
      <point x="82" y="530"/>
      <point x="240" y="688"/>
      <point x="478" y="688" type="curve" smooth="yes"/>
      <point x="716" y="688"/>
      <point x="874" y="530"/>
      <point x="874" y="240" type="curve" smooth="yes"/>
      <point x="874" y="-50"/>
      <point x="716" y="-206"/>
      <point x="478" y="-206" type="curve" smooth="yes"/>
      <point x="240" y="-206"/>
      <point x="82" y="-50"/>
    </contour>
  </outline>
</glyph>
<glyph name="one.subscript" format="2">
  <advance width="956"/>
  <unicode hex="2081"/>
  <outline>
    <contour>
      <point x="388" y="268" type="line"/>
      <point x="168" y="268" type="line"/>
      <point x="168" y="508" type="line"/>
      <point x="224" y="508" type="line" smooth="yes"/>
      <point x="326" y="508"/>
      <point x="405" y="578"/>
      <point x="405" y="654" type="curve" smooth="yes"/>
      <point x="405" y="670" type="line"/>
      <point x="658" y="670" type="line"/>
      <point x="658" y="415" type="line"/>
      <point x="658" y="-188" type="line"/>
      <point x="388" y="-188" type="line"/>
    </contour>
  </outline>
</glyph>
<glyph name="two.subscript" format="2">
  <advance width="956"/>
  <unicode hex="2082"/>
  <outline>
    <contour>
      <point x="102" y="-188" type="line"/>
      <point x="102" y="-61"/>
      <point x="115" y="121"/>
      <point x="478" y="290" type="curve" smooth="yes"/>
      <point x="532" y="315"/>
      <point x="586" y="335"/>
      <point x="586" y="378" type="curve" smooth="yes"/>
      <point x="586" y="427"/>
      <point x="533" y="448"/>
      <point x="478" y="448" type="curve" smooth="yes"/>
      <point x="411" y="448"/>
      <point x="382" y="409"/>
      <point x="382" y="362" type="curve" smooth="yes"/>
      <point x="382" y="321"/>
      <point x="391" y="302"/>
      <point x="391" y="302" type="curve"/>
      <point x="112" y="362" type="line"/>
      <point x="112" y="563"/>
      <point x="269" y="688"/>
      <point x="478" y="688" type="curve" smooth="yes"/>
      <point x="687" y="688"/>
      <point x="854" y="581"/>
      <point x="854" y="403" type="curve" smooth="yes"/>
      <point x="854" y="225"/>
      <point x="757" y="178"/>
      <point x="596" y="103" type="curve" smooth="yes"/>
      <point x="551" y="82"/>
      <point x="519" y="67"/>
      <point x="506" y="52" type="curve"/>
      <point x="854" y="52" type="line"/>
      <point x="854" y="-188" type="line"/>
      <point x="339" y="-188" type="line"/>
      <point x="170" y="-188" type="line"/>
    </contour>
  </outline>
</glyph>
